Callisto.glyphspackage
{
glyphname = exclam;
layers = (
{
layerId = m01;
shapes = (
{
ref = period;
},
{
closed = 1;
nodes = (
(192,495,o),
(210,770,o),
(210,790,cs),
(210,818,o),
(80,818,o),
(80,790,cs),
(80,770,o),
(98,495,o),
(118,265,c),
(120,253,o),
(170,253,o),
(172,265,c)
);
}
);
width = 303;
},
{
layerId = m002;
shapes = (
{
ref = period;
},
{
closed = 1;
nodes = (
(202,495,o),
(230,770,o),
(230,790,cs),
(230,818,o),
(60,818,o),
(60,790,cs),
(60,770,o),
(88,495,o),
(108,265,c),
(110,253,o),
(180,253,o),
(182,265,c)
);
}
);
width = 303;
}
);
unicode = 33;
}
{
glyphname = asterisk;
layers = (
{
layerId = m01;
shapes = (
{
closed = 1;
nodes = (
(159,617,ls),
(169,615,o),
(181,651,o),
(172,655,cs),
(62,707,ls),
(39,717,o),
(16,645,o),
(41,640,cs)
);
},
{
closed = 1;
nodes = (
(201,565,ls),
(206,574,o),
(175,596,o),
(169,589,cs),
(86,501,ls),
(69,482,o),
(130,437,o),
(143,459,cs)
);
},
{
closed = 1;
nodes = (
(263,589,ls),
(257,596,o),
(226,574,o),
(231,565,cs),
(289,459,ls),
(302,437,o),
(363,482,o),
(346,501,cs)
);
},
{
closed = 1;
nodes = (
(260,655,ls),
(251,651,o),
(263,615,o),
(273,617,cs),
(391,640,ls),
(416,645,o),
(393,717,o),
(370,707,cs)
);
},
{
closed = 1;
nodes = (
(196,673,ls),
(197,663,o),
(235,663,o),
(236,673,cs),
(251,793,ls),
(254,818,o),
(178,818,o),
(181,793,cs)
);
}
);
width = 432;
},
{
background = {
shapes = (
{
closed = 1;
nodes = (
(433,-99,ls),
(439,-90,o),
(392,-56,o),
(385,-63,cs),
(296,-160,ls),
(279,-178,o),
(357,-235,o),
(369,-213,cs)
);
},
{
closed = 1;
nodes = (
(364,2,ls),
(373,0,o),
(391,55,o),
(382,59,cs),
(263,114,ls),
(240,124,o),
(211,33,o),
(235,28,cs)
);
},
{
closed = 1;
nodes = (
(551,-63,ls),
(544,-56,o),
(497,-90,o),
(503,-99,cs),
(567,-213,ls),
(579,-235,o),
(657,-178,o),
(640,-160,cs)
);
},
{
closed = 1;
nodes = (
(554,59,ls),
(545,55,o),
(563,0,o),
(572,2,cs),
(701,28,ls),
(725,33,o),
(696,124,o),
(673,114,cs)
);
},
{
closed = 1;
nodes = (
(438,100,ls),
(439,90,o),
(497,90,o),
(498,100,cs),
(513,230,ls),
(516,255,o),
(420,255,o),
(423,230,cs)
);
}
);
};
layerId = m002;
shapes = (
{
closed = 1;
nodes = (
(129,622,ls),
(139,621,o),
(156,674,o),
(147,679,cs),
(57,724,ls),
(34,736,o),
(4,643,o),
(29,639,cs)
);
},
{
closed = 1;
nodes = (
(189,555,ls),
(193,564,o),
(148,597,o),
(140,590,cs),
(69,518,ls),
(52,500,o),
(131,443,o),
(142,465,cs)
);
},
{
closed = 1;
nodes = (
(271,592,ls),
(264,599,o),
(218,566,o),
(223,556,cs),
(269,467,ls),
(281,444,o),
(360,502,o),
(342,520,cs)
);
},
{
closed = 1;
nodes = (
(262,681,ls),
(253,676,o),
(270,623,o),
(281,624,cs),
(380,641,ls),
(405,645,o),
(375,738,o),
(352,726,cs)
);
},
{
closed = 1;
nodes = (
(174,700,ls),
(176,690,o),
(232,690,o),
(234,700,cs),
(249,800,ls),
(253,825,o),
(155,825,o),
(159,800,cs)
);
}
);
width = 409;
}
);
unicode = 42;
}
{
glyphname = plus;
layers = (
{
hints = (
{
name = _segment.bulge;
origin = (0,0);
type = Segment;
},
{
name = _segment.bulge;
origin = (0,6);
type = Segment;
},
{
name = _segment.bulge;
origin = (0,3);
type = Segment;
},
{
name = _segment.bulge;
origin = (0,9);
type = Segment;
}
);
layerId = m01;
shapes = (
{
closed = 1;
nodes = (
(281,490,l),
(286,285,l),
(91,290,l),
(91,225,l),
(286,230,l),
(281,25,l),
(346,25,l),
(341,230,l),
(536,225,l),
(536,290,l),
(341,285,l),
(346,490,l)
);
}
);
userData = {
com.schriftgestaltung.Glyphs.layer.corners = (
{
name = _segment.bulge;
origin = _corner00;
type = Segment;
},
{
name = _segment.bulge;
origin = _corner01;
type = Segment;
},
{
name = _segment.bulge;
origin = _corner02;
type = Segment;
},
{
name = _segment.bulge;
origin = _corner03;
type = Segment;
}
);
};
width = 627;
},
{
hints = (
{
name = _segment.bulge;
origin = (0,0);
type = Segment;
},
{
name = _segment.bulge;
origin = (0,6);
type = Segment;
},
{
name = _segment.bulge;
origin = (0,3);
type = Segment;
},
{
name = _segment.bulge;
origin = (0,9);
type = Segment;
}
);
layerId = m002;
shapes = (
{
closed = 1;
nodes = (
(271,470,l),
(276,295,l),
(111,300,l),
(111,220,l),
(276,225,l),
(271,50,l),
(351,50,l),
(346,225,l),
(511,220,l),
(511,300,l),
(346,295,l),
(351,470,l)
);
}
);
userData = {
com.schriftgestaltung.Glyphs.layer.corners = (
{
name = _segment.bulge;
origin = _corner00;
type = Segment;
},
{
name = _segment.bulge;
origin = _corner01;
type = Segment;
},
{
name = _segment.bulge;
origin = _corner02;
type = Segment;
},
{
name = _segment.bulge;
origin = _corner03;
type = Segment;
}
);
};
width = 622;
}
);
unicode = 43;
}
{
glyphname = equal;
layers = (
{
hints = (
{
name = _segment.bulge;
origin = (0,0);
type = Segment;
},
{
name = _segment.bulge;
origin = (0,2);
type = Segment;
},
{
name = _segment.bulge;
origin = (1,0);
scale = (-1,-1);
type = Segment;
},
{
name = _segment.bulge;
origin = (1,2);
scale = (-1,-1);
type = Segment;
}
);
layerId = m01;
shapes = (
{
closed = 1;
nodes = (
(61,310,l),
(561,310,l),
(561,380,l),
(311,370,l),
(61,380,l)
);
},
{
closed = 1;
nodes = (
(561,210,l),
(61,210,l),
(61,140,l),
(311,150,l),
(561,140,l)
);
}
);
userData = {
com.schriftgestaltung.Glyphs.layer.corners = (
{
name = _segment.bulge;
origin = _corner00;
type = Segment;
},
{
name = _segment.bulge;
origin = _corner01;
type = Segment;
},
{
name = _segment.bulge;
origin = _corner02;
scale = "{-1, -1}";
type = Segment;
},
{
name = _segment.bulge;
origin = _corner03;
scale = "{-1, -1}";
type = Segment;
}
);
};
width = 622;
},
{
hints = (
{
name = _segment.bulge;
origin = (0,0);
type = Segment;
},
{
name = _segment.bulge;
origin = (0,2);
type = Segment;
},
{
name = _segment.bulge;
origin = (1,0);
scale = (-1,-1);
type = Segment;
},
{
name = _segment.bulge;
origin = (1,2);
scale = (-1,-1);
type = Segment;
}
);
layerId = m002;
shapes = (
{
closed = 1;
nodes = (
(61,310,l),
(561,310,l),
(561,395,l),
(311,385,l),
(61,395,l)
);
},
{
closed = 1;
nodes = (
(561,210,l),
(61,210,l),
(61,125,l),
(311,135,l),
(561,125,l)
);
}
);
userData = {
com.schriftgestaltung.Glyphs.layer.corners = (
{
name = _segment.bulge;
origin = _corner00;
type = Segment;
},
{
name = _segment.bulge;
origin = _corner01;
type = Segment;
},
{
name = _segment.bulge;
origin = _corner02;
scale = "{-1, -1}";
type = Segment;
},
{
name = _segment.bulge;
origin = _corner03;
scale = "{-1, -1}";
type = Segment;
}
);
};
width = 622;
}
);
unicode = 61;
}
{
glyphname = greater;
layers = (
{
layerId = m01;
shapes = (
{
closed = 1;
nodes = (
(41,61,o),
(65,22,o),
(78,30,cs),
(402,218,ls),
(433,236,o),
(439,245,o),
(439,250,cs),
(439,255,o),
(433,264,o),
(402,282,cs),
(78,470,ls),
(65,478,o),
(41,439,o),
(53,430,cs),
(271,269,ls),
(285,258,o),
(287,254,o),
(287,250,cs),
(287,246,o),
(285,242,o),
(271,231,cs),
(53,70,ls)
);
}
);
width = 489;
},
{
layerId = m002;
shapes = (
{
closed = 1;
nodes = (
(41,60,o),
(74,22,o),
(87,30,cs),
(411,218,ls),
(442,236,o),
(448,245,o),
(448,250,cs),
(448,255,o),
(442,264,o),
(411,282,cs),
(87,470,ls),
(74,478,o),
(41,440,o),
(52,430,cs),
(220,269,ls),
(233,256,o),
(236,254,o),
(236,250,cs),
(236,246,o),
(233,244,o),
(220,231,cs),
(52,70,ls)
);
}
);
width = 498;
}
);
unicode = 62;
}
{
glyphname = at;
layers = (
{
hints = (
{
name = _corner.mitre;
origin = (0,36);
type = Corner;
}
);
layerId = m01;
shapes = (
{
closed = 1;
nodes = (
(563,36,o),
(615,-7,o),
(686,-7,cs),
(835,-7,o),
(942,194,o),
(942,385,cs),
(942,558,o),
(834,724,o),
(607,724,cs),
(257,724,o),
(50,401,o),
(50,134,cs),
(50,-57,o),
(154,-219,o),
(380,-219,cs),
(479,-219,o),
(570,-178,o),
(632,-135,cs),
(644,-127,o),
(616,-95,o),
(602,-101,cs),
(297,-241,o),
(144,-58,o),
(144,164,cs),
(144,393,o),
(305,662,o),
(586,662,cs),
(772,662,o),
(863,510,o),
(863,358,cs),
(863,205,o),
(791,51,o),
(711,51,cs),
(681,51,o),
(650,69,o),
(664,134,cs),
(744,500,l),
(660,481,l),
(581,119,ls)
);
},
{
closed = 1;
nodes = (
(468,-10,o),
(548,33,o),
(630,140,c),
(593,150,l),
(532,95,o),
(503,69,o),
(465,69,cs),
(391,69,o),
(367,147,o),
(395,279,cs),
(420,400,o),
(471,443,o),
(547,443,cs),
(571,443,o),
(611,422,o),
(641,390,c),
(681,475,l),
(660,490,o),
(610,511,o),
(575,511,cs),
(462,511,o),
(329,393,o),
(295,232,cs),
(267,100,o),
(303,-10,o),
(407,-10,cs)
);
}
);
userData = {
com.schriftgestaltung.Glyphs.layer.corners = (
{
name = _corner.mitre;
origin = _corner00;
type = Corner;
}
);
};
width = 992;
},
{
hints = (
{
name = _corner.mitre;
origin = (0,36);
type = Corner;
}
);
layerId = m002;
shapes = (
{
closed = 1;
nodes = (
(514,36,o),
(619,-7,o),
(693,-7,cs),
(848,-7,o),
(980,194,o),
(980,385,cs),
(980,558,o),
(847,724,o),
(611,724,cs),
(296,724,o),
(30,391,o),
(30,124,cs),
(30,-67,o),
(138,-219,o),
(374,-219,cs),
(477,-219,o),
(572,-178,o),
(637,-135,cs),
(649,-127,o),
(620,-95,o),
(606,-101,cs),
(288,-241,o),
(158,-68,o),
(158,154,cs),
(158,383,o),
(326,642,o),
(569,642,cs),
(763,642,o),
(868,510,o),
(868,358,cs),
(868,205,o),
(803,51,o),
(719,51,cs),
(688,51,o),
(654,69,o),
(670,134,cs),
(754,480,l),
(616,461,l),
(534,119,ls)
);
},
{
closed = 1;
nodes = (
(466,-10,o),
(549,33,o),
(635,140,c),
(596,150,l),
(533,95,o),
(502,89,o),
(463,89,cs),
(386,89,o),
(398,147,o),
(430,279,cs),
(451,365,o),
(481,391,o),
(517,391,cs),
(555,391,o),
(600,361,o),
(646,340,c),
(688,455,l),
(666,470,o),
(614,491,o),
(577,491,cs),
(460,491,o),
(321,373,o),
(285,232,cs),
(252,102,o),
(294,-10,o),
(402,-10,cs)
);
}
);
userData = {
com.schriftgestaltung.Glyphs.layer.corners = (
{
name = _corner.mitre;
origin = _corner00;
type = Corner;
}
);
};
width = 1010;
}
);
unicode = 64;
}
{
glyphname = A;
layers = (
{
anchors = (
{
name = bottom;
pos = (384,0);
},
{
name = ogonek;
pos = (760,-1);
},
{
name = top;
pos = (384,760);
}
);
background = {
shapes = (
{
closed = 1;
nodes = (
(319,765,l),
(349,690,l),
(614,0,l,{
name = _corner04;
}),
(724,0,l,{
name = _corner05;
}),
(406,800,l,{
name = _corner06;
})
);
},
{
closed = 1;
nodes = (
(409,770,l),
(349,760,l),
(34,0,l,{
name = _corner07;
}),
(119,0,l,{
name = _corner08;
})
);
},
{
closed = 1;
nodes = (
(184,265,l),
(574,265,l),
(574,320,l),
(184,320,l)
);
}
);
};
hints = (
{
name = _corner.serif;
options = 1;
origin = (1,3);
scale = (0.9,-1.1);
type = Corner;
},
{
name = _corner.serif;
origin = (0,4);
scale = (0.7,1.1);
type = Corner;
},
{
name = _corner.serif;
options = 1;
origin = (0,5);
scale = (0.6,-1.1);
type = Corner;
},
{
name = _corner.serif;
origin = (1,2);
scale = (0.6,1.1);
type = Corner;
},
{
name = _corner.mitre;
origin = (0,6);
type = Corner;
},
{
name = _corner.mitre;
origin = (0,1);
type = Corner;
}
);
layerId = m01;
shapes = (
{
closed = 1;
nodes = (
(359,760,l),
(319,735,l),
(329,700,l),
(349,680,l),
(614,0,l),
(724,0,l),
(402,800,l)
);
},
{
closed = 1;
nodes = (
(409,760,l),
(349,750,l),
(34,0,l),
(119,0,l)
);
},
{
closed = 1;
nodes = (
(184,265,l),
(574,265,l),
(574,320,l),
(184,320,l)
);
}
);
userData = {
com.schriftgestaltung.Glyphs.layer.corners = (
{
name = _corner.serif;
options = 1;
origin = _corner00;
scale = "{0.9, -1.1}";
type = Corner;
},
{
name = _corner.serif;
origin = _corner01;
scale = "{0.7, 1.1}";
type = Corner;
},
{
name = _corner.serif;
options = 1;
origin = _corner02;
scale = "{0.6, -1.1}";
type = Corner;
},
{
name = _corner.serif;
origin = _corner03;
scale = "{0.6, 1.1}";
type = Corner;
},
{
name = _corner.mitre;
origin = _corner04;
type = Corner;
},
{
name = _corner.mitre;
origin = _corner05;
type = Corner;
}
);
};
width = 759;
},
{
anchors = (
{
name = bottom;
pos = (375,0);
},
{
name = ogonek;
pos = (675,10);
},
{
name = top;
pos = (375,760);
}
);
background = {
shapes = (
{
closed = 1;
nodes = (
(350,760,l),
(310,735,l,{
name = _corner09;
}),
(320,700,l),
(340,680,l),
(605,0,l,{
name = _corner10;
}),
(715,0,l,{
name = _corner11;
}),
(393,800,l,{
name = _corner12;
})
);
},
{
closed = 1;
nodes = (
(400,760,l),
(340,750,l),
(25,0,l,{
name = _corner13;
}),
(110,0,l,{
name = _corner14;
})
);
},
{
closed = 1;
nodes = (
(175,265,l),
(565,265,l),
(565,320,l),
(175,320,l)
);
}
);
};
hints = (
{
name = _corner.serif;
options = 1;
origin = (1,3);
scale = (0.9,-1.1);
type = Corner;
},
{
name = _corner.serif;
origin = (0,4);
scale = (0.7,1.1);
type = Corner;
},
{
name = _corner.serif;
options = 1;
origin = (0,5);
scale = (0.6,-1.1);
type = Corner;
},
{
name = _corner.serif;
origin = (1,2);
scale = (0.6,1.1);
type = Corner;
},
{
name = _corner.mitre;
origin = (0,6);
type = Corner;
},
{
name = _corner.mitre;
origin = (0,1);
type = Corner;
}
);
layerId = m002;
shapes = (
{
closed = 1;
nodes = (
(350,760,l),
(252,684,l),
(293,605,l),
(306,599,l),
(545,0,l),
(715,0,l),
(393,800,l)
);
},
{
closed = 1;
nodes = (
(400,700,l),
(330,740,l),
(25,0,l),
(120,0,l)
);
},
{
closed = 1;
nodes = (
(165,195,l),
(555,195,l),
(555,270,l),
(165,270,l)
);
}
);
userData = {
com.schriftgestaltung.Glyphs.layer.corners = (
{
name = _corner.serif;
options = 1;
origin = _corner00;
scale = "{0.9, -1.1}";
type = Corner;
},
{
name = _corner.serif;
origin = _corner01;
scale = "{0.7, 1.1}";
type = Corner;
},
{
name = _corner.serif;
options = 1;
origin = _corner02;
scale = "{0.6, -1.1}";
type = Corner;
},
{
name = _corner.serif;
origin = _corner03;
scale = "{0.6, 1.1}";
type = Corner;
},
{
name = _corner.mitre;
origin = _corner04;
type = Corner;
},
{
name = _corner.mitre;
origin = _corner05;
type = Corner;
}
);
};
width = 750;
}
);
unicode = 65;
}
{
glyphname = D;
layers = (
{
anchors = (
{
name = bottom;
pos = (444,0);
},
{
name = center;
pos = (444,380);
},
{
name = top;
pos = (314,760);
}
);
hints = (
{
name = _corner.serif;
origin = (0,7);
scale = (0.8,1.1);
type = Corner;
},
{
name = _corner.serif;
options = 1;
origin = (0,6);
scale = (0.8,-1.1);
type = Corner;
},
{
name = _corner.mitre;
origin = (1,0);
type = Corner;
},
{
name = _corner.mitre;
origin = (1,6);
type = Corner;
}
);
layerId = m01;
shapes = (
{
closed = 1;
nodes = (
(625,0,o),
(804,163,o),
(804,395,cs),
(804,613,o),
(633,760,o),
(408,760,cs),
(153,760,l),
(153,0,l),
(380,0,ls)
);
},
{
closed = 1;
nodes = (
(253,695,l),
(420,719,o),
(697,693,o),
(697,354,cs),
(697,85,o),
(469,31,o),
(253,65,c)
);
}
);
userData = {
com.schriftgestaltung.Glyphs.layer.corners = (
{
name = _corner.serif;
origin = _corner00;
scale = "{0.8, 1.1}";
type = Corner;
},
{
name = _corner.serif;
options = 1;
origin = _corner01;
scale = "{0.8, -1.1}";
type = Corner;
},
{
name = _corner.mitre;
origin = _corner02;
type = Corner;
},
{
name = _corner.mitre;
origin = _corner03;
type = Corner;
}
);
};
width = 884;
},
{
anchors = (
{
name = bottom;
pos = (425,0);
},
{
name = center;
pos = (425,380);
},
{
name = top;
pos = (425,760);
}
);
hints = (
{
name = _corner.serif;
origin = (0,7);
scale = (0.8,1.1);
type = Corner;
},
{
name = _corner.serif;
options = 1;
origin = (0,6);
scale = (0.8,-1.1);
type = Corner;
},
{
name = _corner.mitre;
origin = (1,0);
scale = (0.5,0.5);
type = Corner;
},
{
name = _corner.mitre;
origin = (1,6);
scale = (0.5,0.5);
type = Corner;
}
);
layerId = m002;
shapes = (
{
closed = 1;
nodes = (
(641,0,o),
(820,163,o),
(820,395,cs),
(820,613,o),
(649,760,o),
(394,760,cs),
(109,760,l),
(109,0,l),
(366,0,ls)
);
},
{
closed = 1;
nodes = (
(259,680,l),
(396,704,o),
(663,683,o),
(663,364,cs),
(663,85,o),
(405,51,o),
(259,85,c)
);
}
);
userData = {
com.schriftgestaltung.Glyphs.layer.corners = (
{
name = _corner.serif;
origin = _corner00;
scale = "{0.8, 1.1}";
type = Corner;
},
{
name = _corner.serif;
options = 1;
origin = _corner01;
scale = "{0.8, -1.1}";
type = Corner;
},
{
name = _corner.mitre;
origin = _corner02;
scale = "{0.5, 0.5}";
type = Corner;
},
{
name = _corner.mitre;
origin = _corner03;
scale = "{0.5, 0.5}";
type = Corner;
}
);
};
width = 850;
}
);
unicode = 68;
}
{
glyphname = F;
layers = (
{
anchors = (
{
name = bottom;
pos = (339,0);
},
{
name = top;
pos = (339,760);
}
);
hints = (
{
name = _corner.serif;
origin = (0,33);
scale = (0.8,1.1);
type = Corner;
},
{
name = _corner.serif;
options = 1;
origin = (0,0);
scale = (0.8,-1.1);
type = Corner;
},
{
name = _segment.bulge;
origin = (0,29);
type = Segment;
},
{
name = _corner.mitre;
origin = (0,30);
type = Corner;
},
{
name = _corner.serif;
origin = (0,32);
scale = (0.8,-1.1);
type = Corner;
}
);
layerId = m01;
shapes = (
{
closed = 1;
nodes = (
(253,0,l),
(253,355,l),
(397,355,l),
(462,355,o),
(459,349,o),
(494,286,c),
(498,279,o),
(523,283,o),
(523,292,c),
(523,328,o),
(522,362,o),
(522,383,cs),
(522,403,o),
(523,437,o),
(523,473,c),
(523,482,o),
(498,486,o),
(494,479,c),
(459,416,o),
(462,410,o),
(397,410,c),
(253,410,l),
(253,640,ls),
(253,699,o),
(271,704,o),
(398,704,cs),
(540,704,o),
(544,686,o),
(611,576,c),
(644,590,l),
(618,770,l),
(468,760,l),
(153,760,l),
(153,0,l)
);
}
);
userData = {
com.schriftgestaltung.Glyphs.layer.corners = (
{
name = _corner.serif;
origin = _corner00;
scale = "{0.8, 1.1}";
type = Corner;
},
{
name = _corner.serif;
options = 1;
origin = _corner01;
scale = "{0.8, -1.1}";
type = Corner;
},
{
name = _segment.bulge;
origin = _corner02;
type = Segment;
},
{
name = _corner.mitre;
origin = _corner03;
type = Corner;
},
{
name = _corner.serif;
origin = _corner04;
scale = "{0.8, -1.1}";
type = Corner;
}
);
};
width = 665;
},
{
anchors = (
{
name = bottom;
pos = (331,0);
},
{
name = top;
pos = (331,760);
}
);
background = {
shapes = (
{
closed = 1;
nodes = (
(130,760,l,{
name = _corner00;
}),
(130,0,l,{
name = _corner01;
}),
(230,0,l,{
name = _corner02;
}),
(230,640,ls),
(230,699,o),
(248,704,o),
(375,704,cs),
(517,704,o),
(521,686,o),
(588,576,c),
(621,590,l),
(595,770,l,{
name = _corner03;
}),
(445,760,l)
);
},
{
closed = 1;
nodes = (
(209,355,l),
(499,355,l,{
name = _corner04;
}),
(499,410,l,{
name = _corner05;
}),
(209,410,l)
);
}
);
};
hints = (
{
name = _segment.bulge;
origin = (0,29);
type = Segment;
},
{
name = _corner.mitre;
origin = (0,30);
type = Corner;
},
{
name = _corner.serif;
origin = (0,32);
scale = (0.8,-1.1);
type = Corner;
},
{
name = _corner.serif;
options = 1;
origin = (0,33);
scale = (0.8,1.1);
type = Corner;
},
{
name = _corner.serif;
origin = (0,0);
scale = (1,-1);
type = Corner;
}
);
layerId = m002;
shapes = (
{
closed = 1;
nodes = (
(280,0,l),
(280,345,l),
(364,345,ls),
(429,345,o),
(451,332,o),
(480,251,cs),
(485,238,o),
(531,251,o),
(530,263,cs),
(525,306,o),
(524,344,o),
(524,380,cs),
(524,416,o),
(525,444,o),
(530,487,cs),
(531,499,o),
(484,508,o),
(480,499,cs),
(451,428,o),
(429,415,o),
(364,415,cs),
(280,415,l),
(280,615,ls),
(280,674,o),
(278,684,o),
(405,684,cs),
(477,684,o),
(536,676,o),
(593,566,c),
(651,580,l),
(625,770,l),
(475,760,l),
(130,760,l),
(130,-1,l)
);
}
);
userData = {
com.schriftgestaltung.Glyphs.layer.corners = (
{
name = _segment.bulge;
origin = _corner00;
type = Segment;
},
{
name = _corner.mitre;
origin = _corner01;
type = Corner;
},
{
name = _corner.serif;
origin = _corner02;
scale = "{0.8, -1.1}";
type = Corner;
},
{
name = _corner.serif;
options = 1;
origin = _corner03;
scale = "{0.8, 1.1}";
type = Corner;
},
{
name = _corner.serif;
origin = _corner04;
scale = "{1, -1}";
type = Corner;
}
);
};
width = 661;
}
);
unicode = 70;
}
{
glyphname = K;
layers = (
{
anchors = (
{
name = bottom;
pos = (403,0);
},
{
name = top;
pos = (403,760);
}
);
hints = (
{
name = _corner.serif;
origin = (0,0);
scale = (0.8,1.1);
type = Corner;
},
{
name = _corner.serif;
options = 1;
origin = (0,1);
scale = (0.8,-1.1);
type = Corner;
},
{
name = _corner.serif;
origin = (0,2);
scale = (0.8,1.1);
type = Corner;
},
{
name = _corner.serif;
options = 1;
origin = (0,3);
scale = (0.8,-1.1);
type = Corner;
},
{
name = _corner.serif;
options = 1;
origin = (1,2);
scale = (0.8,-1.1);
type = Corner;
}
);
layerId = m01;
shapes = (
{
closed = 1;
nodes = (
(153,0,l),
(253,0,l),
(253,760,l),
(153,760,l)
);
},
{
closed = 1;
nodes = (
(290,369,l),
(574,0,l),
(714,0,l),
(364,435,l)
);
},
{
closed = 1;
nodes = (
(563,620,ls),
(645,700,o),
(666,701,o),
(738,729,c),
(746,734,o),
(742,761,o),
(731,761,c),
(667,761,o),
(651,760,o),
(631,760,c),
(601,760,l),
(581,760,o),
(565,761,o),
(501,761,c),
(491,761,o),
(486,734,o),
(495,729,c),
(558,695,o),
(535,680,o),
(445,587,cs),
(243,380,l),
(243,307,l)
);
}
);
userData = {
com.schriftgestaltung.Glyphs.layer.corners = (
{
name = _corner.serif;
origin = _corner00;
scale = "{0.8, 1.1}";
type = Corner;
},
{
name = _corner.serif;
options = 1;
origin = _corner01;
scale = "{0.8, -1.1}";
type = Corner;
},
{
name = _corner.serif;
origin = _corner02;
scale = "{0.8, 1.1}";
type = Corner;
},
{
name = _corner.serif;
options = 1;
origin = _corner03;
scale = "{0.8, -1.1}";
type = Corner;
},
{
name = _corner.serif;
options = 1;
origin = _corner04;
scale = "{0.8, -1.1}";
type = Corner;
}
);
};
width = 782;
},
{
anchors = (
{
name = bottom;
pos = (377,0);
},
{
name = top;
pos = (377,760);
}
);
background = {
shapes = (
{
closed = 1;
nodes = (
(109,0,l,{
name = _corner00;
}),
(209,0,l,{
name = _corner01;
}),
(209,760,l,{
name = _corner02;
}),
(109,760,l,{
name = _corner03;
})
);
},
{
closed = 1;
nodes = (
(246,369,l),
(530,0,l),
(670,0,l,{
name = _corner04;
}),
(320,435,l)
);
},
{
closed = 1;
nodes = (
(519,620,ls),
(601,700,o),
(622,701,o),
(694,729,c),
(702,734,o),
(698,761,o),
(687,761,c),
(623,761,o),
(607,760,o),
(587,760,c),
(557,760,l),
(537,760,o),
(521,761,o),
(457,761,c),
(447,761,o),
(442,734,o),
(451,729,c),
(514,695,o),
(491,680,o),
(401,587,cs),
(199,380,l),
(199,307,l)
);
}
);
};
hints = (
{
name = _corner.serif;
origin = (0,0);
scale = (0.8,1.1);
type = Corner;
},
{
name = _corner.serif;
options = 1;
origin = (0,1);
scale = (0.8,-1.1);
type = Corner;
},
{
name = _corner.serif;
origin = (0,2);
scale = (0.8,1.1);
type = Corner;
},
{
name = _corner.serif;
options = 1;
origin = (0,3);
scale = (0.8,-1.1);
type = Corner;
},
{
name = _corner.serif;
options = 1;
origin = (1,2);
scale = (0.8,-1.1);
type = Corner;
}
);
layerId = m002;
shapes = (
{
closed = 1;
nodes = (
(109,0,l),
(259,0,l),
(259,760,l),
(109,760,l)
);
},
{
closed = 1;
nodes = (
(246,369,l),
(530,0,l),
(730,0,l),
(350,455,l)
);
},
{
closed = 1;
nodes = (
(569,620,ls),
(617,665,o),
(652,681,o),
(724,709,cs),
(733,712,o),
(728,761,o),
(717,761,c),
(653,761,o),
(637,760,o),
(617,760,c),
(567,760,l),
(547,760,o),
(531,761,o),
(467,761,c),
(457,761,o),
(452,715,o),
(461,709,cs),
(506,679,o),
(492,670,o),
(411,587,cs),
(209,380,l),
(239,307,l)
);
}
);
userData = {
com.schriftgestaltung.Glyphs.layer.corners = (
{
name = _corner.serif;
origin = _corner00;
scale = "{0.8, 1.1}";
type = Corner;
},
{
name = _corner.serif;
options = 1;
origin = _corner01;
scale = "{0.8, -1.1}";
type = Corner;
},
{
name = _corner.serif;
origin = _corner02;
scale = "{0.8, 1.1}";
type = Corner;
},
{
name = _corner.serif;
options = 1;
origin = _corner03;
scale = "{0.8, -1.1}";
type = Corner;
},
{
name = _corner.serif;
options = 1;
origin = _corner04;
scale = "{0.8, -1.1}";
type = Corner;
}
);
};
width = 753;
}
);
unicode = 75;
}
{
glyphname = L;
layers = (
{
anchors = (
{
name = bottom;
pos = (344,0);
},
{
name = center;
pos = (344,380);
},
{
name = top;
pos = (224,730);
},
{
name = topright;
pos = (375,760);
}
);
hints = (
{
name = _corner.mitre;
options = 1;
origin = (0,0);
scale = (1,-1);
type = Corner;
},
{
name = _segment.bulge;
origin = (0,2);
type = Segment;
},
{
name = _corner.serif;
origin = (0,10);
scale = (0.8,-1.1);
type = Corner;
},
{
name = _corner.serif;
options = 1;
origin = (0,11);
scale = (0.8,1.1);
type = Corner;
},
{
name = _corner.serif;
origin = (0,9);
scale = (0.9,1.1);
type = Corner;
}
);
layerId = m01;
shapes = (
{
closed = 1;
nodes = (
(598,-1,l),
(634,179,l),
(601,193,l),
(534,83,o),
(520,55,o),
(398,55,cs),
(271,55,o),
(253,60,o),
(253,119,cs),
(253,760,l),
(153,760,l),
(153,-1,l)
);
}
);
userData = {
com.schriftgestaltung.Glyphs.layer.corners = (
{
name = _corner.mitre;
options = 1;
origin = _corner00;
scale = "{1, -1}";
type = Corner;
},
{
name = _segment.bulge;
origin = _corner01;
type = Segment;
},
{
name = _corner.serif;
origin = _corner02;
scale = "{0.8, -1.1}";
type = Corner;
},
{
name = _corner.serif;
options = 1;
origin = _corner03;
scale = "{0.8, 1.1}";
type = Corner;
},
{
name = _corner.serif;
origin = _corner04;
scale = "{0.9, 1.1}";
type = Corner;
}
);
};
width = 705;
},
{
anchors = (
{
name = bottom;
pos = (356,0);
},
{
name = center;
pos = (356,380);
},
{
name = top;
pos = (356,760);
},
{
name = topright;
pos = (691,760);
}
);
hints = (
{
name = _corner.mitre;
options = 1;
origin = (0,0);
scale = (1,-1);
type = Corner;
},
{
name = _segment.bulge;
origin = (0,2);
type = Segment;
},
{
name = _corner.serif;
origin = (0,10);
scale = (0.8,-1.1);
type = Corner;
},
{
name = _corner.serif;
options = 1;
origin = (0,11);
scale = (0.8,1.1);
type = Corner;
},
{
name = _corner.serif;
origin = (0,9);
scale = (0.9,1.1);
type = Corner;
}
);
layerId = m002;
shapes = (
{
closed = 1;
nodes = (
(645,-1,l),
(681,194,l),
(618,208,l),
(561,98,o),
(477,70,o),
(395,70,cs),
(298,70,o),
(280,75,o),
(280,134,cs),
(280,760,l),
(130,760,l),
(130,-1,l)
);
}
);
userData = {
com.schriftgestaltung.Glyphs.layer.corners = (
{
name = _corner.mitre;
options = 1;
origin = _corner00;
scale = "{1, -1}";
type = Corner;
},
{
name = _segment.bulge;
origin = _corner01;
type = Segment;
},
{
name = _corner.serif;
origin = _corner02;
scale = "{0.8, -1.1}";
type = Corner;
},
{
name = _corner.serif;
options = 1;
origin = _corner03;
scale = "{0.8, 1.1}";
type = Corner;
},
{
name = _corner.serif;
origin = _corner04;
scale = "{0.9, 1.1}";
type = Corner;
}
);
};
width = 711;
}
);
unicode = 76;
}
{
glyphname = M;
layers = (
{
anchors = (
{
name = bottom;
pos = (550,0);
},
{
name = top;
pos = (550,760);
}
);
hints = (
{
name = _corner.serif;
origin = (1,1);
scale = (0.8,-1.1);
type = Corner;
},
{
name = _corner.serif;
options = 1;
origin = (1,3);
scale = (0.8,-1.1);
type = Corner;
},
{
name = _corner.serif;
origin = (2,2);
scale = (0.8,-1.1);
type = Corner;
},
{
name = _corner.serif;
origin = (1,2);
scale = (0.8,1.1);
type = Corner;
},
{
name = _corner.serif;
origin = (2,3);
scale = (0.8,1.1);
type = Corner;
},
{
name = _corner.serif;
origin = (2,1);
scale = (0.8,1.1);
type = Corner;
}
);
layerId = m01;
shapes = (
{
closed = 1;
nodes = (
(528,-4,o),
(574,6,o),
(580,20,cs),
(906,760,l),
(836,760,l),
(568,150,l),
(276,760,l),
(160,760,l),
(521,10,ls)
);
},
{
closed = 1;
nodes = (
(213,760,l),
(153,760,l),
(153,0,l),
(228,0,l)
);
},
{
closed = 1;
nodes = (
(856,760,l),
(846,0,l),
(946,0,l),
(946,760,l)
);
}
);
userData = {
com.schriftgestaltung.Glyphs.layer.corners = (
{
name = _corner.serif;
origin = _corner00;
scale = "{0.8, -1.1}";
type = Corner;
},
{
name = _corner.serif;
options = 1;
origin = _corner01;
scale = "{0.8, -1.1}";
type = Corner;
},
{
name = _corner.serif;
origin = _corner02;
scale = "{0.8, -1.1}";
type = Corner;
},
{
name = _corner.serif;
origin = _corner03;
scale = "{0.8, 1.1}";
type = Corner;
},
{
name = _corner.serif;
origin = _corner04;
scale = "{0.8, 1.1}";
type = Corner;
},
{
name = _corner.serif;
origin = _corner05;
scale = "{0.8, 1.1}";
type = Corner;
}
);
};
width = 1099;
},
{
anchors = (
{
name = bottom;
pos = (507,0);
},
{
name = top;
pos = (507,760);
}
);
background = {
shapes = (
{
closed = 1;
nodes = (
(485,-4,o),
(531,6,o),
(537,20,cs),
(863,760,l),
(793,760,l),
(525,150,l),
(233,760,l),
(117,760,l),
(478,10,ls)
);
},
{
closed = 1;
nodes = (
(170,760,l),
(110,760,l,{
name = _corner00;
}),
(110,0,l,{
name = _corner01;
}),
(185,0,l,{
name = _corner02;
})
);
},
{
closed = 1;
nodes = (
(813,760,l),
(803,0,l,{
name = _corner03;
}),
(903,0,l,{
name = _corner04;
}),
(903,760,l,{
name = _corner05;
})
);
}
);
};
hints = (
{
name = _corner.serif;
origin = (1,1);
scale = (0.8,-1.1);
type = Corner;
},
{
name = _corner.serif;
options = 1;
origin = (1,3);
scale = (0.8,-1.1);
type = Corner;
},
{
name = _corner.serif;
origin = (2,2);
scale = (0.8,-1.1);
type = Corner;
},
{
name = _corner.serif;
origin = (1,2);
scale = (0.8,1.1);
type = Corner;
},
{
name = _corner.serif;
origin = (2,3);
scale = (0.8,1.1);
type = Corner;
},
{
name = _corner.serif;
origin = (2,1);
scale = (0.8,1.1);
type = Corner;
}
);
layerId = m002;
shapes = (
{
closed = 1;
nodes = (
(485,-4,o),
(536,-4,o),
(542,10,cs),
(878,760,l),
(783,760,l),
(540,220,l),
(283,760,l),
(117,760,l),
(478,10,ls)
);
},
{
closed = 1;
nodes = (
(200,760,l),
(120,760,l),
(120,0,l),
(215,0,l)
);
},
{
closed = 1;
nodes = (
(803,760,l),
(793,0,l),
(933,0,l),
(933,760,l)
);
}
);
userData = {
com.schriftgestaltung.Glyphs.layer.corners = (
{
name = _corner.serif;
origin = _corner00;
scale = "{0.8, -1.1}";
type = Corner;
},
{
name = _corner.serif;
options = 1;
origin = _corner01;
scale = "{0.8, -1.1}";
type = Corner;
},
{
name = _corner.serif;
origin = _corner02;
scale = "{0.8, -1.1}";
type = Corner;
},
{
name = _corner.serif;
origin = _corner03;
scale = "{0.8, 1.1}";
type = Corner;
},
{
name = _corner.serif;
origin = _corner04;
scale = "{0.8, 1.1}";
type = Corner;
},
{
name = _corner.serif;
origin = _corner05;
scale = "{0.8, 1.1}";
type = Corner;
}
);
};
width = 1013;
}
);
unicode = 77;
}
{
glyphname = N;
layers = (
{
anchors = (
{
name = bottom;
pos = (447,0);
},
{
name = top;
pos = (447,760);
}
);
hints = (
{
name = _corner.serif;
origin = (0,9);
scale = (0.8,1.1);
type = Corner;
},
{
name = _corner.serif;
options = 1;
origin = (0,10);
scale = (0.8,-1.1);
type = Corner;
},
{
name = _corner.serif;
options = 1;
origin = (0,2);
scale = (0.8,-1.1);
type = Corner;
},
{
name = _corner.serif;
origin = (0,3);
scale = (0.8,1.1);
type = Corner;
},
{
name = _corner.serif;
options = 1;
origin = (0,4);
scale = (0.8,-1.1);
type = Corner;
},
{
name = _segment.bulge;
origin = (0,7);
type = Segment;
}
);
layerId = m01;
shapes = (
{
closed = 1;
nodes = (
(692,170,l),
(213,760,l),
(153,760,l),
(153,0,l),
(223,0,l),
(213,600,l),
(697,-10,l),
(757,0,l),
(752,160,l),
(752,760,l),
(682,760,l)
);
}
);
userData = {
com.schriftgestaltung.Glyphs.layer.corners = (
{
name = _corner.serif;
origin = _corner00;
scale = "{0.8, 1.1}";
type = Corner;
},
{
name = _corner.serif;
options = 1;
origin = _corner01;
scale = "{0.8, -1.1}";
type = Corner;
},
{
name = _corner.serif;
options = 1;
origin = _corner02;
scale = "{0.8, -1.1}";
type = Corner;
},
{
name = _corner.serif;
origin = _corner03;
scale = "{0.8, 1.1}";
type = Corner;
},
{
name = _corner.serif;
options = 1;
origin = _corner04;
scale = "{0.8, -1.1}";
type = Corner;
},
{
name = _segment.bulge;
origin = _corner05;
type = Segment;
}
);
};
width = 905;
},
{
anchors = (
{
name = bottom;
pos = (404,0);
},
{
name = top;
pos = (404,760);
}
);
hints = (
{
name = _corner.serif;
origin = (0,9);
scale = (0.8,1.1);
type = Corner;
},
{
name = _corner.serif;
options = 1;
origin = (0,10);
scale = (0.8,-1.1);
type = Corner;
},
{
name = _corner.serif;
options = 1;
origin = (0,2);
scale = (0.8,-1.1);
type = Corner;
},
{
name = _corner.serif;
origin = (0,3);
scale = (0.8,1.1);
type = Corner;
},
{
name = _corner.serif;
options = 1;
origin = (0,4);
scale = (0.9,-1.1);
type = Corner;
},
{
name = _segment.bulge;
origin = (0,7);
type = Segment;
}
);
layerId = m002;
shapes = (
{
closed = 1;
nodes = (
(619,250,l),
(190,760,l),
(110,760,l),
(110,0,l),
(210,0,l),
(195,510,l),
(634,0,l),
(714,10,l),
(709,160,l),
(709,760,l),
(609,760,l)
);
}
);
userData = {
com.schriftgestaltung.Glyphs.layer.corners = (
{
name = _corner.serif;
origin = _corner00;
scale = "{0.8, 1.1}";
type = Corner;
},
{
name = _corner.serif;
options = 1;
origin = _corner01;
scale = "{0.8, -1.1}";
type = Corner;
},
{
name = _corner.serif;
options = 1;
origin = _corner02;
scale = "{0.8, -1.1}";
type = Corner;
},
{
name = _corner.serif;
origin = _corner03;
scale = "{0.8, 1.1}";
type = Corner;
},
{
name = _corner.serif;
options = 1;
origin = _corner04;
scale = "{0.9, -1.1}";
type = Corner;
},
{
name = _segment.bulge;
origin = _corner05;
type = Segment;
}
);
};
width = 808;
}
);
unicode = 78;
}
{
glyphname = O;
layers = (
{
anchors = (
{
name = bottom;
pos = (450,0);
},
{
name = center;
pos = (450,380);
},
{
name = ogonek;
pos = (802,10);
},
{
name = top;
pos = (450,750);
},
{
name = topleft;
pos = (30,760);
},
{
name = topright;
pos = (870,760);
}
);
layerId = m01;
shapes = (
{
closed = 1;
nodes = (
(651,-10,o),
(830,163,o),
(830,395,cs),
(830,613,o),
(669,770,o),
(464,770,cs),
(249,770,o),
(70,597,o),
(70,365,cs),
(70,147,o),
(231,-10,o),
(436,-10,cs)
);
},
{
closed = 1;
nodes = (
(325,50,o),
(178,169,o),
(178,406,cs),
(178,609,o),
(304,710,o),
(434,710,cs),
(576,710,o),
(723,591,o),
(723,354,cs),
(723,151,o),
(597,50,o),
(467,50,cs)
);
}
);
width = 900;
},
{
anchors = (
{
name = bottom;
pos = (440,0);
},
{
name = center;
pos = (440,380);
},
{
name = ogonek;
pos = (792,10);
},
{
name = top;
pos = (440,760);
},
{
name = topleft;
pos = (20,760);
},
{
name = topright;
pos = (860,760);
}
);
layerId = m002;
shapes = (
{
closed = 1;
nodes = (
(641,-10,o),
(830,163,o),
(830,385,cs),
(830,613,o),
(659,770,o),
(454,770,cs),
(239,770,o),
(50,597,o),
(50,375,cs),
(50,147,o),
(221,-10,o),
(426,-10,cs)
);
},
{
closed = 1;
nodes = (
(291,67,o),
(214,253,o),
(214,408,cs),
(214,601,o),
(318,693,o),
(427,693,cs),
(589,693,o),
(666,507,o),
(666,352,cs),
(666,159,o),
(562,67,o),
(453,67,cs)
);
}
);
width = 880;
}
);
unicode = 79;
}
{
glyphname = P;
layers = (
{
anchors = (
{
name = bottom;
pos = (359,0);
},
{
name = top;
pos = (359,760);
}
);
hints = (
{
name = _corner.serif;
origin = (0,9);
scale = (0.8,1.1);
type = Corner;
},
{
name = _corner.serif;
options = 1;
origin = (0,0);
scale = (0.8,-1.1);
type = Corner;
},
{
name = _corner.serif;
options = 1;
origin = (0,8);
scale = (0.8,-1.1);
type = Corner;
}
);
layerId = m01;
shapes = (
{
closed = 1;
nodes = (
(253,0,l),
(253,300,l),
(451,287,o),
(634,347,o),
(634,539,cs),
(634,650,o),
(562,760,o),
(360,760,cs),
(153,760,l),
(153,0,l)
);
},
{
closed = 1;
nodes = (
(253,695,l),
(392,720,o),
(529,673,o),
(529,520,cs),
(529,372,o),
(383,335,o),
(253,370,c)
);
}
);
userData = {
com.schriftgestaltung.Glyphs.layer.corners = (
{
name = _corner.serif;
origin = _corner00;
scale = "{0.8, 1.1}";
type = Corner;
},
{
name = _corner.serif;
options = 1;
origin = _corner01;
scale = "{0.8, -1.1}";
type = Corner;
},
{
name = _corner.serif;
options = 1;
origin = _corner02;
scale = "{0.8, -1.1}";
type = Corner;
}
);
};
width = 674;
},
{
anchors = (
{
name = bottom;
pos = (335,0);
},
{
name = top;
pos = (335,760);
}
);
hints = (
{
name = _corner.serif;
origin = (0,9);
scale = (0.8,1.1);
type = Corner;
},
{
name = _corner.serif;
options = 1;
origin = (0,0);
scale = (0.8,-1.1);
type = Corner;
},
{
name = _corner.serif;
options = 1;
origin = (0,8);
scale = (0.8,-1.1);
type = Corner;
}
);
layerId = m002;
shapes = (
{
closed = 1;
nodes = (
(259,0,l),
(259,290,l),
(447,267,o),
(640,347,o),
(640,529,cs),
(640,650,o),
(568,760,o),
(366,760,cs),
(109,760,l),
(109,0,l)
);
},
{
closed = 1;
nodes = (
(259,685,l),
(368,700,o),
(485,673,o),
(485,520,cs),
(485,372,o),
(359,345,o),
(259,370,c)
);
}
);
userData = {
com.schriftgestaltung.Glyphs.layer.corners = (
{
name = _corner.serif;
origin = _corner00;
scale = "{0.8, 1.1}";
type = Corner;
},
{
name = _corner.serif;
options = 1;
origin = _corner01;
scale = "{0.8, -1.1}";
type = Corner;
},
{
name = _corner.serif;
options = 1;
origin = _corner02;
scale = "{0.8, -1.1}";
type = Corner;
}
);
};
width = 670;
}
);
unicode = 80;
}
{
glyphname = Q;
layers = (
{
anchors = (
{
name = bottom;
pos = (450,0);
},
{
name = top;
pos = (450,760);
}
);
hints = (
{
name = _segment.bulge;
origin = (2,3);
type = Segment;
}
);
layerId = m01;
shapes = (
{
closed = 1;
nodes = (
(651,-10,o),
(830,163,o),
(830,395,cs),
(830,613,o),
(669,770,o),
(464,770,cs),
(249,770,o),
(70,597,o),
(70,365,cs),
(70,147,o),
(231,-10,o),
(436,-10,cs)
);
},
{
closed = 1;
nodes = (
(325,50,o),
(178,169,o),
(178,406,cs),
(178,609,o),
(304,710,o),
(434,710,cs),
(576,710,o),
(723,591,o),
(723,354,cs),
(723,151,o),
(597,50,o),
(467,50,cs)
);
},
{
closed = 1;
nodes = (
(690,-149,o),
(704,-211,o),
(905,-108,c),
(885,-69,l),
(779,-111,o),
(768,-100,o),
(496,92,c),
(390,44,l)
);
}
);
userData = {
com.schriftgestaltung.Glyphs.layer.corners = (
{
name = _segment.bulge;
origin = _corner00;
type = Segment;
}
);
};
width = 900;
},
{
anchors = (
{
name = bottom;
pos = (440,0);
},
{
name = top;
pos = (440,760);
}
);
background = {
shapes = (
{
closed = 1;
nodes = (
(641,-10,o),
(820,163,o),
(820,395,cs),
(820,613,o),
(659,770,o),
(454,770,cs),
(239,770,o),
(60,597,o),
(60,365,cs),
(60,147,o),
(221,-10,o),
(426,-10,cs)
);
},
{
closed = 1;
nodes = (
(315,50,o),
(168,169,o),
(168,406,cs),
(168,609,o),
(294,710,o),
(424,710,cs),
(566,710,o),
(713,591,o),
(713,354,cs),
(713,151,o),
(587,50,o),
(457,50,cs)
);
},
{
closed = 1;
nodes = (
(680,-149,o),
(694,-211,o),
(895,-108,c),
(875,-69,l,{
name = _corner00;
}),
(769,-111,o),
(758,-100,o),
(486,92,c),
(380,44,l)
);
}
);
};
hints = (
{
name = _segment.bulge;
origin = (2,3);
type = Segment;
}
);
layerId = m002;
shapes = (
{
closed = 1;
nodes = (
(641,-10,o),
(830,163,o),
(830,385,cs),
(830,613,o),
(659,770,o),
(454,770,cs),
(239,770,o),
(50,597,o),
(50,375,cs),
(50,147,o),
(221,-10,o),
(426,-10,cs)
);
},
{
closed = 1;
nodes = (
(291,77,o),
(214,253,o),
(214,408,cs),
(214,601,o),
(318,683,o),
(427,683,cs),
(589,683,o),
(666,507,o),
(666,352,cs),
(666,159,o),
(562,77,o),
(453,77,cs)
);
},
{
closed = 1;
nodes = (
(680,-149,o),
(714,-231,o),
(945,-78,c),
(910,-19,l),
(789,-81,o),
(748,-50,o),
(470,159,c),
(333,77,l)
);
}
);
userData = {
com.schriftgestaltung.Glyphs.layer.corners = (
{
name = _segment.bulge;
origin = _corner00;
type = Segment;
}
);
};
width = 880;
}
);
unicode = 81;
}
{
glyphname = T;
layers = (
{
anchors = (
{
name = bottom;
pos = (392,0);
},
{
name = center;
pos = (392,380);
},
{
name = top;
pos = (392,760);
}
);
hints = (
{
name = _corner.serif;
origin = (0,8);
scale = (-0.8,-1.1);
type = Corner;
},
{
name = _corner.serif;
options = 1;
origin = (0,9);
scale = (0.8,-1.1);
type = Corner;
},
{
name = _segment.bulge;
origin = (0,17);
type = Segment;
},
{
name = _segment.bulge;
origin = (0,1);
type = Segment;
},
{
name = _corner.mitre;
origin = (0,18);
type = Corner;
},
{
name = _corner.mitre;
origin = (0,21);
type = Corner;
}
);
layerId = m01;
shapes = (
{
closed = 1;
nodes = (
(31,590,l),
(64,576,l),
(131,686,o),
(135,704,o),
(237,704,cs),
(324,704,o),
(342,699,o),
(342,640,cs),
(342,0,l),
(442,0,l),
(442,640,ls),
(442,699,o),
(460,704,o),
(547,704,cs),
(649,704,o),
(653,686,o),
(720,576,c),
(753,590,l),
(727,770,l),
(577,760,l),
(207,760,l),
(57,770,l)
);
}
);
userData = {
com.schriftgestaltung.Glyphs.layer.corners = (
{
name = _corner.serif;
origin = _corner00;
scale = "{-0.8, -1.1}";
type = Corner;
},
{
name = _corner.serif;
options = 1;
origin = _corner01;
scale = "{0.8, -1.1}";
type = Corner;
},
{
name = _segment.bulge;
origin = _corner02;
type = Segment;
},
{
name = _segment.bulge;
origin = _corner03;
type = Segment;
},
{
name = _corner.mitre;
origin = _corner04;
type = Corner;
},
{
name = _corner.mitre;
origin = _corner05;
type = Corner;
}
);
};
width = 784;
},
{
anchors = (
{
name = bottom;
pos = (396,0);
},
{
name = center;
pos = (396,380);
},
{
name = top;
pos = (396,760);
}
);
hints = (
{
name = _corner.serif;
origin = (0,8);
scale = (-0.8,-1.1);
type = Corner;
},
{
name = _corner.serif;
options = 1;
origin = (0,9);
scale = (0.8,-1.1);
type = Corner;
},
{
name = _segment.bulge;
origin = (0,17);
type = Segment;
},
{
name = _segment.bulge;
origin = (0,1);
type = Segment;
},
{
name = _corner.mitre;
origin = (0,18);
type = Corner;
},
{
name = _corner.mitre;
origin = (0,21);
type = Corner;
}
);
layerId = m002;
shapes = (
{
closed = 1;
nodes = (
(20,570,l),
(73,556,l),
(140,666,o),
(144,684,o),
(226,684,cs),
(313,684,o),
(321,679,o),
(321,620,cs),
(321,0,l),
(471,0,l),
(471,620,ls),
(471,679,o),
(479,684,o),
(566,684,cs),
(648,684,o),
(652,666,o),
(719,556,c),
(772,570,l),
(746,770,l),
(596,760,l),
(196,760,l),
(46,770,l)
);
}
);
userData = {
com.schriftgestaltung.Glyphs.layer.corners = (
{
name = _corner.serif;
origin = _corner00;
scale = "{-0.8, -1.1}";
type = Corner;
},
{
name = _corner.serif;
options = 1;
origin = _corner01;
scale = "{0.8, -1.1}";
type = Corner;
},
{
name = _segment.bulge;
origin = _corner02;
type = Segment;
},
{
name = _segment.bulge;
origin = _corner03;
type = Segment;
},
{
name = _corner.mitre;
origin = _corner04;
type = Corner;
},
{
name = _corner.mitre;
origin = _corner05;
type = Corner;
}
);
};
width = 792;
}
);
unicode = 84;
}
{
glyphname = V;
layers = (
{
anchors = (
{
name = bottom;
pos = (375,0);
},
{
name = top;
pos = (375,760);
}
);
background = {
shapes = (
{
closed = 1;
nodes = (
(520,760,l,{
name = _corner00;
}),
(285,114,l),
(35,760,l,{
name = _corner01;
}),
(-75,760,l,{
name = _corner02;
}),
(227,-10,l),
(297,0,l),
(605,760,l,{
name = _corner03;
})
);
}
);
};
hints = (
{
name = _corner.serif;
options = 1;
origin = (0,2);
scale = (0.9,-1.1);
type = Corner;
},
{
name = _corner.serif;
origin = (0,4);
scale = (0.7,1.1);
type = Corner;
},
{
name = _corner.serif;
options = 1;
origin = (0,5);
scale = (0.6,-1.1);
type = Corner;
},
{
name = _corner.serif;
origin = (0,1);
scale = (0.6,1.1);
type = Corner;
}
);
layerId = m01;
shapes = (
{
closed = 1;
nodes = (
(405,-10,l),
(725,760,l),
(640,760,l),
(395,109,l),
(145,760,l),
(35,760,l),
(340,-10,l)
);
}
);
userData = {
com.schriftgestaltung.Glyphs.layer.corners = (
{
name = _corner.serif;
options = 1;
origin = _corner00;
scale = "{0.9, -1.1}";
type = Corner;
},
{
name = _corner.serif;
origin = _corner01;
scale = "{0.7, 1.1}";
type = Corner;
},
{
name = _corner.serif;
options = 1;
origin = _corner02;
scale = "{0.6, -1.1}";
type = Corner;
},
{
name = _corner.serif;
origin = _corner03;
scale = "{0.6, 1.1}";
type = Corner;
}
);
};
width = 759;
},
{
anchors = (
{
name = bottom;
pos = (386,0);
},
{
name = top;
pos = (386,760);
}
);
background = {
shapes = (
{
closed = 1;
nodes = (
(626,760,l,{
name = _corner04;
}),
(381,109,l),
(131,760,l,{
name = _corner05;
}),
(21,760,l,{
name = _corner06;
}),
(326,-10,l),
(391,-10,l),
(711,760,l,{
name = _corner07;
})
);
}
);
};
hints = (
{
name = _corner.serif;
origin = (0,4);
scale = (0.7,1.1);
type = Corner;
},
{
name = _corner.serif;
options = 1;
origin = (0,5);
scale = (0.6,-1.1);
type = Corner;
},
{
name = _corner.serif;
origin = (0,1);
scale = (0.6,1.1);
type = Corner;
},
{
name = _corner.serif;
options = 1;
origin = (0,2);
scale = (0.9,-1.1);
type = Corner;
}
);
layerId = m002;
shapes = (
{
closed = 1;
nodes = (
(431,-1,l),
(751,760,l),
(656,760,l),
(431,195,l),
(191,760,l),
(21,760,l),
(351,0,l)
);
}
);
userData = {
com.schriftgestaltung.Glyphs.layer.corners = (
{
name = _corner.serif;
origin = _corner00;
scale = "{0.7, 1.1}";
type = Corner;
},
{
name = _corner.serif;
options = 1;
origin = _corner01;
scale = "{0.6, -1.1}";
type = Corner;
},
{
name = _corner.serif;
origin = _corner02;
scale = "{0.6, 1.1}";
type = Corner;
},
{
name = _corner.serif;
options = 1;
origin = _corner03;
scale = "{0.9, -1.1}";
type = Corner;
}
);
};
width = 771;
}
);
unicode = 86;
}
{
glyphname = X;
layers = (
{
anchors = (
{
name = bottom;
pos = (473,0);
},
{
name = top;
pos = (473,760);
}
);
layerId = m01;
shapes = (
{
closed = 1;
nodes = (
(690,0,o),
(775,0,o),
(855,-1,cs),
(866,-1,o),
(870,26,o),
(862,31,c),
(790,59,o),
(790,49,o),
(703,165,cs),
(387,587,ls),
(310,690,o),
(302,708,o),
(357,729,cs),
(367,733,o),
(361,761,o),
(351,761,cs),
(271,760,o),
(186,760,o),
(106,761,cs),
(95,761,o),
(91,734,o),
(99,729,c),
(171,701,o),
(176,711,o),
(263,595,cs),
(579,173,ls),
(655,71,o),
(659,52,o),
(604,31,cs),
(594,27,o),
(600,-1,o),
(610,-1,cs)
);
},
{
closed = 1;
nodes = (
(151,0,o),
(236,0,o),
(316,-1,cs),
(326,-1,o),
(331,26,o),
(322,31,cs),
(275,57,o),
(282,69,o),
(352,173,cs),
(485,369,l),
(433,391,l),
(253,165,ls),
(163,51,o),
(136,59,o),
(84,31,c),
(76,26,o),
(80,-1,o),
(91,-1,cs)
);
},
{
closed = 1;
nodes = (
(668,595,ls),
(759,711,o),
(785,701,o),
(837,729,c),
(845,734,o),
(841,761,o),
(830,761,cs),
(770,760,o),
(685,760,o),
(605,761,cs),
(595,761,o),
(590,734,o),
(599,729,cs),
(646,703,o),
(639,691,o),
(569,587,cs),
(438,391,l),
(490,369,l)
);
}
);
width = 946;
},
{
anchors = (
{
name = bottom;
pos = (383,0);
},
{
name = top;
pos = (383,760);
}
);
layerId = m002;
shapes = (
{
closed = 1;
nodes = (
(560,0,o),
(675,0,o),
(755,-1,cs),
(766,-1,o),
(770,46,o),
(762,51,c),
(690,79,o),
(678,91,o),
(623,165,cs),
(307,587,ls),
(239,677,o),
(222,688,o),
(277,709,cs),
(287,713,o),
(281,761,o),
(271,761,cs),
(191,760,o),
(76,760,o),
(-4,761,cs),
(-15,761,o),
(-19,714,o),
(-11,709,c),
(61,681,o),
(74,667,o),
(128,595,cs),
(444,173,ls),
(511,83,o),
(529,72,o),
(454,50,cs),
(444,47,o),
(450,-1,o),
(460,-1,cs)
);
},
{
closed = 1;
nodes = (
(51,0,o),
(146,0,o),
(256,-1,cs),
(266,-1,o),
(271,46,o),
(262,49,cs),
(185,77,o),
(198,85,o),
(262,173,cs),
(405,369,l),
(333,391,l),
(133,165,ls),
(67,91,o),
(46,79,o),
(-16,51,c),
(-24,46,o),
(-20,-1,o),
(-9,-1,cs)
);
},
{
closed = 1;
nodes = (
(603,595,ls),
(667,671,o),
(690,681,o),
(752,709,c),
(760,714,o),
(756,761,o),
(745,761,cs),
(685,760,o),
(590,760,o),
(480,761,cs),
(470,761,o),
(465,714,o),
(474,711,cs),
(551,683,o),
(535,677,o),
(474,587,cs),
(341,391,l),
(413,369,l)
);
}
);
width = 766;
}
);
unicode = 88;
}
{
glyphname = bracketleft;
layers = (
{
hints = (
{
name = _corner.mitre;
options = 2;
origin = (0,3);
type = Corner;
},
{
name = _corner.mitre;
origin = (0,0);
type = Corner;
},
{
name = _corner.serif;
options = 1;
origin = (0,1);
scale = (-1,1);
type = Corner;
},
{
name = _corner.serif;
origin = (0,2);
type = Corner;
}
);
layerId = m01;
shapes = (
{
closed = 1;
nodes = (
(120,-130,l),
(210,-140,l),
(210,780,l),
(120,770,l)
);
}
);
userData = {
com.schriftgestaltung.Glyphs.layer.corners = (
{
name = _corner.serifR;
options = 1;
origin = _corner00;
scale = "{1.5, 1}";
type = Corner;
},
{
name = _corner.serifL;
origin = _corner01;
scale = "{1.5, 1}";
type = Corner;
},
{
name = _corner.mitre;
options = 2;
origin = _corner02;
type = Corner;
},
{
name = _corner.mitre;
origin = _corner03;
type = Corner;
},
{
name = _corner.serif;
options = 1;
origin = _corner04;
scale = "{-1, 1}";
type = Corner;
},
{
name = _corner.serif;
origin = _corner05;
type = Corner;
}
);
};
width = 361;
},
{
hints = (
{
name = _corner.mitre;
options = 2;
origin = (0,3);
type = Corner;
},
{
name = _corner.mitre;
origin = (0,0);
type = Corner;
},
{
name = _corner.serif;
options = 1;
origin = (0,1);
scale = (-1,1);
type = Corner;
},
{
name = _corner.serif;
origin = (0,2);
type = Corner;
}
);
layerId = m002;
shapes = (
{
closed = 1;
nodes = (
(120,-130,l),
(240,-140,l),
(240,780,l),
(120,770,l)
);
}
);
userData = {
com.schriftgestaltung.Glyphs.layer.corners = (
{
name = _corner.serifR;
options = 1;
origin = _corner00;
scale = "{1.5, 1}";
type = Corner;
},
{
name = _corner.serifL;
origin = _corner01;
scale = "{1.5, 1}";
type = Corner;
},
{
name = _corner.mitre;
options = 2;
origin = _corner02;
type = Corner;
},
{
name = _corner.mitre;
origin = _corner03;
type = Corner;
},
{
name = _corner.serif;
options = 1;
origin = _corner04;
scale = "{-1, 1}";
type = Corner;
},
{
name = _corner.serif;
origin = _corner05;
type = Corner;
}
);
};
width = 361;
}
);
unicode = 91;
}
{
glyphname = b;
layers = (
{
anchors = (
{
name = bottom;
pos = (298,0);
},
{
name = center;
pos = (298,250);
},
{
name = top;
pos = (298,500);
}
);
hints = (
{
name = _corner.mitre;
origin = (0,8);
type = Corner;
},
{
name = _corner.mitre;
origin = (0,11);
type = Corner;
},
{
name = _segment.bulge;
origin = (1,6);
type = Segment;
},
{
name = _corner.mitre;
origin = (0,3);
type = Corner;
}
);
layerId = m01;
shapes = (
{
closed = 1;
nodes = (
(63,697,o),
(84,610,o),
(84,435,cs),
(84,-5,l),
(169,20,l),
(169,530,ls),
(169,625,o),
(174,720,o),
(179,815,c),
(133,798,o),
(94,781,o),
(48,770,c)
);
},
{
closed = 1;
nodes = (
(545,400,o),
(485,510,o),
(351,510,cs),
(280,510,o),
(199,467,o),
(120,360,c),
(159,350,l),
(209,405,o),
(262,431,o),
(310,431,cs),
(414,431,o),
(455,353,o),
(455,221,cs),
(455,100,o),
(384,57,o),
(308,57,cs),
(254,57,o),
(199,78,o),
(165,110,c),
(140,25,l),
(165,10,o),
(219,-11,o),
(294,-11,cs),
(407,-11,o),
(545,107,o),
(545,268,cs)
);
}
);
userData = {
com.schriftgestaltung.Glyphs.layer.corners = (
{
name = _corner.mitre;
origin = _corner00;
type = Corner;
},
{
name = _corner.mitre;
origin = _corner01;
type = Corner;
},
{
name = _segment.bulge;
origin = _corner02;
type = Segment;
},
{
name = _corner.mitre;
origin = _corner03;
type = Corner;
}
);
};
width = 595;
},
{
anchors = (
{
name = bottom;
pos = (306,0);
},
{
name = center;
pos = (306,250);
},
{
name = top;
pos = (306,500);
}
);
background = {
shapes = (
{
closed = 1;
nodes = (
(47,697,o),
(68,610,o),
(68,435,cs),
(68,-5,l,{
name = _corner03;
}),
(153,20,l),
(153,530,ls),
(153,625,o),
(158,720,o),
(163,815,c,{
name = _corner04;
}),
(117,798,o),
(78,781,o),
(32,770,c,{
name = _corner05;
})
);
},
{
closed = 1;
nodes = (
(531,423,o),
(449,508,o),
(351,508,cs),
(267,508,o),
(171,445,o),
(106,310,c),
(145,310,l),
(201,376,o),
(248,402,o),
(286,402,cs),
(354,402,o),
(396,340,o),
(396,242,cs),
(396,145,o),
(372,68,o),
(293,68,cs),
(234,68,o),
(187,116,o),
(151,150,c),
(126,5,l),
(162,-4,o),
(198,-8,o),
(233,-8,cs),
(394,-8,o),
(531,84,o),
(531,268,cs)
);
}
);
};
hints = (
{
name = _corner.mitre;
origin = (0,8);
type = Corner;
},
{
name = _corner.mitre;
origin = (0,11);
type = Corner;
},
{
name = _segment.bulge;
origin = (1,6);
type = Segment;
},
{
name = _corner.mitre;
origin = (0,3);
type = Corner;
}
);
layerId = m002;
shapes = (
{
closed = 1;
nodes = (
(71,637,o),
(94,570,o),
(91,335,cs),
(87,-10,l),
(212,20,l),
(212,530,ls),
(212,625,o),
(217,720,o),
(222,815,c),
(176,798,o),
(92,772,o),
(46,760,c)
);
},
{
closed = 1;
nodes = (
(561,423,o),
(479,508,o),
(381,508,cs),
(297,508,o),
(201,445,o),
(136,310,c),
(175,310,l),
(231,376,o),
(278,402,o),
(316,402,cs),
(384,402,o),
(426,340,o),
(426,242,cs),
(426,145,o),
(402,68,o),
(323,68,cs),
(264,68,o),
(217,116,o),
(181,150,c),
(156,25,l),
(192,6,o),
(228,-8,o),
(293,-8,cs),
(414,-8,o),
(561,84,o),
(561,268,cs)
);
}
);
userData = {
com.schriftgestaltung.Glyphs.layer.corners = (
{
name = _corner.mitre;
origin = _corner00;
type = Corner;
},
{
name = _corner.mitre;
origin = _corner01;
type = Corner;
},
{
name = _segment.bulge;
origin = _corner02;
type = Segment;
},
{
name = _corner.mitre;
origin = _corner03;
type = Corner;
}
);
};
width = 611;
}
);
unicode = 98;
}
{
glyphname = c;
layers = (
{
anchors = (
{
name = bottom;
pos = (252,0);
},
{
name = top;
pos = (252,500);
}
);
background = {
shapes = (
{
closed = 1;
nodes = (
(323,-10,o),
(389,12,o),
(465,70,c),
(444,110,l),
(267,14,o),
(150,81,o),
(150,279,cs),
(150,374,o),
(190,440,o),
(270,440,cs),
(328,440,o),
(368,407,o),
(410,370,cs),
(437,346,o),
(471,439,o),
(455,455,cs),
(430,480,o),
(376,511,o),
(301,511,cs),
(188,511,o),
(55,393,o),
(55,232,cs),
(55,97,o),
(145,-10,o),
(268,-10,cs)
);
}
);
};
hints = (
{
name = _segment.bulge;
origin = (0,3);
type = Segment;
}
);
layerId = m01;
shapes = (
{
closed = 1;
nodes = (
(323,-10,o),
(389,12,o),
(465,70,c),
(444,110,l),
(267,24,o),
(150,81,o),
(150,279,cs),
(150,374,o),
(190,440,o),
(270,440,cs),
(328,440,o),
(368,407,o),
(410,370,cs),
(437,346,o),
(471,449,o),
(450,470,cs),
(430,490,o),
(376,511,o),
(311,511,cs),
(188,511,o),
(55,393,o),
(55,232,cs),
(55,97,o),
(145,-10,o),
(268,-10,cs)
);
}
);
userData = {
com.schriftgestaltung.Glyphs.layer.corners = (
{
name = _segment.bulge;
origin = _corner00;
type = Segment;
}
);
};
width = 504;
},
{
anchors = (
{
name = bottom;
pos = (252,0);
},
{
name = top;
pos = (302,500);
}
);
background = {
shapes = (
{
closed = 1;
nodes = (
(456,-10,o),
(544,128,o),
(544,262,cs),
(544,388,o),
(467,510,o),
(315,510,cs),
(138,510,o),
(50,372,o),
(50,238,cs),
(50,112,o),
(127,-10,o),
(279,-10,cs)
);
},
{
closed = 1;
nodes = (
(237,58,o),
(191,159,o),
(191,281,cs),
(191,382,o),
(220,430,o),
(277,435,cs),
(358,442,o),
(403,341,o),
(403,219,cs),
(403,118,o),
(374,70,o),
(317,65,cs)
);
}
);
};
hints = (
{
name = _segment.bulge;
origin = (0,3);
type = Segment;
}
);
layerId = m002;
shapes = (
{
closed = 1;
nodes = (
(335,-9,o),
(406,16,o),
(475,70,c),
(444,130,l),
(293,61,o),
(200,96,o),
(200,279,cs),
(200,382,o),
(223,415,o),
(266,415,cs),
(309,415,o),
(362,372,o),
(404,345,cs),
(441,322,o),
(482,448,o),
(460,470,cs),
(434,496,o),
(390,509,o),
(340,509,cs),
(216,509,o),
(55,424,o),
(55,232,cs),
(55,81,o),
(150,-9,o),
(271,-9,cs)
);
}
);
userData = {
com.schriftgestaltung.Glyphs.layer.corners = (
{
name = _segment.bulge;
origin = _corner00;
type = Segment;
}
);
};
width = 504;
}
);
unicode = 99;
}
{
glyphname = d;
layers = (
{
anchors = (
{
name = bottom;
pos = (304,0);
},
{
name = center;
pos = (304,250);
},
{
name = top;
pos = (304,800);
},
{
name = topright;
pos = (568,790);
}
);
background = {
shapes = (
{
closed = 1;
nodes = (
(516,15,l,{
name = _corner00;
}),
(516,815,l,{
name = _corner01;
}),
(486,803,o),
(457,791,o),
(426,780,c,{
name = _corner02;
}),
(426,-10,l,{
name = _corner03;
})
);
},
{
closed = 1;
nodes = (
(45,100,o),
(120,-10,o),
(244,-10,cs),
(315,-10,o),
(396,33,o),
(475,140,c),
(436,150,l),
(386,95,o),
(333,69,o),
(285,69,cs),
(191,69,o),
(135,147,o),
(135,279,cs),
(135,390,o),
(199,438,o),
(276,438,cs),
(327,438,o),
(383,418,o),
(430,380,c),
(455,465,l),
(430,480,o),
(376,511,o),
(301,511,cs),
(188,511,o),
(45,393,o),
(45,232,cs)
);
}
);
};
hints = (
{
name = _corner.mitre;
options = 1;
origin = (1,11);
type = Corner;
},
{
name = _corner.mitre;
options = 1;
origin = (1,8);
type = Corner;
},
{
name = _corner.beak;
options = 1;
origin = (1,4);
scale = (0.8,-1);
type = Corner;
},
{
name = _corner.mitre;
origin = (1,3);
type = Corner;
}
);
layerId = m01;
shapes = (
{
closed = 1;
nodes = (
(50,100,o),
(110,-10,o),
(244,-10,cs),
(295,-10,o),
(386,33,o),
(475,140,c),
(436,150,l),
(386,95,o),
(333,69,o),
(285,69,cs),
(181,69,o),
(140,147,o),
(140,279,cs),
(140,390,o),
(199,438,o),
(276,438,cs),
(327,438,o),
(383,418,o),
(430,380,c),
(455,465,l),
(430,480,o),
(376,511,o),
(301,511,cs),
(188,511,o),
(50,393,o),
(50,232,cs)
);
},
{
closed = 1;
nodes = (
(405,697,o),
(426,610,o),
(426,495,cs),
(426,-10,l),
(511,15,l),
(511,530,ls),
(511,625,o),
(516,720,o),
(521,815,c),
(475,798,o),
(436,781,o),
(390,770,c)
);
}
);
userData = {
com.schriftgestaltung.Glyphs.layer.corners = (
{
name = _corner.mitre;
options = 1;
origin = _corner00;
type = Corner;
},
{
name = _corner.mitre;
options = 1;
origin = _corner01;
type = Corner;
},
{
name = _corner.beak;
options = 1;
origin = _corner02;
scale = "{0.8, -1}";
type = Corner;
},
{
name = _corner.mitre;
origin = _corner03;
type = Corner;
}
);
};
width = 630;
},
{
anchors = (
{
name = bottom;
pos = (314,0);
},
{
name = center;
pos = (314,250);
},
{
name = top;
pos = (314,800);
},
{
name = topright;
pos = (588,800);
}
);
background = {
shapes = (
{
closed = 1;
nodes = (
(60,100,o),
(120,-10,o),
(254,-10,cs),
(325,-10,o),
(406,33,o),
(485,140,c),
(446,150,l),
(396,95,o),
(343,69,o),
(295,69,cs),
(191,69,o),
(150,147,o),
(150,279,cs),
(150,390,o),
(209,438,o),
(286,438,cs),
(337,438,o),
(393,418,o),
(440,380,c),
(465,465,l),
(440,480,o),
(386,511,o),
(311,511,cs),
(198,511,o),
(60,393,o),
(60,232,cs)
);
},
{
closed = 1;
nodes = (
(415,697,o),
(436,610,o),
(436,495,cs),
(436,-10,l,{
name = _corner04;
}),
(521,15,l,{
name = _corner05;
}),
(521,530,ls),
(521,625,o),
(526,720,o),
(531,815,c,{
name = _corner06;
}),
(485,798,o),
(446,781,o),
(400,770,c,{
name = _corner07;
})
);
}
);
};
hints = (
{
name = _corner.mitre;
origin = (1,3);
type = Corner;
},
{
name = _corner.beak;
options = 1;
origin = (1,4);
scale = (0.85,-1);
type = Corner;
},
{
name = _corner.mitre;
options = 1;
origin = (1,8);
type = Corner;
},
{
name = _corner.mitre;
options = 1;
origin = (1,11);
type = Corner;
}
);
layerId = m002;
shapes = (
{
closed = 1;
nodes = (
(51,77,o),
(133,-8,o),
(231,-8,cs),
(315,-8,o),
(411,55,o),
(476,190,c),
(437,190,l),
(381,124,o),
(334,98,o),
(296,98,cs),
(228,98,o),
(186,170,o),
(186,278,cs),
(186,394,o),
(229,434,o),
(281,434,cs),
(334,434,o),
(395,394,o),
(431,350,c),
(456,495,l),
(420,504,o),
(384,508,o),
(349,508,cs),
(168,508,o),
(51,416,o),
(51,232,cs)
);
},
{
closed = 1;
nodes = (
(383,645,o),
(401,578,o),
(402,433,cs),
(404,-20,l),
(530,30,l),
(530,538,ls),
(530,633,o),
(535,728,o),
(540,823,c),
(494,806,o),
(404,780,o),
(358,768,c)
);
}
);
userData = {
com.schriftgestaltung.Glyphs.layer.corners = (
{
name = _corner.mitre;
origin = _corner00;
type = Corner;
},
{
name = _corner.beak;
options = 1;
origin = _corner01;
scale = "{0.85, -1}";
type = Corner;
},
{
name = _corner.mitre;
options = 1;
origin = _corner02;
type = Corner;
},
{
name = _corner.mitre;
options = 1;
origin = _corner03;
type = Corner;
}
);
};
width = 628;
}
);
unicode = 100;
}
{
glyphname = g;
layers = (
{
anchors = (
{
name = bottom;
pos = (270,-250);
},
{
name = top;
pos = (250,500);
}
);
background = {
shapes = (
{
closed = 1;
nodes = (
(351,450,l),
(491,430,ls),
(506,428,o),
(516,513,o),
(481,506,cs),
(341,480,l)
);
},
{
closed = 1;
nodes = (
(25,46,o),
(118,9,c),
(-32,-77,o),
(-10,-261,o),
(228,-261,cs),
(370,-261,o),
(498,-157,o),
(498,-60,cs),
(498,11,o),
(451,89,o),
(354,82,cs),
(219,72,ls),
(164,68,o),
(131,96,o),
(131,122,cs),
(131,140,o),
(147,164,o),
(182,193,c),
(142,212,l),
(59,140,o)
);
},
{
closed = 1;
nodes = (
(105,-54,o),
(129,-18,o),
(176,-3,c),
(344,-3,ls),
(474,-3,o),
(456,-190,o),
(268,-190,cs),
(152,-190,o),
(105,-145,o),
(105,-92,cs)
);
},
{
closed = 1;
nodes = (
(354,150,o),
(435,231,o),
(442,330,cs),
(448,419,o),
(370,510,o),
(265,510,cs),
(150,510,o),
(69,429,o),
(62,330,cs),
(55,231,o),
(124,150,o),
(239,150,cs)
);
},
{
closed = 1;
nodes = (
(194,205,o),
(160,255,o),
(152,330,cs),
(144,405,o),
(177,455,o),
(238,455,cs),
(310,455,o),
(344,405,o),
(352,330,cs),
(360,255,o),
(327,205,o),
(266,205,cs)
);
}
);
};
layerId = m01;
shapes = (
{
closed = 1;
nodes = (
(351,450,l),
(491,430,ls),
(506,428,o),
(516,513,o),
(481,506,cs),
(341,480,l)
);
},
{
closed = 1;
nodes = (
(25,46,o),
(103,4,c),
(-32,-77,o),
(-10,-261,o),
(228,-261,cs),
(370,-261,o),
(498,-157,o),
(498,-60,cs),
(498,11,o),
(451,89,o),
(354,82,cs),
(219,72,ls),
(140,66,o),
(122,127,o),
(162,173,c),
(132,202,l),
(59,130,o)
);
},
{
closed = 1;
nodes = (
(105,-54,o),
(129,-18,o),
(176,-3,c),
(344,-3,ls),
(474,-3,o),
(476,-190,o),
(268,-190,cs),
(152,-190,o),
(105,-145,o),
(105,-92,cs)
);
},
{
closed = 1;
nodes = (
(354,160,o),
(435,231,o),
(442,330,cs),
(448,419,o),
(370,510,o),
(265,510,cs),
(150,510,o),
(69,429,o),
(62,330,cs),
(55,231,o),
(124,160,o),
(239,160,cs)
);
},
{
closed = 1;
nodes = (
(194,210,o),
(160,255,o),
(152,330,cs),
(144,405,o),
(177,455,o),
(238,455,cs),
(310,455,o),
(344,395,o),
(352,330,cs),
(361,255,o),
(327,210,o),
(256,210,cs)
);
}
);
width = 540;
},
{
anchors = (
{
name = bottom;
pos = (275,-250);
},
{
name = top;
pos = (275,500);
}
);
background = {
shapes = (
{
closed = 1;
nodes = (
(361,450,l),
(501,430,l),
(511,510,l),
(351,480,l)
);
},
{
closed = 1;
nodes = (
(68,48,o),
(89,23,o),
(128,9,c),
(-22,-77,o),
(0,-261,o),
(228,-261,cs),
(400,-261,o),
(508,-147,o),
(508,-50,cs),
(508,21,o),
(461,82,o),
(364,82,cs),
(229,82,ls),
(174,82,o),
(141,96,o),
(141,122,cs),
(141,140,o),
(157,164,o),
(192,193,c),
(152,212,l),
(95,163,o),
(68,117,o),
(68,80,cs)
);
},
{
closed = 1;
nodes = (
(115,-54,o),
(139,-18,o),
(186,-3,c),
(344,-3,ls),
(484,-3,o),
(476,-190,o),
(258,-190,cs),
(162,-190,o),
(115,-145,o),
(115,-92,cs)
);
},
{
closed = 1;
nodes = (
(364,150,o),
(445,231,o),
(452,330,cs),
(458,419,o),
(380,510,o),
(275,510,cs),
(160,510,o),
(79,429,o),
(72,330,cs),
(65,231,o),
(134,150,o),
(249,150,cs)
);
},
{
closed = 1;
nodes = (
(204,205,o),
(170,255,o),
(162,330,cs),
(154,405,o),
(187,455,o),
(248,455,cs),
(320,455,o),
(354,405,o),
(362,330,cs),
(370,255,o),
(337,205,o),
(276,205,cs)
);
}
);
};
layerId = m002;
shapes = (
{
closed = 1;
nodes = (
(381,450,l),
(520,397,ls),
(551,385,o),
(565,519,o),
(511,508,cs),
(371,480,l)
);
},
{
closed = 1;
nodes = (
(35,36,o),
(128,-1,c),
(-22,-87,o),
(0,-261,o),
(238,-261,cs),
(392,-261,o),
(523,-157,o),
(523,-53,cs),
(523,40,o),
(458,105,o),
(364,102,cs),
(229,97,ls),
(155,94,o),
(120,141,o),
(142,193,c),
(112,212,l),
(19,140,o)
);
},
{
closed = 1;
nodes = (
(173,-44,o),
(178,-25,o),
(186,-13,c),
(304,-13,ls),
(434,-13,o),
(446,-180,o),
(288,-180,cs),
(204,-180,o),
(173,-117,o),
(173,-65,cs)
);
},
{
closed = 1;
nodes = (
(391,150,o),
(463,247,o),
(463,340,cs),
(463,427,o),
(401,510,o),
(275,510,cs),
(133,510,o),
(58,411,o),
(58,317,cs),
(58,232,o),
(119,150,o),
(249,150,cs)
);
},
{
closed = 1;
nodes = (
(224,215,o),
(200,255,o),
(194,310,cs),
(184,405,o),
(207,436,o),
(253,440,cs),
(300,445,o),
(324,405,o),
(330,350,cs),
(340,255,o),
(317,224,o),
(271,220,cs)
);
}
);
width = 550;
}
);
unicode = 103;
}
{
glyphname = i;
layers = (
{
anchors = (
{
name = bottom;
pos = (175,0);
}
);
hints = (
{
name = _corner.serif;
options = 1;
origin = (1,0);
scale = (0.8,-1);
type = Corner;
},
{
name = _corner.mitre;
origin = (1,1);
type = Corner;
},
{
name = _corner.beak;
options = 1;
origin = (1,4);
scale = (0.7,-1);
type = Corner;
},
{
name = _corner.serif;
origin = (1,5);
scale = (0.7,1);
type = Corner;
}
);
layerId = m01;
shapes = (
{
closed = 1;
nodes = (
(205,640,o),
(227,676,o),
(227,700,c),
(212,734,o),
(175,755,o),
(152,755,c),
(119,740,o),
(97,704,o),
(97,680,c),
(112,646,o),
(149,625,o),
(172,625,c)
);
},
{
closed = 1;
nodes = (
(212,0,l),
(212,515,l),
(182,503,o),
(158,492,o),
(127,480,c),
(127,0,l)
);
}
);
userData = {
com.schriftgestaltung.Glyphs.layer.corners = (
{
name = _corner.serif;
options = 1;
origin = _corner00;
scale = "{0.8, -1}";
type = Corner;
},
{
name = _corner.mitre;
origin = _corner01;
type = Corner;
},
{
name = _corner.beak;
options = 1;
origin = _corner02;
scale = "{0.7, -1}";
type = Corner;
},
{
name = _corner.serif;
origin = _corner03;
scale = "{0.7, 1}";
type = Corner;
}
);
};
width = 335;
},
{
anchors = (
{
name = bottom;
pos = (176,0);
}
);
hints = (
{
name = _corner.serif;
options = 1;
origin = (1,0);
scale = (0.8,-1);
type = Corner;
},
{
name = _corner.mitre;
origin = (1,1);
type = Corner;
},
{
name = _corner.beak;
options = 1;
origin = (1,4);
scale = (0.7,-1);
type = Corner;
},
{
name = _corner.serif;
origin = (1,5);
scale = (0.7,1);
type = Corner;
}
);
layerId = m002;
shapes = (
{
closed = 1;
nodes = (
(215,635,o),
(243,682,o),
(243,713,c),
(223,758,o),
(175,785,o),
(145,785,c),
(101,765,o),
(73,718,o),
(73,687,c),
(93,642,o),
(141,615,o),
(171,615,c)
);
},
{
closed = 1;
nodes = (
(233,0,l),
(233,515,l),
(203,503,o),
(139,482,o),
(108,470,c),
(108,0,l)
);
}
);
userData = {
com.schriftgestaltung.Glyphs.layer.corners = (
{
name = _corner.serif;
options = 1;
origin = _corner00;
scale = "{0.8, -1}";
type = Corner;
},
{
name = _corner.mitre;
origin = _corner01;
type = Corner;
},
{
name = _corner.beak;
options = 1;
origin = _corner02;
scale = "{0.7, -1}";
type = Corner;
},
{
name = _corner.serif;
origin = _corner03;
scale = "{0.7, 1}";
type = Corner;
}
);
};
width = 351;
}
);
unicode = 105;
}
{
glyphname = k;
layers = (
{
anchors = (
{
name = bottom;
pos = (311,0);
},
{
name = top;
pos = (286,800);
}
);
background = {
shapes = (
{
closed = 1;
nodes = (
(92,697,o),
(113,610,o),
(113,435,cs),
(113,0,l,{
name = _corner00;
}),
(192,0,l,{
name = _corner01;
}),
(198,530,ls),
(199,625,o),
(203,720,o),
(208,815,c,{
name = _corner02;
}),
(162,798,o),
(123,781,o),
(77,770,c,{
name = _corner03;
})
);
},
{
closed = 1;
nodes = (
(217,270,l),
(392,0,l),
(512,0,l,{
name = _corner04;
}),
(298,305,l)
);
},
{
closed = 1;
nodes = (
(522,490,l,{
name = _corner05;
}),
(427,490,l,{
name = _corner06;
}),
(122,175,l),
(182,172,l)
);
}
);
};
hints = (
{
name = _corner.serif;
origin = (1,11);
scale = (0.7,1);
type = Corner;
},
{
name = _corner.serif;
options = 1;
origin = (1,0);
scale = (0.6,-1);
type = Corner;
},
{
name = _corner.mitre;
origin = (1,4);
type = Corner;
},
{
name = _corner.mitre;
origin = (1,7);
type = Corner;
},
{
name = _corner.serif;
options = 1;
origin = (0,0);
scale = (0.6,-1);
type = Corner;
},
{
name = _corner.serif;
origin = (0,2);
scale = (0.5,1);
type = Corner;
},
{
name = _corner.serif;
options = 1;
origin = (0,3);
scale = (0.6,-1);
type = Corner;
}
);
layerId = m01;
shapes = (
{
closed = 1;
nodes = (
(512,0,l),
(308,290,l),
(522,490,l),
(427,490,l),
(240,295,ls),
(211,265,o),
(217,271,o),
(181,270,c),
(170,229,l),
(245,228,o),
(241,234,o),
(259,206,cs),
(392,0,l)
);
},
{
closed = 1;
nodes = (
(192,0,l),
(198,530,ls),
(199,625,o),
(203,720,o),
(208,815,c),
(162,798,o),
(123,781,o),
(77,770,c),
(92,697,o),
(113,610,o),
(113,435,cs),
(113,0,l)
);
}
);
userData = {
com.schriftgestaltung.Glyphs.layer.corners = (
{
name = _corner.serif;
origin = _corner00;
scale = "{0.7, 1}";
type = Corner;
},
{
name = _corner.serif;
options = 1;
origin = _corner01;
scale = "{0.6, -1}";
type = Corner;
},
{
name = _corner.mitre;
origin = _corner02;
type = Corner;
},
{
name = _corner.mitre;
origin = _corner03;
type = Corner;
},
{
name = _corner.serif;
options = 1;
origin = _corner04;
scale = "{0.6, -1}";
type = Corner;
},
{
name = _corner.serif;
origin = _corner05;
scale = "{0.5, 1}";
type = Corner;
},
{
name = _corner.serif;
options = 1;
origin = _corner06;
scale = "{0.6, -1}";
type = Corner;
}
);
};
width = 571;
},
{
anchors = (
{
name = bottom;
pos = (284,0);
},
{
name = top;
pos = (284,800);
}
);
background = {
shapes = (
{
closed = 1;
nodes = (
(92,697,o),
(113,610,o),
(113,435,cs),
(113,0,l,{
name = _corner00;
}),
(192,0,l,{
name = _corner01;
}),
(198,530,ls),
(199,625,o),
(203,720,o),
(208,815,c,{
name = _corner02;
}),
(162,798,o),
(123,781,o),
(77,770,c,{
name = _corner03;
})
);
},
{
closed = 1;
nodes = (
(217,270,l),
(392,0,l),
(512,0,l,{
name = _corner04;
}),
(298,305,l)
);
},
{
closed = 1;
nodes = (
(522,490,l,{
name = _corner05;
}),
(427,490,l,{
name = _corner06;
}),
(122,175,l),
(182,172,l)
);
}
);
};
hints = (
{
name = _corner.serif;
options = 1;
origin = (0,0);
scale = (0.6,-1);
type = Corner;
},
{
name = _corner.serif;
origin = (0,2);
scale = (0.5,1);
type = Corner;
},
{
name = _corner.serif;
options = 1;
origin = (0,3);
scale = (0.4,-1);
type = Corner;
},
{
name = _corner.serif;
options = 1;
origin = (1,0);
scale = (0.6,-1);
type = Corner;
},
{
name = _corner.mitre;
origin = (1,4);
type = Corner;
},
{
name = _corner.mitre;
origin = (1,7);
type = Corner;
},
{
name = _corner.serif;
origin = (1,11);
scale = (0.7,1);
type = Corner;
}
);
layerId = m002;
shapes = (
{
closed = 1;
nodes = (
(552,0,l),
(348,290,l),
(562,490,l),
(397,490,l),
(265,314,ls),
(251,296,o),
(245,295,o),
(221,295,c),
(210,229,l),
(235,228,o),
(254,236,o),
(269,206,cs),
(372,0,l)
);
},
{
closed = 1;
nodes = (
(228,0,l),
(228,530,ls),
(228,625,o),
(233,720,o),
(238,815,c),
(192,798,o),
(108,772,o),
(62,760,c),
(87,637,o),
(108,570,o),
(108,395,cs),
(108,0,l)
);
}
);
userData = {
com.schriftgestaltung.Glyphs.layer.corners = (
{
name = _corner.serif;
options = 1;
origin = _corner00;
scale = "{0.6, -1}";
type = Corner;
},
{
name = _corner.serif;
origin = _corner01;
scale = "{0.5, 1}";
type = Corner;
},
{
name = _corner.serif;
options = 1;
origin = _corner02;
scale = "{0.4, -1}";
type = Corner;
},
{
name = _corner.serif;
options = 1;
origin = _corner03;
scale = "{0.6, -1}";
type = Corner;
},
{
name = _corner.mitre;
origin = _corner04;
type = Corner;
},
{
name = _corner.mitre;
origin = _corner05;
type = Corner;
},
{
name = _corner.serif;
origin = _corner06;
scale = "{0.7, 1}";
type = Corner;
}
);
};
width = 568;
}
);
unicode = 107;
}
{
glyphname = n;
layers = (
{
anchors = (
{
name = bottom;
pos = (328,0);
},
{
name = top;
pos = (338,500);
}
);
background = {
shapes = (
{
closed = 1;
nodes = (
(212,0,l,{
name = _corner06;
}),
(212,515,l,{
name = _corner07;
}),
(182,505,o),
(162,500,o),
(122,490,c,{
name = _corner08;
}),
(122,0,l,{
name = _corner09;
})
);
}
);
};
hints = (
{
name = _corner.serif;
options = 1;
origin = (0,0);
scale = (0.7,-1);
type = Corner;
},
{
name = _corner.serif;
origin = (0,12);
scale = (0.7,1);
type = Corner;
},
{
name = _corner.serif;
options = 1;
origin = (1,0);
scale = (0.8,-1);
type = Corner;
},
{
name = _corner.mitre;
origin = (1,1);
type = Corner;
},
{
name = _corner.beak;
options = 1;
origin = (1,4);
scale = (0.7,-1);
type = Corner;
},
{
name = _corner.serif;
origin = (1,5);
scale = (0.7,1);
type = Corner;
}
);
layerId = m01;
shapes = (
{
closed = 1;
nodes = (
(532,0,l),
(542,340,ls),
(544,424,o),
(497,511,o),
(394,511,cs),
(319,511,o),
(248,459,o),
(162,381,c),
(186,360,l),
(359,493,o),
(452,426,o),
(452,300,cs),
(452,0,l)
);
},
{
closed = 1;
nodes = (
(212,0,l),
(212,515,l),
(182,503,o),
(158,492,o),
(127,480,c),
(127,0,l)
);
}
);
userData = {
com.schriftgestaltung.Glyphs.layer.corners = (
{
name = _corner.serif;
options = 1;
origin = _corner00;
scale = "{0.7, -1}";
type = Corner;
},
{
name = _corner.serif;
origin = _corner01;
scale = "{0.7, 1}";
type = Corner;
},
{
name = _corner.serif;
options = 1;
origin = _corner02;
scale = "{0.8, -1}";
type = Corner;
},
{
name = _corner.mitre;
origin = _corner03;
type = Corner;
},
{
name = _corner.beak;
options = 1;
origin = _corner04;
scale = "{0.7, -1}";
type = Corner;
},
{
name = _corner.serif;
origin = _corner05;
scale = "{0.7, 1}";
type = Corner;
}
);
};
width = 641;
},
{
anchors = (
{
name = bottom;
pos = (334,0);
},
{
name = top;
pos = (334,500);
}
);
background = {
shapes = (
{
closed = 1;
nodes = (
(198,0,l,{
name = _corner06;
}),
(198,515,l,{
name = _corner07;
}),
(168,505,o),
(148,500,o),
(108,490,c,{
name = _corner08;
}),
(108,0,l,{
name = _corner09;
})
);
}
);
};
hints = (
{
name = _corner.serif;
options = 1;
origin = (0,0);
scale = (0.7,-1);
type = Corner;
},
{
name = _corner.serif;
origin = (0,12);
scale = (0.7,1);
type = Corner;
},
{
name = _corner.serif;
options = 1;
origin = (1,0);
scale = (0.8,-1);
type = Corner;
},
{
name = _corner.mitre;
origin = (1,1);
type = Corner;
},
{
name = _corner.beak;
options = 1;
origin = (1,4);
scale = (0.7,-1);
type = Corner;
},
{
name = _corner.serif;
origin = (1,5);
scale = (0.7,1);
type = Corner;
}
);
layerId = m002;
shapes = (
{
closed = 1;
nodes = (
(553,0,l),
(563,320,ls),
(567,435,o),
(502,510,o),
(413,510,cs),
(342,510,o),
(258,461,o),
(188,341,c),
(212,320,l),
(285,439,o),
(438,417,o),
(438,270,cs),
(438,0,l)
);
},
{
closed = 1;
nodes = (
(238,0,l),
(238,515,l),
(208,503,o),
(144,482,o),
(113,470,c),
(113,0,l)
);
}
);
userData = {
com.schriftgestaltung.Glyphs.layer.corners = (
{
name = _corner.serif;
options = 1;
origin = _corner00;
scale = "{0.7, -1}";
type = Corner;
},
{
name = _corner.serif;
origin = _corner01;
scale = "{0.7, 1}";
type = Corner;
},
{
name = _corner.serif;
options = 1;
origin = _corner02;
scale = "{0.8, -1}";
type = Corner;
},
{
name = _corner.mitre;
origin = _corner03;
type = Corner;
},
{
name = _corner.beak;
options = 1;
origin = _corner04;
scale = "{0.7, -1}";
type = Corner;
},
{
name = _corner.serif;
origin = _corner05;
scale = "{0.7, 1}";
type = Corner;
}
);
};
width = 667;
}
);
unicode = 110;
}
{
glyphname = r;
layers = (
{
anchors = (
{
name = bottom;
pos = (212,0);
},
{
name = top;
pos = (212,500);
}
);
background = {
shapes = (
{
closed = 1;
nodes = (
(381,391,o),
(417,486,o),
(390,501,cs),
(320,540,o),
(292,504,o),
(208,413,c),
(208,520,l,{
name = _corner04;
}),
(178,508,o),
(154,497,o),
(123,485,c,{
name = _corner05;
}),
(123,0,l,{
name = _corner06;
}),
(208,0,l,{
name = _corner07;
}),
(208,350,l),
(247,418,o),
(299,429,o),
(357,402,cs)
);
}
);
};
hints = (
{
name = _corner.serif;
options = 1;
origin = (0,0);
scale = (1.1,-1.05);
type = Corner;
},
{
name = _corner.mitre;
origin = (0,11);
type = Corner;
},
{
name = _corner.beak;
options = 1;
origin = (0,14);
scale = (0.8,-1);
type = Corner;
},
{
name = _corner.serif;
origin = (0,15);
scale = (0.8,1);
type = Corner;
}
);
layerId = m01;
shapes = (
{
closed = 1;
nodes = (
(208,0,l),
(208,304,ls),
(208,397,o),
(261,424,o),
(366,392,cs),
(382,387,o),
(416,479,o),
(381,497,cs),
(310,533,o),
(302,497,o),
(208,407,c),
(208,520,l),
(178,508,o),
(154,497,o),
(123,485,c),
(123,0,l)
);
}
);
userData = {
com.schriftgestaltung.Glyphs.layer.corners = (
{
name = _corner.serif;
options = 1;
origin = _corner00;
scale = "{1.1, -1.05}";
type = Corner;
},
{
name = _corner.mitre;
origin = _corner01;
type = Corner;
},
{
name = _corner.beak;
options = 1;
origin = _corner02;
scale = "{0.8, -1}";
type = Corner;
},
{
name = _corner.serif;
origin = _corner03;
scale = "{0.8, 1}";
type = Corner;
}
);
};
width = 423;
},
{
anchors = (
{
name = bottom;
pos = (217,0);
},
{
name = top;
pos = (217,500);
}
);
background = {
shapes = (
{
closed = 1;
nodes = (
(381,391,o),
(417,486,o),
(390,501,cs),
(320,540,o),
(292,504,o),
(208,413,c),
(208,520,l,{
name = _corner04;
}),
(178,508,o),
(154,497,o),
(123,485,c,{
name = _corner05;
}),
(123,0,l,{
name = _corner06;
}),
(208,0,l,{
name = _corner07;
}),
(208,350,l),
(247,418,o),
(299,429,o),
(357,402,cs)
);
}
);
};
hints = (
{
name = _corner.serif;
options = 1;
origin = (0,0);
scale = (0.9,-1);
type = Corner;
},
{
name = _corner.mitre;
origin = (0,11);
type = Corner;
},
{
name = _corner.beak;
options = 1;
origin = (0,14);
scale = (0.7,-1);
type = Corner;
},
{
name = _corner.serif;
origin = (0,15);
scale = (0.7,1);
type = Corner;
}
);
layerId = m002;
shapes = (
{
closed = 1;
nodes = (
(233,0,l),
(233,244,ls),
(233,337,o),
(261,364,o),
(366,332,cs),
(382,327,o),
(437,478,o),
(372,500,cs),
(317,519,o),
(301,491,o),
(233,386,c),
(233,515,l),
(203,503,o),
(139,482,o),
(108,470,c),
(108,0,l)
);
}
);
userData = {
com.schriftgestaltung.Glyphs.layer.corners = (
{
name = _corner.serif;
options = 1;
origin = _corner00;
scale = "{0.9, -1}";
type = Corner;
},
{
name = _corner.mitre;
origin = _corner01;
type = Corner;
},
{
name = _corner.beak;
options = 1;
origin = _corner02;
scale = "{0.7, -1}";
type = Corner;
},
{
name = _corner.serif;
origin = _corner03;
scale = "{0.7, 1}";
type = Corner;
}
);
};
width = 433;
}
);
unicode = 114;
}
{
glyphname = s;
layers = (
{
anchors = (
{
name = bottom;
pos = (231,0);
},
{
name = top;
pos = (231,500);
}
);
background = {
shapes = (
{
closed = 1;
nodes = (
(79,15,l),
(116,1,o),
(158,-10,o),
(199,-10,cs),
(309,-10,o),
(402,39,o),
(402,137,cs),
(402,215,o),
(348,244,o),
(294,272,cs),
(201,321,o),
(155,336,o),
(155,384,cs),
(156,426,o),
(191,454,o),
(233,454,cs),
(274,454,o),
(321,427,o),
(350,360,cs),
(353,350,o),
(392,356,o),
(390,367,cs),
(372,490,l),
(344,500,o),
(303,510,o),
(260,510,cs),
(168,510,o),
(66,468,o),
(66,358,cs),
(66,288,o),
(122,258,o),
(165,235,cs),
(259,184,o),
(311,170,o),
(311,115,cs),
(311,80,o),
(287,45,o),
(223,45,cs),
(178,45,o),
(133,71,o),
(97,148,cs),
(93,156,o),
(58,150,o),
(60,135,cs)
);
}
);
};
layerId = m01;
shapes = (
{
closed = 1;
nodes = (
(79,15,l),
(234,-36,o),
(402,-8,o),
(402,137,cs),
(402,215,o),
(348,239,o),
(294,267,cs),
(202,315,o),
(156,345,o),
(156,392,cs),
(156,431,o),
(190,454,o),
(226,454,cs),
(267,454,o),
(316,426,o),
(345,360,cs),
(348,350,o),
(387,356,o),
(385,367,cs),
(367,490,l),
(339,500,o),
(298,510,o),
(255,510,cs),
(163,510,o),
(71,458,o),
(71,358,cs),
(71,293,o),
(122,265,o),
(165,239,cs),
(256,184,o),
(311,170,o),
(311,115,cs),
(311,35,o),
(169,-6,o),
(97,148,cs),
(92,157,o),
(58,149,o),
(60,135,cs)
);
}
);
width = 462;
},
{
anchors = (
{
name = bottom;
pos = (221,0);
},
{
name = top;
pos = (221,500);
}
);
background = {
shapes = (
{
closed = 1;
nodes = (
(69,15,l),
(224,-36,o),
(392,-8,o),
(392,137,cs),
(392,215,o),
(338,244,o),
(284,272,cs),
(192,320,o),
(146,345,o),
(146,392,cs),
(146,431,o),
(180,454,o),
(216,454,cs),
(257,454,o),
(306,426,o),
(335,360,cs),
(338,350,o),
(377,356,o),
(375,367,cs),
(357,490,l),
(329,500,o),
(288,510,o),
(245,510,cs),
(153,510,o),
(61,458,o),
(61,358,cs),
(61,293,o),
(112,265,o),
(155,239,cs),
(246,184,o),
(306,170,o),
(306,115,cs),
(306,35,o),
(159,-6,o),
(87,148,cs),
(82,157,o),
(48,149,o),
(50,135,cs)
);
}
);
};
layerId = m002;
shapes = (
{
closed = 1;
nodes = (
(59,25,l),
(235,-62,o),
(402,32,o),
(402,137,cs),
(402,245,o),
(327,279,o),
(263,309,cs),
(217,330,o),
(176,349,o),
(176,392,cs),
(176,419,o),
(195,439,o),
(222,439,cs),
(261,439,o),
(294,417,o),
(328,359,cs),
(338,342,o),
(387,356,o),
(384,377,cs),
(367,490,l),
(332,502,o),
(294,509,o),
(256,509,cs),
(155,509,o),
(51,461,o),
(51,348,cs),
(51,266,o),
(116,228,o),
(175,202,cs),
(227,179,o),
(273,159,o),
(267,115,cs),
(259,55,o),
(159,24,o),
(100,154,cs),
(93,168,o),
(38,159,o),
(42,135,cs)
);
}
);
width = 442;
}
);
unicode = 115;
}
{
glyphname = u;
layers = (
{
anchors = (
{
name = bottom;
pos = (316,0);
},
{
name = ogonek;
pos = (493,5);
},
{
name = top;
pos = (316,500);
},
{
name = topright;
pos = (612,500);
}
);
background = {
shapes = (
{
closed = 1;
nodes = (
(101,500,l,{
name = _corner00;
}),
(101,170,ls),
(101,86,o),
(146,-11,o),
(259,-11,cs),
(304,-11,o),
(395,11,o),
(481,159,c),
(438,200,l),
(423,108,o),
(365,66,o),
(305,66,cs),
(237,66,o),
(191,104,o),
(191,200,cs),
(191,510,l,{
name = _corner01;
})
);
},
{
closed = 1;
nodes = (
(426,495,l,{
name = _corner02;
}),
(426,-15,l,{
name = _corner03;
}),
(456,-5,o),
(476,0,o),
(516,10,c,{
name = _corner04;
}),
(516,510,l,{
name = _corner05;
})
);
}
);
};
hints = (
{
name = _corner.serif;
options = 1;
origin = (1,3);
scale = (-0.9,1);
type = Corner;
},
{
name = _corner.mitre;
origin = (1,4);
type = Corner;
},
{
name = _corner.serif;
options = 1;
origin = (1,0);
scale = (-0.75,1);
type = Corner;
},
{
name = _corner.serif;
options = 1;
origin = (0,8);
scale = (-0.7,1);
type = Corner;
},
{
name = _corner.mitre;
origin = (0,7);
type = Corner;
}
);
layerId = m01;
shapes = (
{
closed = 1;
nodes = (
(324,-11,o),
(395,41,o),
(481,119,c),
(457,140,l),
(284,7,o),
(187,74,o),
(191,200,cs),
(201,510,l),
(116,495,l),
(101,170,ls),
(97,86,o),
(146,-11,o),
(249,-11,cs)
);
},
{
closed = 1;
nodes = (
(511,10,l),
(521,500,l),
(511,508,l),
(436,495,l),
(426,-15,l)
);
}
);
userData = {
com.schriftgestaltung.Glyphs.layer.corners = (
{
name = _corner.serif;
options = 1;
origin = _corner00;
scale = "{-0.9, 1}";
type = Corner;
},
{
name = _corner.mitre;
origin = _corner01;
type = Corner;
},
{
name = _corner.serif;
options = 1;
origin = _corner02;
scale = "{-0.75, 1}";
type = Corner;
},
{
name = _corner.serif;
options = 1;
origin = _corner03;
scale = "{-0.7, 1}";
type = Corner;
},
{
name = _corner.mitre;
origin = _corner04;
type = Corner;
}
);
};
width = 632;
},
{
anchors = (
{
name = bottom;
pos = (329,0);
},
{
name = ogonek;
pos = (592,10);
},
{
name = top;
pos = (329,500);
},
{
name = topright;
pos = (638,500);
}
);
background = {
shapes = (
{
closed = 1;
nodes = (
(424,485,l,{
name = _corner06;
}),
(424,-15,l,{
name = _corner07;
}),
(454,-5,o),
(509,20,o),
(549,30,c,{
name = _corner08;
}),
(549,510,l,{
name = _corner09;
})
);
},
{
closed = 1;
nodes = (
(119,485,l,{
name = _corner10;
}),
(110,170,ls),
(107,76,o),
(154,-11,o),
(247,-11,cs),
(322,-11,o),
(393,41,o),
(479,119,c),
(455,160,l),
(282,57,o),
(237,114,o),
(239,220,cs),
(244,510,l,{
name = _corner11;
})
);
}
);
};
hints = (
{
name = _corner.serif;
options = 1;
origin = (1,3);
scale = (-0.8,1);
type = Corner;
},
{
name = _corner.mitre;
origin = (1,4);
type = Corner;
},
{
name = _corner.serif;
options = 1;
origin = (0,8);
scale = (-0.7,1);
type = Corner;
},
{
name = _corner.serif;
options = 1;
origin = (1,0);
scale = (-0.7,1);
type = Corner;
},
{
name = _corner.mitre;
origin = (0,7);
type = Corner;
}
);
layerId = m002;
shapes = (
{
closed = 1;
nodes = (
(326,-11,o),
(410,38,o),
(460,108,c),
(436,139,l),
(363,70,o),
(230,62,o),
(230,189,cs),
(230,504,l),
(115,489,l),
(105,159,ls),
(102,44,o),
(166,-11,o),
(255,-11,cs)
);
},
{
closed = 1;
nodes = (
(545,29,l),
(545,489,l),
(525,506,l),
(420,490,l),
(420,-16,l)
);
}
);
userData = {
com.schriftgestaltung.Glyphs.layer.corners = (
{
name = _corner.serif;
options = 1;
origin = _corner00;
scale = "{-0.8, 1}";
type = Corner;
},
{
name = _corner.mitre;
origin = _corner01;
type = Corner;
},
{
name = _corner.serif;
options = 1;
origin = _corner02;
scale = "{-0.7, 1}";
type = Corner;
},
{
name = _corner.serif;
options = 1;
origin = _corner03;
scale = "{-0.7, 1}";
type = Corner;
},
{
name = _corner.mitre;
origin = _corner04;
type = Corner;
}
);
};
width = 658;
}
);
unicode = 117;
}
{
glyphname = v;
layers = (
{
anchors = (
{
name = bottom;
pos = (281,0);
},
{
name = top;
pos = (281,500);
}
);
hints = (
{
name = _corner.serif;
options = 1;
origin = (0,2);
scale = (0.6,-1);
type = Corner;
},
{
name = _corner.serif;
origin = (0,4);
scale = (0.5,1);
type = Corner;
},
{
name = _corner.serif;
options = 1;
origin = (0,5);
scale = (0.5,-1);
type = Corner;
},
{
name = _corner.serif;
origin = (0,1);
scale = (0.5,1);
type = Corner;
},
{
name = _corner.mitre;
origin = (0,6);
scale = (0.5,0.5);
type = Corner;
}
);
layerId = m01;
shapes = (
{
closed = 1;
nodes = (
(355,106,l),
(510,490,l),
(425,490,l),
(303,94,l),
(157,490,l),
(57,490,l),
(245,-10,l),
(315,0,l)
);
}
);
userData = {
com.schriftgestaltung.Glyphs.layer.corners = (
{
name = _corner.serif;
options = 1;
origin = _corner00;
scale = "{0.6, -1}";
type = Corner;
},
{
name = _corner.serif;
origin = _corner01;
scale = "{0.5, 1}";
type = Corner;
},
{
name = _corner.serif;
options = 1;
origin = _corner02;
scale = "{0.5, -1}";
type = Corner;
},
{
name = _corner.serif;
origin = _corner03;
scale = "{0.5, 1}";
type = Corner;
},
{
name = _corner.mitre;
origin = _corner04;
scale = "{0.5, 0.5}";
type = Corner;
}
);
};
width = 561;
},
{
anchors = (
{
name = bottom;
pos = (281,0);
},
{
name = top;
pos = (281,500);
}
);
background = {
shapes = (
{
closed = 1;
nodes = (
(425,490,l,{
name = _corner00;
}),
(303,84,l),
(157,490,l,{
name = _corner01;
}),
(57,490,l,{
name = _corner02;
}),
(245,-20,l,{
name = _corner03;
}),
(315,-10,l),
(510,490,l,{
name = _corner04;
})
);
}
);
};
hints = (
{
name = _corner.serif;
options = 1;
origin = (0,2);
scale = (0.6,-1);
type = Corner;
},
{
name = _corner.serif;
origin = (0,4);
scale = (0.5,1);
type = Corner;
},
{
name = _corner.serif;
options = 1;
origin = (0,5);
scale = (0.5,-1);
type = Corner;
},
{
name = _corner.serif;
origin = (0,1);
scale = (0.5,1);
type = Corner;
},
{
name = _corner.mitre;
origin = (0,6);
scale = (0.5,0.5);
type = Corner;
}
);
layerId = m002;
shapes = (
{
closed = 1;
nodes = (
(371,133,l),
(530,490,l),
(415,490,l),
(322,157,l),
(187,490,l),
(37,490,l),
(245,-20,l),
(335,-10,l)
);
}
);
userData = {
com.schriftgestaltung.Glyphs.layer.corners = (
{
name = _corner.serif;
options = 1;
origin = _corner00;
scale = "{0.6, -1}";
type = Corner;
},
{
name = _corner.serif;
origin = _corner01;
scale = "{0.5, 1}";
type = Corner;
},
{
name = _corner.serif;
options = 1;
origin = _corner02;
scale = "{0.5, -1}";
type = Corner;
},
{
name = _corner.serif;
origin = _corner03;
scale = "{0.5, 1}";
type = Corner;
},
{
name = _corner.mitre;
origin = _corner04;
scale = "{0.5, 0.5}";
type = Corner;
}
);
};
width = 561;
}
);
unicode = 118;
}
{
glyphname = w;
layers = (
{
anchors = (
{
name = bottom;
pos = (431,0);
},
{
name = top;
pos = (441,490);
}
);
background = {
shapes = (
{
closed = 1;
nodes = (
(343,87,l),
(495,490,l),
(420,490,l,{
name = _corner00;
}),
(293,84,l),
(152,490,l,{
name = _corner01;
}),
(52,490,l,{
name = _corner02;
}),
(240,-10,l,{
name = _corner03;
}),
(310,0,l)
);
},
{
closed = 1;
nodes = (
(665,97,l),
(805,490,l,{
name = _corner04;
}),
(720,490,l,{
name = _corner05;
}),
(613,89,l),
(462,490,l,{
name = _corner06;
}),
(435,490,l),
(402,410,l),
(560,-10,l,{
name = _corner07;
}),
(630,0,l)
);
}
);
};
hints = (
{
name = _corner.serif;
options = 1;
origin = (0,5);
scale = (-0.5,1);
type = Corner;
},
{
name = _corner.serif;
options = 1;
origin = (0,2);
scale = (-0.6,1);
type = Corner;
},
{
name = _corner.serif;
options = 1;
origin = (1,2);
scale = (-0.6,1);
type = Corner;
},
{
name = _corner.serif;
origin = (0,4);
scale = (0.5,1);
type = Corner;
},
{
name = _corner.serif;
origin = (1,1);
scale = (0.5,1);
type = Corner;
},
{
name = _corner.serif;
origin = (1,4);
scale = (0.5,1);
type = Corner;
},
{
name = _corner.mitre;
origin = (0,6);
type = Corner;
},
{
name = _corner.mitre;
origin = (1,7);
type = Corner;
}
);
layerId = m01;
shapes = (
{
closed = 1;
nodes = (
(343,87,l),
(495,490,l),
(420,490,l),
(293,84,l),
(152,490,l),
(52,490,l),
(240,-10,l),
(310,0,l)
);
},
{
closed = 1;
nodes = (
(665,97,l),
(805,490,l),
(720,490,l),
(613,89,l),
(462,490,l),
(435,490,l),
(402,410,l),
(560,-10,l),
(630,0,l)
);
}
);
userData = {
com.schriftgestaltung.Glyphs.layer.corners = (
{
name = _corner.serif;
options = 1;
origin = _corner00;
scale = "{-0.5, 1}";
type = Corner;
},
{
name = _corner.serif;
options = 1;
origin = _corner01;
scale = "{-0.6, 1}";
type = Corner;
},
{
name = _corner.serif;
options = 1;
origin = _corner02;
scale = "{-0.6, 1}";
type = Corner;
},
{
name = _corner.serif;
origin = _corner03;
scale = "{0.5, 1}";
type = Corner;
},
{
name = _corner.serif;
origin = _corner04;
scale = "{0.5, 1}";
type = Corner;
},
{
name = _corner.serif;
origin = _corner05;
scale = "{0.5, 1}";
type = Corner;
},
{
name = _corner.mitre;
origin = _corner06;
type = Corner;
},
{
name = _corner.mitre;
origin = _corner07;
type = Corner;
}
);
};
width = 861;
},
{
anchors = (
{
name = bottom;
pos = (430,0);
},
{
name = top;
pos = (430,500);
}
);
background = {
shapes = (
{
closed = 1;
nodes = (
(532,490,l,{
name = _corner00;
}),
(405,84,l),
(264,490,l,{
name = _corner01;
}),
(164,490,l,{
name = _corner02;
}),
(352,-10,l,{
name = _corner03;
}),
(422,0,l),
(607,490,l)
);
},
{
closed = 1;
nodes = (
(832,490,l,{
name = _corner04;
}),
(725,89,l),
(574,490,l,{
name = _corner05;
}),
(547,490,l),
(514,410,l),
(672,-10,l,{
name = _corner06;
}),
(742,0,l),
(917,490,l,{
name = _corner07;
})
);
}
);
};
hints = (
{
name = _corner.serif;
options = 1;
origin = (0,5);
scale = (-0.5,1);
type = Corner;
},
{
name = _corner.serif;
options = 1;
origin = (0,2);
scale = (-0.6,1);
type = Corner;
},
{
name = _corner.serif;
options = 1;
origin = (1,2);
scale = (-0.6,1);
type = Corner;
},
{
name = _corner.serif;
origin = (1,4);
scale = (0.5,1);
type = Corner;
},
{
name = _corner.serif;
origin = (0,4);
scale = (0.5,1);
type = Corner;
},
{
name = _corner.serif;
origin = (1,1);
scale = (0.4,1);
type = Corner;
},
{
name = _corner.mitre;
origin = (0,6);
scale = (0.5,0.5);
type = Corner;
},
{
name = _corner.mitre;
origin = (1,7);
scale = (0.5,0.5);
type = Corner;
}
);
layerId = m002;
shapes = (
{
closed = 1;
nodes = (
(373,133,l),
(537,490,l),
(422,490,l),
(324,157,l),
(189,490,l),
(39,490,l),
(247,-20,l),
(337,-10,l)
);
},
{
closed = 1;
nodes = (
(673,133,l),
(832,490,l),
(717,490,l),
(624,157,l),
(494,490,l),
(444,490,l),
(393,374,l),
(547,-20,l),
(637,-10,l)
);
}
);
userData = {
com.schriftgestaltung.Glyphs.layer.corners = (
{
name = _corner.serif;
options = 1;
origin = _corner00;
scale = "{-0.5, 1}";
type = Corner;
},
{
name = _corner.serif;
options = 1;
origin = _corner01;
scale = "{-0.6, 1}";
type = Corner;
},
{
name = _corner.serif;
options = 1;
origin = _corner02;
scale = "{-0.6, 1}";
type = Corner;
},
{
name = _corner.serif;
origin = _corner03;
scale = "{0.5, 1}";
type = Corner;
},
{
name = _corner.serif;
origin = _corner04;
scale = "{0.5, 1}";
type = Corner;
},
{
name = _corner.serif;
origin = _corner05;
scale = "{0.4, 1}";
type = Corner;
},
{
name = _corner.mitre;
origin = _corner06;
scale = "{0.5, 0.5}";
type = Corner;
},
{
name = _corner.mitre;
origin = _corner07;
scale = "{0.5, 0.5}";
type = Corner;
}
);
};
width = 859;
}
);
unicode = 119;
}
{
glyphname = x;
layers = (
{
anchors = (
{
name = bottom;
pos = (270,0);
},
{
name = top;
pos = (270,500);
}
);
background = {
shapes = (
{
closed = 1;
nodes = (
(113,0,l,{
name = _corner00;
}),
(252,189,l),
(381,0,l,{
name = _corner01;
}),
(491,0,l,{
name = _corner02;
}),
(309,252,l),
(511,490,l,{
name = _corner03;
}),
(426,490,l,{
name = _corner04;
}),
(281,296,l),
(158,490,l,{
name = _corner05;
}),
(48,490,l,{
name = _corner06;
}),
(223,231,l),
(28,0,l,{
name = _corner07;
})
);
}
);
};
guides = (
{
pos = (418,245);
}
);
hints = (
{
name = _corner.serif;
options = 1;
origin = (0,3);
scale = (0.5,-1);
type = Corner;
},
{
name = _corner.serif;
origin = (0,5);
scale = (0.5,1);
type = Corner;
},
{
name = _corner.serif;
options = 1;
origin = (0,6);
scale = (0.6,-1);
type = Corner;
},
{
name = _corner.serif;
origin = (0,11);
scale = (0.5,1);
type = Corner;
},
{
name = _corner.serif;
options = 1;
origin = (0,0);
scale = (0.6,-1);
type = Corner;
},
{
name = _corner.serif;
options = 1;
origin = (0,9);
scale = (0.6,-1);
type = Corner;
},
{
name = _corner.serif;
origin = (0,2);
scale = (0.5,1);
type = Corner;
},
{
name = _corner.serif;
origin = (0,8);
scale = (0.5,1);
type = Corner;
}
);
layerId = m01;
shapes = (
{
closed = 1;
nodes = (
(426,490,l),
(282,298,l),
(151,490,l),
(48,490,l),
(226,234,l),
(28,0,l),
(113,0,l),
(255,191,l),
(386,0,l),
(489,0,l),
(310,255,l),
(511,490,l)
);
}
);
userData = {
com.schriftgestaltung.Glyphs.layer.corners = (
{
name = _corner.serif;
options = 1;
origin = _corner00;
scale = "{0.5, -1}";
type = Corner;
},
{
name = _corner.serif;
origin = _corner01;
scale = "{0.5, 1}";
type = Corner;
},
{
name = _corner.serif;
options = 1;
origin = _corner02;
scale = "{0.6, -1}";
type = Corner;
},
{
name = _corner.serif;
origin = _corner03;
scale = "{0.5, 1}";
type = Corner;
},
{
name = _corner.serif;
options = 1;
origin = _corner04;
scale = "{0.6, -1}";
type = Corner;
},
{
name = _corner.serif;
options = 1;
origin = _corner05;
scale = "{0.6, -1}";
type = Corner;
},
{
name = _corner.serif;
origin = _corner06;
scale = "{0.5, 1}";
type = Corner;
},
{
name = _corner.serif;
origin = _corner07;
scale = "{0.5, 1}";
type = Corner;
}
);
};
width = 539;
},
{
anchors = (
{
name = bottom;
pos = (273,0);
},
{
name = top;
pos = (273,500);
}
);
background = {
shapes = (
{
closed = 1;
nodes = (
(130,0,l,{
name = _corner00;
}),
(269,189,l),
(398,0,l,{
name = _corner01;
}),
(508,0,l,{
name = _corner02;
}),
(326,252,l),
(528,490,l,{
name = _corner03;
}),
(443,490,l,{
name = _corner04;
}),
(298,296,l),
(175,490,l,{
name = _corner05;
}),
(65,490,l,{
name = _corner06;
}),
(240,231,l),
(45,0,l,{
name = _corner07;
})
);
}
);
};
guides = (
{
pos = (435,245);
}
);
hints = (
{
name = _corner.serif;
options = 1;
origin = (0,3);
scale = (0.5,-1);
type = Corner;
},
{
name = _corner.serif;
origin = (0,5);
scale = (0.5,1);
type = Corner;
},
{
name = _corner.serif;
options = 1;
origin = (0,6);
scale = (0.6,-1);
type = Corner;
},
{
name = _corner.serif;
origin = (0,11);
scale = (0.5,1);
type = Corner;
},
{
name = _corner.serif;
options = 1;
origin = (0,0);
scale = (0.6,-1);
type = Corner;
},
{
name = _corner.serif;
options = 1;
origin = (0,9);
scale = (0.6,-1);
type = Corner;
},
{
name = _corner.serif;
origin = (0,2);
scale = (0.5,1);
type = Corner;
},
{
name = _corner.serif;
origin = (0,8);
scale = (0.5,1);
type = Corner;
}
);
layerId = m002;
shapes = (
{
closed = 1;
nodes = (
(423,490,l),
(299,308,l),
(188,490,l),
(35,490,l),
(213,234,l),
(5,0,l),
(120,0,l),
(252,181,l),
(353,0,l),
(506,0,l),
(337,255,l),
(538,490,l)
);
}
);
userData = {
com.schriftgestaltung.Glyphs.layer.corners = (
{
name = _corner.serif;
options = 1;
origin = _corner00;
scale = "{0.5, -1}";
type = Corner;
},
{
name = _corner.serif;
origin = _corner01;
scale = "{0.5, 1}";
type = Corner;
},
{
name = _corner.serif;
options = 1;
origin = _corner02;
scale = "{0.6, -1}";
type = Corner;
},
{
name = _corner.serif;
origin = _corner03;
scale = "{0.5, 1}";
type = Corner;
},
{
name = _corner.serif;
options = 1;
origin = _corner04;
scale = "{0.6, -1}";
type = Corner;
},
{
name = _corner.serif;
options = 1;
origin = _corner05;
scale = "{0.6, -1}";
type = Corner;
},
{
name = _corner.serif;
origin = _corner06;
scale = "{0.5, 1}";
type = Corner;
},
{
name = _corner.serif;
origin = _corner07;
scale = "{0.5, 1}";
type = Corner;
}
);
};
width = 545;
}
);
unicode = 120;
}
{
glyphname = y;
layers = (
{
anchors = (
{
name = bottom;
pos = (273,0);
},
{
name = top;
pos = (273,470);
}
);
hints = (
{
name = _corner.serif;
options = 1;
origin = (0,3);
scale = (0.6,-1);
type = Corner;
},
{
name = _corner.serif;
origin = (0,5);
scale = (0.5,1);
type = Corner;
},
{
name = _corner.serif;
options = 1;
origin = (0,6);
scale = (0.5,-1);
type = Corner;
},
{
name = _corner.serif;
origin = (0,2);
scale = (0.5,1);
type = Corner;
}
);
layerId = m01;
shapes = (
{
closed = 1;
nodes = (
(314,25,l),
(332,70,l),
(495,490,l),
(410,490,l),
(288,94,l),
(142,490,l),
(42,490,l),
(264,-83,l)
);
},
{
closed = 1;
nodes = (
(332,70,l),
(261,11,l),
(98,-233,ls),
(80,-261,o),
(204,-285,o),
(213,-260,cs)
);
}
);
userData = {
com.schriftgestaltung.Glyphs.layer.corners = (
{
name = _corner.serif;
options = 1;
origin = _corner00;
scale = "{0.6, -1}";
type = Corner;
},
{
name = _corner.serif;
origin = _corner01;
scale = "{0.5, 1}";
type = Corner;
},
{
name = _corner.serif;
options = 1;
origin = _corner02;
scale = "{0.5, -1}";
type = Corner;
},
{
name = _corner.serif;
origin = _corner03;
scale = "{0.5, 1}";
type = Corner;
}
);
};
width = 546;
},
{
anchors = (
{
name = bottom;
pos = (273,0);
},
{
name = top;
pos = (273,500);
}
);
background = {
shapes = (
{
closed = 1;
nodes = (
(332,70,l),
(495,490,l,{
name = _corner00;
}),
(410,490,l,{
name = _corner01;
}),
(288,94,l),
(142,490,l,{
name = _corner02;
}),
(42,490,l,{
name = _corner03;
}),
(239,-18,l)
);
},
{
closed = 1;
nodes = (
(241,11,l),
(98,-233,ls),
(81,-262,o),
(204,-285,o),
(213,-260,cs),
(332,70,l)
);
}
);
};
hints = (
{
name = _corner.serif;
origin = (0,2);
scale = (0.5,1);
type = Corner;
},
{
name = _corner.serif;
options = 1;
origin = (0,3);
scale = (0.6,-1);
type = Corner;
},
{
name = _corner.serif;
origin = (0,5);
scale = (0.5,1);
type = Corner;
},
{
name = _corner.serif;
options = 1;
origin = (0,6);
scale = (0.5,-1);
type = Corner;
}
);
layerId = m002;
shapes = (
{
closed = 1;
nodes = (
(369,56,l),
(355,98,l),
(530,490,l),
(405,490,l),
(322,157,l),
(187,490,l),
(37,490,l),
(289,-78,l)
);
},
{
closed = 1;
nodes = (
(342,70,l),
(251,21,l),
(128,-233,ls),
(114,-262,o),
(246,-285,o),
(253,-260,cs)
);
}
);
userData = {
com.schriftgestaltung.Glyphs.layer.corners = (
{
name = _corner.serif;
origin = _corner00;
scale = "{0.5, 1}";
type = Corner;
},
{
name = _corner.serif;
options = 1;
origin = _corner01;
scale = "{0.6, -1}";
type = Corner;
},
{
name = _corner.serif;
origin = _corner02;
scale = "{0.5, 1}";
type = Corner;
},
{
name = _corner.serif;
options = 1;
origin = _corner03;
scale = "{0.5, -1}";
type = Corner;
}
);
};
width = 546;
}
);
unicode = 121;
}
{
glyphname = bar;
layers = (
{
hints = (
{
name = _segment.bulge;
origin = (0,0);
type = Segment;
},
{
name = _segment.bulge;
origin = (0,2);
type = Segment;
}
);
layerId = m01;
shapes = (
{
closed = 1;
nodes = (
(100,760,l),
(100,-250,l),
(160,-250,l),
(160,760,l)
);
}
);
userData = {
com.schriftgestaltung.Glyphs.layer.corners = (
{
name = _segment.bulge;
origin = _corner00;
type = Segment;
},
{
name = _segment.bulge;
origin = _corner01;
type = Segment;
}
);
};
width = 260;
},
{
hints = (
{
name = _segment.bulge;
origin = (0,0);
type = Segment;
},
{
name = _segment.bulge;
origin = (0,2);
type = Segment;
}
);
layerId = m002;
shapes = (
{
closed = 1;
nodes = (
(100,760,l),
(100,-250,l),
(180,-250,l),
(180,760,l)
);
}
);
userData = {
com.schriftgestaltung.Glyphs.layer.corners = (
{
name = _segment.bulge;
origin = _corner00;
type = Segment;
},
{
name = _segment.bulge;
origin = _corner01;
type = Segment;
}
);
};
width = 280;
}
);
unicode = 124;
}
{
glyphname = section;
layers = (
{
layerId = m01;
shapes = (
{
closed = 1;
nodes = (
(310,231,o),
(412,276,o),
(412,377,cs),
(412,455,o),
(367,488,o),
(274,537,cs),
(182,585,o),
(136,605,o),
(136,652,cs),
(136,691,o),
(170,714,o),
(206,714,cs),
(247,714,o),
(296,686,o),
(325,620,cs),
(328,610,o),
(367,616,o),
(365,627,cs),
(347,750,l),
(319,760,o),
(278,770,o),
(235,770,cs),
(143,770,o),
(51,718,o),
(51,618,cs),
(51,553,o),
(102,535,o),
(145,509,cs),
(273,432,o),
(321,420,o),
(321,365,cs),
(321,324,o),
(284,284,o),
(239,284,c),
(228,231,l)
);
},
{
closed = 1;
nodes = (
(280,-9,o),
(382,36,o),
(382,137,cs),
(382,215,o),
(328,239,o),
(274,267,cs),
(150,331,o),
(106,365,o),
(106,412,cs),
(106,451,o),
(140,494,o),
(176,494,c),
(205,550,l),
(113,550,o),
(21,488,o),
(21,388,cs),
(21,323,o),
(73,283,o),
(145,239,cs),
(236,184,o),
(291,170,o),
(291,115,cs),
(291,74,o),
(254,44,o),
(209,44,cs),
(165,44,o),
(112,72,o),
(77,148,cs),
(72,157,o),
(38,149,o),
(40,135,cs),
(59,15,l),
(100,0,o),
(145,-9,o),
(189,-9,cs)
);
}
);
width = 600;
},
{
background = {
shapes = (
{
closed = 1;
nodes = (
(383,-9,o),
(472,66,o),
(472,157,cs),
(472,245,o),
(425,283,o),
(343,320,cs),
(257,360,o),
(216,379,o),
(216,422,cs),
(216,449,o),
(235,479,o),
(262,489,c),
(296,559,l),
(195,549,o),
(91,501,o),
(91,388,cs),
(91,306,o),
(156,258,o),
(240,221,cs),
(326,183,o),
(344,149,o),
(339,115,cs),
(329,55,o),
(229,24,o),
(170,154,cs),
(163,168,o),
(108,159,o),
(112,135,cs),
(129,25,l),
(177,1,o),
(224,-9,o),
(267,-9,cs)
);
},
{
closed = 1;
nodes = (
(357,234,l),
(472,234,o),
(560,304,o),
(560,380,cs),
(560,473,o),
(504,512,o),
(447,539,cs),
(339,590,o),
(296,609,o),
(296,652,cs),
(296,679,o),
(315,699,o),
(342,699,cs),
(381,699,o),
(414,677,o),
(448,619,cs),
(458,602,o),
(507,616,o),
(504,637,cs),
(487,750,l),
(452,762,o),
(414,769,o),
(376,769,cs),
(275,769,o),
(171,721,o),
(171,608,cs),
(171,526,o),
(238,488,o),
(364,431,cs),
(402,414,o),
(430,393,o),
(425,358,cs),
(421,329,o),
(395,306,o),
(363,306,c)
);
}
);
};
layerId = m002;
shapes = (
{
closed = 1;
nodes = (
(472,219,o),
(560,289,o),
(560,375,cs),
(560,468,o),
(504,512,o),
(447,539,cs),
(339,590,o),
(296,609,o),
(296,652,cs),
(296,679,o),
(315,699,o),
(342,699,cs),
(381,699,o),
(414,677,o),
(448,619,cs),
(458,602,o),
(507,616,o),
(504,637,cs),
(487,750,l),
(452,762,o),
(414,769,o),
(376,769,cs),
(275,769,o),
(171,731,o),
(171,618,cs),
(171,536,o),
(238,498,o),
(364,441,cs),
(402,424,o),
(430,388,o),
(425,353,cs),
(421,324,o),
(395,291,o),
(363,291,c),
(357,219,l)
);
},
{
closed = 1;
nodes = (
(396,-11,o),
(500,27,o),
(500,130,cs),
(500,222,o),
(433,260,o),
(307,317,cs),
(269,334,o),
(241,370,o),
(246,405,cs),
(250,434,o),
(276,467,o),
(308,467,c),
(314,539,l),
(199,539,o),
(111,459,o),
(111,383,cs),
(111,290,o),
(167,246,o),
(224,219,cs),
(332,168,o),
(375,149,o),
(375,106,cs),
(375,79,o),
(356,59,o),
(329,59,cs),
(290,59,o),
(257,81,o),
(223,139,cs),
(213,156,o),
(164,142,o),
(167,121,cs),
(184,8,l),
(219,-4,o),
(257,-11,o),
(295,-11,cs)
);
}
);
width = 600;
}
);
unicode = 167;
}
{
glyphname = degree;
layers = (
{
layerId = m01;
shapes = (
{
closed = 1;
nodes = (
(267,510,o),
(337,570,o),
(340,660,cs),
(343,750,o),
(278,810,o),
(195,810,cs),
(113,810,o),
(43,750,o),
(40,660,cs),
(37,570,o),
(102,510,o),
(185,510,cs)
);
},
{
closed = 1;
nodes = (
(148,566,o),
(106,601,o),
(100,660,cs),
(94,719,o),
(129,754,o),
(180,754,cs),
(232,754,o),
(274,719,o),
(280,660,cs),
(286,601,o),
(251,566,o),
(200,566,cs)
);
}
);
width = 380;
},
{
layerId = m002;
shapes = (
{
closed = 1;
nodes = (
(267,510,o),
(337,570,o),
(340,660,cs),
(343,750,o),
(278,810,o),
(195,810,cs),
(113,810,o),
(43,750,o),
(40,660,cs),
(37,570,o),
(102,510,o),
(185,510,cs)
);
},
{
closed = 1;
nodes = (
(157,585,o),
(123,613,o),
(118,660,cs),
(113,707,o),
(141,735,o),
(181,735,cs),
(223,735,o),
(257,707,o),
(262,660,cs),
(267,613,o),
(239,585,o),
(199,585,cs)
);
}
);
width = 380;
}
);
unicode = 176;
}
{
glyphname = AE;
layers = (
{
anchors = (
{
name = bottom;
pos = (522,0);
},
{
name = top;
pos = (522,760);
}
);
background = {
shapes = (
{
closed = 1;
nodes = (
(302,760,l),
(242,750,l),
(-73,0,l,{
name = _corner00;
}),
(12,0,l,{
name = _corner01;
})
);
},
{
closed = 1;
nodes = (
(77,265,l),
(467,265,l),
(467,320,l),
(77,320,l)
);
},
{
closed = 1;
nodes = (
(857,-1,l,{
name = _corner02;
}),
(893,179,l),
(860,193,l),
(793,83,o),
(779,55,o),
(637,55,cs),
(510,55,o),
(492,60,o),
(492,119,cs),
(492,365,l),
(626,365,l),
(691,365,o),
(688,359,o),
(723,296,c),
(727,289,o),
(752,293,o),
(752,302,c),
(752,358,o),
(751,372,o),
(751,393,cs),
(751,413,o),
(752,427,o),
(752,483,c),
(752,492,o),
(727,496,o),
(723,489,c),
(688,426,o),
(691,420,o),
(626,420,c),
(492,420,l),
(492,640,ls),
(492,699,o),
(510,704,o),
(637,704,cs),
(759,704,o),
(763,686,o),
(830,576,c),
(863,590,l),
(837,770,l,{
name = _corner03;
}),
(687,760,l),
(392,760,l,{
name = _corner04;
}),
(392,-1,l,{
name = _corner05;
})
);
}
);
};
hints = (
{
name = _corner.serif;
origin = (0,43);
scale = (0.6,1.1);
type = Corner;
},
{
name = _corner.serif;
options = 1;
origin = (0,44);
scale = (0.9,-1.1);
type = Corner;
},
{
name = _corner.mitre;
options = 1;
origin = (0,2);
scale = (1,-1);
type = Corner;
},
{
name = _segment.bulge;
origin = (0,4);
type = Segment;
},
{
name = _segment.bulge;
origin = (0,39);
type = Segment;
},
{
name = _corner.mitre;
origin = (0,40);
type = Corner;
},
{
name = _corner.serif;
options = 1;
origin = (0,1);
scale = (0.8,1.1);
type = Corner;
},
{
name = _corner.mitre;
options = 2;
origin = (0,0);
type = Corner;
},
{
name = _corner.serif;
options = 1;
origin = (0,42);
scale = (-0.8,1);
type = Corner;
}
);
layerId = m01;
shapes = (
{
closed = 1;
nodes = (
(511,692,l),
(511,-1,l),
(976,-1,l),
(1012,179,l),
(979,193,l),
(912,83,o),
(898,55,o),
(756,55,cs),
(629,55,o),
(611,60,o),
(611,119,cs),
(611,345,l),
(745,345,ls),
(810,345,o),
(807,339,o),
(842,276,cs),
(846,269,o),
(871,273,o),
(871,282,cs),
(871,338,o),
(870,352,o),
(870,373,cs),
(870,393,o),
(871,407,o),
(871,463,cs),
(871,472,o),
(846,476,o),
(842,469,cs),
(807,406,o),
(810,400,o),
(745,400,cs),
(611,400,l),
(611,640,ls),
(611,699,o),
(629,704,o),
(756,704,cs),
(878,704,o),
(882,686,o),
(949,576,c),
(982,590,l),
(956,770,l),
(806,760,l),
(481,760,l),
(16,0,l),
(101,0,l)
);
},
{
closed = 1;
nodes = (
(296,340,l),
(576,345,l),
(576,400,l),
(306,405,l)
);
}
);
userData = {
com.schriftgestaltung.Glyphs.layer.corners = (
{
name = _corner.serif;
origin = _corner00;
scale = "{0.6, 1.1}";
type = Corner;
},
{
name = _corner.serif;
options = 1;
origin = _corner01;
scale = "{0.9, -1.1}";
type = Corner;
},
{
name = _corner.mitre;
options = 1;
origin = _corner02;
scale = "{1, -1}";
type = Corner;
},
{
name = _segment.bulge;
origin = _corner03;
type = Segment;
},
{
name = _segment.bulge;
origin = _corner04;
type = Segment;
},
{
name = _corner.mitre;
origin = _corner05;
type = Corner;
},
{
name = _corner.serif;
options = 1;
origin = _corner06;
scale = "{0.8, 1.1}";
type = Corner;
},
{
name = _corner.mitre;
options = 2;
origin = _corner07;
type = Corner;
},
{
name = _corner.serif;
options = 1;
origin = _corner08;
scale = "{-0.8, 1}";
type = Corner;
}
);
};
width = 1113;
},
{
anchors = (
{
name = bottom;
pos = (534,0);
},
{
name = top;
pos = (534,760);
}
);
hints = (
{
name = _corner.serif;
origin = (0,43);
scale = (0.6,1.1);
type = Corner;
},
{
name = _corner.serif;
options = 1;
origin = (0,44);
scale = (0.9,-1.1);
type = Corner;
},
{
name = _corner.mitre;
options = 1;
origin = (0,2);
scale = (1,-1);
type = Corner;
},
{
name = _segment.bulge;
origin = (0,4);
type = Segment;
},
{
name = _segment.bulge;
origin = (0,39);
type = Segment;
},
{
name = _corner.mitre;
origin = (0,40);
type = Corner;
},
{
name = _corner.serif;
options = 1;
origin = (0,1);
scale = (0.8,1.1);
type = Corner;
},
{
name = _corner.serif;
options = 1;
origin = (0,42);
scale = (-1,1);
type = Corner;
},
{
name = _corner.mitre;
options = 2;
origin = (0,0);
scale = (0.2,0.2);
type = Corner;
}
);
layerId = m002;
shapes = (
{
closed = 1;
nodes = (
(506,629,l),
(486,-1,l),
(991,-1,l),
(1037,189,l),
(979,213,l),
(922,103,o),
(843,75,o),
(761,75,cs),
(634,75,o),
(636,85,o),
(636,144,cs),
(636,355,l),
(740,355,ls),
(805,355,o),
(817,342,o),
(846,271,cs),
(851,258,o),
(898,271,o),
(896,283,cs),
(891,316,o),
(890,344,o),
(890,390,cs),
(890,436,o),
(891,464,o),
(896,497,cs),
(898,509,o),
(850,518,o),
(846,509,cs),
(817,438,o),
(805,425,o),
(740,425,cs),
(636,425,l),
(636,615,ls),
(636,674,o),
(634,684,o),
(761,684,cs),
(833,684,o),
(892,676,o),
(949,566,c),
(1007,580,l),
(981,770,l),
(831,760,l),
(486,760,l),
(11,0,l),
(116,0,l)
);
},
{
closed = 1;
nodes = (
(241,245,l),
(621,355,l),
(621,420,l),
(241,320,l)
);
}
);
userData = {
com.schriftgestaltung.Glyphs.layer.corners = (
{
name = _corner.serif;
origin = _corner00;
scale = "{0.6, 1.1}";
type = Corner;
},
{
name = _corner.serif;
options = 1;
origin = _corner01;
scale = "{0.9, -1.1}";
type = Corner;
},
{
name = _corner.mitre;
options = 1;
origin = _corner02;
scale = "{1, -1}";
type = Corner;
},
{
name = _segment.bulge;
origin = _corner03;
type = Segment;
},
{
name = _segment.bulge;
origin = _corner04;
type = Segment;
},
{
name = _corner.mitre;
origin = _corner05;
type = Corner;
},
{
name = _corner.serif;
options = 1;
origin = _corner06;
scale = "{0.8, 1.1}";
type = Corner;
},
{
name = _corner.serif;
options = 1;
origin = _corner07;
scale = "{-1, 1}";
type = Corner;
},
{
name = _corner.mitre;
options = 2;
origin = _corner08;
scale = "{0.2, 0.2}";
type = Corner;
}
);
};
width = 1067;
}
);
metricLeft = "=A";
metricRight = "=E";
unicode = 198;
}
{
glyphname = multiply;
layers = (
{
hints = (
{
name = _segment.bulge;
origin = (0,0);
type = Segment;
},
{
name = _segment.bulge;
origin = (0,6);
type = Segment;
},
{
name = _segment.bulge;
origin = (0,3);
type = Segment;
},
{
name = _segment.bulge;
origin = (0,9);
type = Segment;
}
);
layerId = m01;
shapes = (
{
closed = 1;
nodes = (
(378,432,l),
(233,305,l),
(88,432,l),
(52,396,l),
(180,252,l),
(53,107,l),
(89,71,l),
(233,199,l),
(377,71,l),
(414,107,l),
(286,252,l),
(414,396,l)
);
}
);
userData = {
com.schriftgestaltung.Glyphs.layer.corners = (
{
name = _segment.bulge;
origin = _corner00;
type = Segment;
},
{
name = _segment.bulge;
origin = _corner01;
type = Segment;
},
{
name = _segment.bulge;
origin = _corner02;
type = Segment;
},
{
name = _segment.bulge;
origin = _corner03;
type = Segment;
}
);
};
width = 466;
},
{
hints = (
{
name = _segment.bulge;
origin = (0,0);
type = Segment;
},
{
name = _segment.bulge;
origin = (0,6);
type = Segment;
},
{
name = _segment.bulge;
origin = (0,3);
type = Segment;
},
{
name = _segment.bulge;
origin = (0,9);
type = Segment;
}
);
layerId = m002;
shapes = (
{
closed = 1;
nodes = (
(424,430,l),
(311,327,l),
(198,430,l),
(141,373,l),
(244,260,l),
(141,147,l),
(198,90,l),
(311,193,l),
(424,90,l),
(481,147,l),
(378,260,l),
(481,373,l)
);
}
);
userData = {
com.schriftgestaltung.Glyphs.layer.corners = (
{
name = _segment.bulge;
origin = _corner00;
type = Segment;
},
{
name = _segment.bulge;
origin = _corner01;
type = Segment;
},
{
name = _segment.bulge;
origin = _corner02;
type = Segment;
},
{
name = _segment.bulge;
origin = _corner03;
type = Segment;
}
);
};
width = 600;
}
);
unicode = 215;
}
{
glyphname = Oslash;
layers = (
{
hints = (
{
name = _segment.bulge;
origin = (0,1);
type = Segment;
},
{
name = _segment.bulge;
origin = (0,3);
type = Segment;
}
);
layerId = m01;
shapes = (
{
pos = (46,0);
ref = O;
},
{
closed = 1;
nodes = (
(102,-9,l),
(143,-44,l,{
name = _corner00;
}),
(870,769,l),
(829,804,l,{
name = _corner01;
})
);
}
);
userData = {
com.schriftgestaltung.Glyphs.layer.corners = (
{
name = _segment.bulge;
origin = _corner00;
type = Segment;
},
{
name = _segment.bulge;
origin = _corner01;
type = Segment;
}
);
};
width = 1006;
},
{
hints = (
{
name = _segment.bulge;
origin = (0,1);
type = Segment;
},
{
name = _segment.bulge;
origin = (0,3);
type = Segment;
}
);
layerId = m002;
shapes = (
{
ref = O;
},
{
closed = 1;
nodes = (
(46,1,l),
(107,-54,l,{
name = _corner00;
}),
(834,759,l),
(773,814,l,{
name = _corner01;
})
);
}
);
userData = {
com.schriftgestaltung.Glyphs.layer.corners = (
{
name = _segment.bulge;
origin = _corner00;
type = Segment;
},
{
name = _segment.bulge;
origin = _corner01;
type = Segment;
}
);
};
width = 880;
}
);
metricLeft = "+10";
unicode = 216;
}
{
glyphname = Thorn;
layers = (
{
anchors = (
{
name = bottom;
pos = (389,0);
},
{
name = top;
pos = (389,760);
}
);
hints = (
{
name = _corner.serif;
options = 1;
origin = (0,0);
scale = (0.8,-1.1);
type = Corner;
},
{
name = _corner.serif;
origin = (0,9);
scale = (0.8,1.1);
type = Corner;
},
{
name = _corner.serif;
options = 1;
origin = (2,1);
scale = (0.8,-1.1);
type = Corner;
},
{
name = _corner.serif;
origin = (2,0);
scale = (0.8,1.1);
type = Corner;
}
);
layerId = m01;
shapes = (
{
closed = 1;
nodes = (
(283,0,l),
(283,160,l),
(481,147,o),
(664,207,o),
(664,399,cs),
(664,510,o),
(592,620,o),
(390,620,cs),
(183,620,l),
(183,0,l)
);
},
{
closed = 1;
nodes = (
(283,555,l),
(422,580,o),
(559,533,o),
(559,380,cs),
(559,232,o),
(413,195,o),
(283,230,c)
);
},
{
closed = 1;
nodes = (
(283,760,l),
(183,760,l),
(183,600,l),
(283,600,l)
);
}
);
userData = {
com.schriftgestaltung.Glyphs.layer.corners = (
{
name = _corner.serif;
options = 1;
origin = _corner00;
scale = "{0.8, -1.1}";
type = Corner;
},
{
name = _corner.serif;
origin = _corner01;
scale = "{0.8, 1.1}";
type = Corner;
},
{
name = _corner.serif;
options = 1;
origin = _corner02;
scale = "{0.8, -1.1}";
type = Corner;
},
{
name = _corner.serif;
origin = _corner03;
scale = "{0.8, 1.1}";
type = Corner;
}
);
};
width = 764;
},
{
anchors = (
{
name = bottom;
pos = (335,0);
},
{
name = top;
pos = (335,760);
}
);
hints = (
{
name = _corner.serif;
options = 1;
origin = (0,0);
scale = (0.8,-1.1);
type = Corner;
},
{
name = _corner.serif;
origin = (0,9);
scale = (0.8,1.1);
type = Corner;
},
{
name = _corner.serif;
origin = (2,0);
scale = (0.8,1.1);
type = Corner;
},
{
name = _corner.serif;
options = 1;
origin = (2,1);
scale = (0.8,-1.1);
type = Corner;
}
);
layerId = m002;
shapes = (
{
closed = 1;
nodes = (
(259,0,l),
(259,170,l),
(447,147,o),
(640,227,o),
(640,399,cs),
(640,500,o),
(568,620,o),
(366,620,cs),
(109,620,l),
(109,0,l)
);
},
{
closed = 1;
nodes = (
(259,545,l),
(368,560,o),
(485,523,o),
(485,390,cs),
(485,252,o),
(359,225,o),
(259,250,c)
);
},
{
closed = 1;
nodes = (
(259,760,l),
(109,760,l),
(109,600,l),
(259,600,l)
);
}
);
userData = {
com.schriftgestaltung.Glyphs.layer.corners = (
{
name = _corner.serif;
options = 1;
origin = _corner00;
scale = "{0.8, -1.1}";
type = Corner;
},
{
name = _corner.serif;
origin = _corner01;
scale = "{0.8, 1.1}";
type = Corner;
},
{
name = _corner.serif;
origin = _corner02;
scale = "{0.8, 1.1}";
type = Corner;
},
{
name = _corner.serif;
options = 1;
origin = _corner03;
scale = "{0.8, -1.1}";
type = Corner;
}
);
};
width = 670;
}
);
metricLeft = "+10";
metricRight = "=P";
unicode = 222;
}
{
glyphname = divide;
layers = (
{
hints = (
{
name = _segment.bulge;
origin = (0,0);
type = Segment;
},
{
name = _segment.bulge;
origin = (0,3);
type = Segment;
}
);
layerId = m01;
shapes = (
{
closed = 1;
nodes = (
(61,225,l),
(310,230,l),
(561,225,l),
(561,295,l),
(310,290,l),
(61,295,l)
);
},
{
pos = (190,31);
ref = period;
scale = (0.8,0.8);
},
{
pos = (190,391);
ref = period;
scale = (0.8,0.8);
}
);
userData = {
com.schriftgestaltung.Glyphs.layer.corners = (
{
name = _segment.bulge;
origin = _corner00;
type = Segment;
},
{
name = _segment.bulge;
origin = _corner01;
type = Segment;
}
);
};
width = 622;
},
{
hints = (
{
name = _segment.bulge;
origin = (0,0);
type = Segment;
},
{
name = _segment.bulge;
origin = (0,3);
type = Segment;
}
);
layerId = m002;
shapes = (
{
closed = 1;
nodes = (
(61,215,l),
(311,220,l),
(561,215,l),
(561,305,l),
(311,300,l),
(61,305,l)
);
},
{
pos = (191,11);
ref = period;
scale = (0.8,0.8);
},
{
pos = (191,391);
ref = period;
scale = (0.8,0.8);
}
);
userData = {
com.schriftgestaltung.Glyphs.layer.corners = (
{
name = _segment.bulge;
origin = _corner00;
type = Segment;
},
{
name = _segment.bulge;
origin = _corner01;
type = Segment;
}
);
};
width = 622;
}
);
unicode = 247;
}
{
glyphname = oslash;
layers = (
{
hints = (
{
name = _segment.bulge;
origin = (0,1);
type = Segment;
},
{
name = _segment.bulge;
origin = (0,3);
type = Segment;
}
);
layerId = m01;
shapes = (
{
ref = o;
},
{
closed = 1;
nodes = (
(42,-29,l),
(83,-64,l,{
name = _corner00;
}),
(540,529,l),
(499,564,l,{
name = _corner01;
})
);
}
);
userData = {
com.schriftgestaltung.Glyphs.layer.corners = (
{
name = _segment.bulge;
origin = _corner00;
type = Segment;
},
{
name = _segment.bulge;
origin = _corner01;
type = Segment;
}
);
};
width = 582;
},
{
hints = (
{
name = _segment.bulge;
origin = (0,1);
type = Segment;
},
{
name = _segment.bulge;
origin = (0,3);
type = Segment;
}
);
layerId = m002;
shapes = (
{
ref = o;
},
{
closed = 1;
nodes = (
(32,-19,l),
(93,-69,l,{
name = _corner00;
}),
(550,524,l),
(489,574,l,{
name = _corner01;
})
);
}
);
userData = {
com.schriftgestaltung.Glyphs.layer.corners = (
{
name = _segment.bulge;
origin = _corner00;
type = Segment;
},
{
name = _segment.bulge;
origin = _corner01;
type = Segment;
}
);
};
width = 600;
}
);
unicode = 248;
}
{
glyphname = Hbar;
layers = (
{
hints = (
{
name = _segment.bulge;
origin = (0,0);
type = Segment;
},
{
name = _segment.bulge;
origin = (0,2);
type = Segment;
}
);
layerId = m01;
shapes = (
{
pos = (70,0);
ref = H;
},
{
closed = 1;
nodes = (
(111,520,l,{
name = _corner00;
}),
(847,520,l),
(847,570,l,{
name = _corner01;
}),
(111,570,l)
);
}
);
userData = {
com.schriftgestaltung.Glyphs.layer.corners = (
{
name = _segment.bulge;
origin = _corner00;
type = Segment;
},
{
name = _segment.bulge;
origin = _corner01;
type = Segment;
}
);
};
width = 1036;
},
{
hints = (
{
name = _segment.bulge;
origin = (0,0);
type = Segment;
},
{
name = _segment.bulge;
origin = (0,2);
type = Segment;
}
);
layerId = m002;
shapes = (
{
ref = H;
},
{
closed = 1;
nodes = (
(41,520,l,{
name = _corner00;
}),
(787,520,l),
(787,580,l,{
name = _corner01;
}),
(41,580,l)
);
}
);
userData = {
com.schriftgestaltung.Glyphs.layer.corners = (
{
name = _segment.bulge;
origin = _corner00;
type = Segment;
},
{
name = _segment.bulge;
origin = _corner01;
type = Segment;
}
);
};
width = 828;
}
);
metricLeft = "+10";
unicode = 294;
}
{
glyphname = hbar;
layers = (
{
hints = (
{
name = _segment.bulge;
origin = (0,0);
type = Segment;
},
{
name = _segment.bulge;
origin = (0,2);
type = Segment;
}
);
layerId = m01;
shapes = (
{
ref = h;
},
{
closed = 1;
nodes = (
(12,590,l,{
name = _corner00;
}),
(312,590,l),
(312,650,l,{
name = _corner01;
}),
(162,645,l),
(12,650,l)
);
}
);
userData = {
com.schriftgestaltung.Glyphs.layer.corners = (
{
name = _segment.bulge;
origin = _corner00;
type = Segment;
},
{
name = _segment.bulge;
origin = _corner01;
type = Segment;
}
);
};
width = 628;
},
{
hints = (
{
name = _segment.bulge;
origin = (0,0);
type = Segment;
},
{
name = _segment.bulge;
origin = (0,2);
type = Segment;
}
);
layerId = m002;
shapes = (
{
ref = h;
},
{
closed = 1;
nodes = (
(22,570,l,{
name = _corner00;
}),
(322,570,l),
(322,650,l,{
name = _corner01;
}),
(172,645,l),
(22,650,l)
);
}
);
userData = {
com.schriftgestaltung.Glyphs.layer.corners = (
{
name = _segment.bulge;
origin = _corner00;
type = Segment;
},
{
name = _segment.bulge;
origin = _corner01;
type = Segment;
}
);
};
width = 628;
}
);
unicode = 295;
}
{
glyphname = idotless;
layers = (
{
anchors = (
{
name = bottom;
pos = (161,0);
},
{
name = ogonek;
pos = (274,0);
},
{
name = top;
pos = (123,500);
}
);
hints = (
{
name = _corner.serif;
options = 1;
origin = (0,0);
scale = (0.8,-1);
type = Corner;
},
{
name = _corner.mitre;
origin = (0,1);
type = Corner;
},
{
name = _corner.beak;
options = 1;
origin = (0,4);
scale = (0.7,-1);
type = Corner;
},
{
name = _corner.serif;
origin = (0,5);
scale = (0.7,1);
type = Corner;
}
);
layerId = m01;
shapes = (
{
closed = 1;
nodes = (
(198,0,l),
(198,515,l),
(168,503,o),
(144,492,o),
(113,480,c),
(113,0,l)
);
}
);
userData = {
com.schriftgestaltung.Glyphs.layer.corners = (
{
name = _corner.serif;
options = 1;
origin = _corner00;
scale = "{0.8, -1}";
type = Corner;
},
{
name = _corner.mitre;
origin = _corner01;
type = Corner;
},
{
name = _corner.beak;
options = 1;
origin = _corner02;
scale = "{0.7, -1}";
type = Corner;
},
{
name = _corner.serif;
origin = _corner03;
scale = "{0.7, 1}";
type = Corner;
}
);
};
width = 321;
},
{
anchors = (
{
name = bottom;
pos = (176,0);
},
{
name = ogonek;
pos = (299,0);
},
{
name = top;
pos = (158,500);
}
);
hints = (
{
name = _corner.serif;
options = 1;
origin = (0,0);
scale = (0.8,-1);
type = Corner;
},
{
name = _corner.mitre;
origin = (0,1);
type = Corner;
},
{
name = _corner.beak;
options = 1;
origin = (0,4);
scale = (0.7,-1);
type = Corner;
},
{
name = _corner.serif;
origin = (0,5);
scale = (0.7,1);
type = Corner;
}
);
layerId = m002;
shapes = (
{
closed = 1;
nodes = (
(233,0,l),
(233,515,l),
(203,503,o),
(139,482,o),
(108,470,c),
(108,0,l)
);
}
);
userData = {
com.schriftgestaltung.Glyphs.layer.corners = (
{
name = _corner.serif;
options = 1;
origin = _corner00;
scale = "{0.8, -1}";
type = Corner;
},
{
name = _corner.mitre;
origin = _corner01;
type = Corner;
},
{
name = _corner.beak;
options = 1;
origin = _corner02;
scale = "{0.7, -1}";
type = Corner;
},
{
name = _corner.serif;
origin = _corner03;
scale = "{0.7, 1}";
type = Corner;
}
);
};
width = 351;
}
);
metricLeft = "=i";
metricRight = "=i";
unicode = 305;
}
{
glyphname = Lslash;
layers = (
{
hints = (
{
name = _segment.bulge;
origin = (0,0);
type = Segment;
},
{
name = _segment.bulge;
origin = (0,2);
type = Segment;
}
);
layerId = m01;
shapes = (
{
pos = (74,0);
ref = L;
},
{
closed = 1;
nodes = (
(134,323,l,{
name = _corner00;
}),
(433,517,l),
(402,563,l,{
name = _corner01;
}),
(103,369,l)
);
}
);
userData = {
com.schriftgestaltung.Glyphs.layer.corners = (
{
name = _segment.bulge;
origin = _corner00;
type = Segment;
},
{
name = _segment.bulge;
origin = _corner01;
type = Segment;
}
);
};
width = 839;
},
{
hints = (
{
name = _segment.bulge;
origin = (0,0);
type = Segment;
},
{
name = _segment.bulge;
origin = (0,2);
type = Segment;
}
);
layerId = m002;
shapes = (
{
ref = L;
},
{
closed = 1;
nodes = (
(70,273,l,{
name = _corner00;
}),
(409,507,l),
(368,563,l,{
name = _corner01;
}),
(29,329,l)
);
}
);
userData = {
com.schriftgestaltung.Glyphs.layer.corners = (
{
name = _segment.bulge;
origin = _corner00;
type = Segment;
},
{
name = _segment.bulge;
origin = _corner01;
type = Segment;
}
);
};
width = 711;
}
);
metricLeft = "+10";
unicode = 321;
}
{
glyphname = lslash;
layers = (
{
hints = (
{
name = _segment.bulge;
origin = (0,0);
type = Segment;
},
{
name = _segment.bulge;
origin = (0,2);
type = Segment;
}
);
layerId = m01;
shapes = (
{
ref = l;
},
{
closed = 1;
nodes = (
(55,349,l,{
name = _corner00;
}),
(304,543,l),
(268,583,l,{
name = _corner01;
}),
(19,389,l)
);
}
);
userData = {
com.schriftgestaltung.Glyphs.layer.corners = (
{
name = _segment.bulge;
origin = _corner00;
type = Segment;
},
{
name = _segment.bulge;
origin = _corner01;
type = Segment;
}
);
};
width = 321;
},
{
hints = (
{
name = _segment.bulge;
origin = (0,0);
type = Segment;
},
{
name = _segment.bulge;
origin = (0,2);
type = Segment;
}
);
layerId = m002;
shapes = (
{
ref = l;
},
{
closed = 1;
nodes = (
(29,289,l,{
name = _corner00;
}),
(353,483,l),
(317,543,l,{
name = _corner01;
}),
(-7,349,l)
);
}
);
userData = {
com.schriftgestaltung.Glyphs.layer.corners = (
{
name = _segment.bulge;
origin = _corner00;
type = Segment;
},
{
name = _segment.bulge;
origin = _corner01;
type = Segment;
}
);
};
width = 346;
}
);
unicode = 322;
}
{
glyphname = OE;
layers = (
{
anchors = (
{
name = bottom;
pos = (592,0);
},
{
name = top;
pos = (592,760);
}
);
hints = (
{
name = _corner.mitre;
options = 1;
origin = (0,0);
scale = (1,-1);
type = Corner;
},
{
name = _segment.bulge;
origin = (0,2);
type = Segment;
},
{
name = _segment.bulge;
origin = (0,37);
type = Segment;
},
{
name = _corner.mitre;
origin = (0,38);
type = Corner;
},
{
name = _corner.mitre;
origin = (2,0);
type = Corner;
},
{
name = _corner.mitre;
origin = (2,6);
type = Corner;
}
);
layerId = m01;
shapes = (
{
closed = 1;
nodes = (
(1076,0,l),
(1112,179,l),
(1079,193,l),
(1012,83,o),
(998,55,o),
(856,55,cs),
(729,55,o),
(711,60,o),
(711,119,cs),
(711,365,l),
(845,365,l),
(910,365,o),
(907,359,o),
(942,296,c),
(946,289,o),
(971,293,o),
(971,302,c),
(971,358,o),
(970,372,o),
(970,393,cs),
(970,413,o),
(971,427,o),
(971,483,c),
(971,492,o),
(946,496,o),
(942,489,c),
(907,426,o),
(910,420,o),
(845,420,c),
(711,420,l),
(711,640,ls),
(711,699,o),
(729,704,o),
(856,704,cs),
(978,704,o),
(982,686,o),
(1049,576,c),
(1082,590,l),
(1056,770,l),
(906,760,l),
(611,760,l),
(611,0,l)
);
},
{
closed = 1;
nodes = (
(279,760,o),
(100,597,o),
(100,365,cs),
(100,147,o),
(271,0,o),
(496,0,cs),
(711,0,l),
(711,760,l),
(524,760,ls)
);
},
{
closed = 1;
nodes = (
(611,65,l),
(484,41,o),
(207,67,o),
(207,406,cs),
(207,675,o),
(435,729,o),
(611,695,c)
);
}
);
userData = {
com.schriftgestaltung.Glyphs.layer.corners = (
{
name = _corner.mitre;
options = 1;
origin = _corner00;
scale = "{1, -1}";
type = Corner;
},
{
name = _segment.bulge;
origin = _corner01;
type = Segment;
},
{
name = _segment.bulge;
origin = _corner02;
type = Segment;
},
{
name = _corner.mitre;
origin = _corner03;
type = Corner;
},
{
name = _corner.mitre;
origin = _corner04;
type = Corner;
},
{
name = _corner.mitre;
origin = _corner05;
type = Corner;
}
);
};
width = 1213;
},
{
anchors = (
{
name = bottom;
pos = (591,0);
},
{
name = top;
pos = (591,760);
}
);
hints = (
{
name = _corner.mitre;
options = 1;
origin = (0,0);
scale = (1,-1);
type = Corner;
},
{
name = _segment.bulge;
origin = (0,2);
type = Segment;
},
{
name = _segment.bulge;
origin = (0,37);
type = Segment;
},
{
name = _corner.mitre;
origin = (0,38);
type = Corner;
},
{
name = _corner.mitre;
origin = (2,0);
scale = (0.5,0.5);
type = Corner;
},
{
name = _corner.mitre;
origin = (2,6);
scale = (0.5,0.5);
type = Corner;
}
);
layerId = m002;
shapes = (
{
closed = 1;
nodes = (
(1106,-1,l),
(1152,189,l),
(1094,213,l),
(1037,103,o),
(958,75,o),
(876,75,cs),
(749,75,o),
(751,85,o),
(751,144,cs),
(751,355,l),
(855,355,ls),
(920,355,o),
(932,342,o),
(961,271,cs),
(966,258,o),
(1013,271,o),
(1011,283,cs),
(1006,316,o),
(1005,344,o),
(1005,390,cs),
(1005,436,o),
(1006,464,o),
(1011,497,cs),
(1013,509,o),
(965,518,o),
(961,509,cs),
(932,438,o),
(920,425,o),
(855,425,cs),
(751,425,l),
(751,615,ls),
(751,674,o),
(749,684,o),
(876,684,cs),
(948,684,o),
(1007,676,o),
(1064,566,c),
(1122,580,l),
(1096,770,l),
(946,760,l),
(601,760,l),
(601,-1,l)
);
},
{
closed = 1;
nodes = (
(229,760,o),
(50,597,o),
(50,365,cs),
(50,147,o),
(221,0,o),
(476,0,cs),
(751,0,l),
(751,760,l),
(504,760,ls)
);
},
{
closed = 1;
nodes = (
(601,80,l),
(464,56,o),
(217,77,o),
(217,396,cs),
(217,675,o),
(455,709,o),
(601,675,c)
);
}
);
userData = {
com.schriftgestaltung.Glyphs.layer.corners = (
{
name = _corner.mitre;
options = 1;
origin = _corner00;
scale = "{1, -1}";
type = Corner;
},
{
name = _segment.bulge;
origin = _corner01;
type = Segment;
},
{
name = _segment.bulge;
origin = _corner02;
type = Segment;
},
{
name = _corner.mitre;
origin = _corner03;
type = Corner;
},
{
name = _corner.mitre;
origin = _corner04;
scale = "{0.5, 0.5}";
type = Corner;
},
{
name = _corner.mitre;
origin = _corner05;
scale = "{0.5, 0.5}";
type = Corner;
}
);
};
width = 1182;
}
);
metricLeft = "+10";
metricRight = "=E";
unicode = 338;
}
{
glyphname = acutecomb;
layers = (
{
anchors = (
{
name = _top;
pos = (151,500);
},
{
name = top;
pos = (151,774);
}
);
layerId = m01;
shapes = (
{
closed = 1;
nodes = (
(172,645,o),
(237,689,o),
(251,702,c),
(255,724,o),
(205,777,o),
(181,774,c),
(168,761,o),
(117,701,o),
(52,613,c),
(44,604,o),
(70,578,o),
(79,584,c)
);
}
);
width = 301;
},
{
anchors = (
{
name = _top;
pos = (153,500);
},
{
name = top;
pos = (153,784);
}
);
layerId = m002;
shapes = (
{
closed = 1;
nodes = (
(191,645,o),
(245,685,o),
(262,700,c),
(266,725,o),
(208,787,o),
(180,783,c),
(165,768,o),
(123,720,o),
(47,618,c),
(37,608,o),
(73,567,o),
(84,574,c)
);
}
);
width = 306;
}
);
unicode = 769;
}
{
glyphname = circumflexcomb;
layers = (
{
anchors = (
{
name = _top;
pos = (193,500);
},
{
name = top;
pos = (193,761);
}
);
layerId = m01;
shapes = (
{
closed = 1;
nodes = (
(164,741,ls),
(187,766,o),
(198,767,o),
(222,741,cs),
(333,619,ls),
(345,605,o),
(317,579,o),
(309,584,cs),
(193,654,l),
(77,584,ls),
(69,579,o),
(41,605,o),
(53,619,cs)
);
}
);
width = 386;
},
{
anchors = (
{
name = _top;
pos = (233,500);
},
{
name = top;
pos = (233,769);
}
);
layerId = m002;
shapes = (
{
closed = 1;
nodes = (
(204,752,ls),
(229,775,o),
(237,775,o),
(262,752,cs),
(393,630,ls),
(405,618,o),
(370,572,o),
(353,580,cs),
(233,635,l),
(113,580,ls),
(96,572,o),
(60,618,o),
(73,630,cs)
);
}
);
width = 465;
}
);
unicode = 770;
}
{
glyphname = tildecomb;
layers = (
{
anchors = (
{
name = _top;
pos = (226,500);
},
{
name = top;
pos = (226,711);
}
);
background = {
shapes = (
{
closed = 1;
nodes = (
(409,694,o),
(365,715,o),
(359,706,cs),
(290,601,o),
(156,824,o),
(51,628,cs),
(42,612,o),
(87,591,o),
(93,600,cs),
(167,712,o),
(300,484,o),
(401,678,cs)
);
}
);
};
layerId = m01;
shapes = (
{
closed = 1;
nodes = (
(407,690,o),
(365,715,o),
(359,706,cs),
(280,601,o),
(152,822,o),
(42,628,cs),
(35,616,o),
(77,591,o),
(83,600,cs),
(162,705,o),
(290,484,o),
(400,678,cs)
);
}
);
width = 502;
},
{
anchors = (
{
name = _top;
pos = (251,500);
},
{
name = top;
pos = (251,724);
}
);
layerId = m002;
shapes = (
{
closed = 1;
nodes = (
(470,709,o),
(404,739,o),
(389,716,cs),
(338,639,o),
(176,829,o),
(51,628,cs),
(32,598,o),
(98,567,o),
(113,590,cs),
(169,674,o),
(326,476,o),
(451,678,cs)
);
}
);
width = 502;
}
);
unicode = 771;
}
{
glyphname = macroncomb;
layers = (
{
anchors = (
{
name = _top;
pos = (211,500);
},
{
name = top;
pos = (211,700);
}
);
hints = (
{
name = _segment.bulge;
origin = (0,0);
scale = (-1,-1);
type = Segment;
},
{
name = _segment.bulge;
origin = (0,2);
scale = (-1,-1);
type = Segment;
}
);
layerId = m01;
shapes = (
{
closed = 1;
nodes = (
(361,700,l),
(61,700,l),
(61,630,l),
(211,635,l),
(361,630,l)
);
}
);
userData = {
com.schriftgestaltung.Glyphs.layer.corners = (
{
name = _segment.bulge;
origin = _corner00;
scale = "{-1, -1}";
type = Segment;
},
{
name = _segment.bulge;
origin = _corner01;
scale = "{-1, -1}";
type = Segment;
}
);
};
width = 422;
},
{
anchors = (
{
name = _top;
pos = (231,500);
},
{
name = top;
pos = (231,710);
}
);
hints = (
{
name = _segment.bulge;
origin = (0,0);
scale = (-1,-1);
type = Segment;
},
{
name = _segment.bulge;
origin = (0,2);
scale = (-1,-1);
type = Segment;
}
);
layerId = m002;
shapes = (
{
closed = 1;
nodes = (
(401,710,l),
(61,710,l),
(61,620,l),
(231,625,l),
(401,620,l)
);
}
);
userData = {
com.schriftgestaltung.Glyphs.layer.corners = (
{
name = _segment.bulge;
origin = _corner00;
scale = "{-1, -1}";
type = Segment;
},
{
name = _segment.bulge;
origin = _corner01;
scale = "{-1, -1}";
type = Segment;
}
);
};
width = 462;
}
);
unicode = 772;
}
{
glyphname = ringcomb;
layers = (
{
anchors = (
{
name = _top;
pos = (190,480);
},
{
name = top;
pos = (190,787);
}
);
layerId = m01;
shapes = (
{
closed = 1;
nodes = (
(255,533,o),
(314,584,o),
(317,660,cs),
(320,736,o),
(264,787,o),
(194,787,cs),
(125,787,o),
(66,736,o),
(63,660,cs),
(60,584,o),
(116,533,o),
(186,533,cs)
);
},
{
closed = 1;
nodes = (
(159,590,o),
(128,616,o),
(123,660,cs),
(119,704,o),
(145,730,o),
(182,730,cs),
(221,730,o),
(252,704,o),
(257,660,cs),
(261,616,o),
(235,590,o),
(198,590,cs)
);
}
);
width = 380;
},
{
anchors = (
{
name = _top;
pos = (190,460);
},
{
name = top;
pos = (190,800);
}
);
layerId = m002;
shapes = (
{
closed = 1;
nodes = (
(262,520,o),
(327,576,o),
(330,660,cs),
(333,744,o),
(272,800,o),
(195,800,cs),
(118,800,o),
(53,744,o),
(50,660,cs),
(47,576,o),
(108,520,o),
(185,520,cs)
);
},
{
closed = 1;
nodes = (
(164,600,o),
(137,623,o),
(133,660,cs),
(129,697,o),
(151,720,o),
(183,720,cs),
(216,720,o),
(243,697,o),
(247,660,cs),
(251,623,o),
(229,600,o),
(197,600,cs)
);
}
);
width = 380;
}
);
unicode = 778;
}
{
glyphname = hungarumlautcomb;
layers = (
{
anchors = (
{
name = _top;
pos = (209,500);
},
{
name = top;
pos = (209,790);
}
);
layerId = m01;
shapes = (
{
closed = 1;
nodes = (
(152,664,o),
(199,727,o),
(207,745,c),
(203,767,o),
(138,799,o),
(117,788,c),
(109,771,o),
(81,697,o),
(51,593,c),
(46,582,o),
(79,566,o),
(86,574,c)
);
},
{
closed = 1;
nodes = (
(312,654,o),
(359,717,o),
(367,735,c),
(363,757,o),
(298,789,o),
(277,778,c),
(269,761,o),
(241,687,o),
(211,583,c),
(206,572,o),
(239,556,o),
(246,564,c)
);
}
);
width = 417;
},
{
anchors = (
{
name = _top;
pos = (213,500);
},
{
name = top;
pos = (213,790);
}
);
layerId = m002;
shapes = (
{
closed = 1;
nodes = (
(161,654,o),
(208,717,o),
(216,735,c),
(212,757,o),
(137,799,o),
(116,788,c),
(108,771,o),
(80,697,o),
(50,593,c),
(45,582,o),
(88,556,o),
(95,564,c)
);
},
{
closed = 1;
nodes = (
(321,644,o),
(368,707,o),
(376,725,c),
(372,747,o),
(297,789,o),
(276,778,c),
(268,761,o),
(240,687,o),
(210,583,c),
(205,572,o),
(248,546,o),
(255,554,c)
);
}
);
width = 426;
}
);
unicode = 779;
}
{
glyphname = ogonekcomb;
layers = (
{
anchors = (
{
name = _ogonek;
pos = (186,8);
}
);
layerId = m01;
shapes = (
{
closed = 1;
nodes = (
(90,-150,o),
(104,-59,o),
(186,8,c),
(156,33,l),
(49,-56,o),
(-18,-199,o),
(161,-255,cs),
(177,-260,o),
(248,-201,o),
(215,-190,cs)
);
}
);
width = 268;
},
{
anchors = (
{
name = _ogonek;
pos = (200,13);
}
);
layerId = m002;
shapes = (
{
closed = 1;
nodes = (
(124,-120,o),
(118,-49,o),
(200,13,c),
(150,33,l),
(43,-56,o),
(-14,-209,o),
(165,-265,cs),
(199,-276,o),
(282,-171,o),
(249,-160,cs)
);
}
);
width = 307;
}
);
unicode = 808;
}
{
glyphname = endash;
layers = (
{
hints = (
{
name = _segment.bulge;
origin = (0,0);
type = Segment;
},
{
name = _segment.bulge;
origin = (0,2);
type = Segment;
}
);
layerId = m01;
shapes = (
{
closed = 1;
nodes = (
(61,230,l),
(561,230,l),
(561,290,l),
(61,290,l)
);
}
);
userData = {
com.schriftgestaltung.Glyphs.layer.corners = (
{
name = _segment.bulge;
origin = _corner00;
type = Segment;
},
{
name = _segment.bulge;
origin = _corner01;
type = Segment;
}
);
};
width = 622;
},
{
hints = (
{
name = _segment.bulge;
origin = (0,0);
type = Segment;
},
{
name = _segment.bulge;
origin = (0,2);
type = Segment;
}
);
layerId = m002;
shapes = (
{
closed = 1;
nodes = (
(61,220,l),
(561,220,l),
(561,300,l),
(61,300,l)
);
}
);
userData = {
com.schriftgestaltung.Glyphs.layer.corners = (
{
name = _segment.bulge;
origin = _corner00;
type = Segment;
},
{
name = _segment.bulge;
origin = _corner01;
type = Segment;
}
);
};
width = 622;
}
);
unicode = 8211;
}
{
glyphname = euro;
layers = (
{
background = {
shapes = (
{
closed = 1;
nodes = (
(17,270,l),
(497,270,l),
(507,330,l),
(27,330,l)
);
},
{
closed = 1;
nodes = (
(37,410,l),
(517,410,l),
(527,470,l),
(47,470,l)
);
},
{
closed = 1;
nodes = (
(721,565,l),
(686,720,l,{
name = _corner00;
}),
(422,859,o),
(126,687,o),
(126,375,cs),
(126,7,o),
(479,-151,o),
(736,145,c),
(701,179,l),
(481,-51,o),
(233,92,o),
(233,404,cs),
(233,733,o),
(551,820,o),
(686,555,c)
);
}
);
};
hints = (
{
name = _segment.bulge;
origin = (1,1);
type = Segment;
},
{
name = _segment.bulge;
origin = (1,11);
type = Segment;
},
{
name = _segment.bulge;
origin = (0,1);
type = Segment;
},
{
name = _segment.bulge;
origin = (0,6);
type = Segment;
},
{
name = _segment.bulge;
origin = (1,6);
type = Segment;
},
{
name = _segment.bulge;
origin = (0,12);
type = Segment;
}
);
layerId = m01;
shapes = (
{
closed = 1;
nodes = (
(517,410,l),
(527,470,l),
(238,470,l),
(277,744,o),
(561,801,o),
(686,555,c),
(721,565,l),
(686,720,l),
(450,844,o),
(189,720,o),
(136,470,c),
(47,470,l),
(37,410,l)
);
},
{
closed = 1;
nodes = (
(27,330,l),
(17,270,l),
(136,270,l),
(196,-20,o),
(525,-121,o),
(736,145,c),
(701,179,l),
(536,-15,o),
(310,56,o),
(250,270,c),
(497,270,l),
(507,330,l)
);
}
);
userData = {
com.schriftgestaltung.Glyphs.layer.corners = (
{
name = _segment.bulge;
origin = _corner00;
type = Segment;
},
{
name = _segment.bulge;
origin = _corner01;
type = Segment;
},
{
name = _segment.bulge;
origin = _corner02;
type = Segment;
},
{
name = _segment.bulge;
origin = _corner03;
type = Segment;
},
{
name = _segment.bulge;
origin = _corner04;
type = Segment;
},
{
name = _segment.bulge;
origin = _corner05;
type = Segment;
}
);
};
width = 778;
},
{
background = {
shapes = (
{
closed = 1;
nodes = (
(133,288,l),
(183,-16,o),
(521,-126,o),
(736,145,c),
(701,179,l),
(531,-20,o),
(298,60,o),
(245,288,c)
);
},
{
closed = 1;
nodes = (
(236,449,l),
(263,741,o),
(558,807,o),
(686,555,c),
(721,565,l),
(686,720,l),
(445,847,o),
(177,714,o),
(133,453,c)
);
},
{
closed = 1;
nodes = (
(497,270,l),
(507,330,l),
(27,330,l),
(17,270,l)
);
},
{
closed = 1;
nodes = (
(47,470,l),
(37,410,l),
(517,410,l),
(527,470,l)
);
}
);
};
hints = (
{
name = _segment.bulge;
origin = (1,1);
type = Segment;
},
{
name = _segment.bulge;
origin = (1,11);
type = Segment;
},
{
name = _segment.bulge;
origin = (0,1);
type = Segment;
},
{
name = _segment.bulge;
origin = (0,12);
type = Segment;
},
{
name = _segment.bulge;
origin = (0,6);
type = Segment;
},
{
name = _segment.bulge;
origin = (1,6);
type = Segment;
}
);
layerId = m002;
shapes = (
{
closed = 1;
nodes = (
(517,420,l),
(527,490,l),
(296,490,l),
(325,715,o),
(495,799,o),
(665,540,c),
(725,560,l),
(690,730,l),
(446,839,o),
(201,733,o),
(143,490,c),
(47,490,l),
(37,420,l)
);
},
{
closed = 1;
nodes = (
(27,340,l),
(17,270,l),
(141,270,l),
(202,-20,o),
(559,-121,o),
(750,145,c),
(705,189,l),
(570,43,o),
(371,97,o),
(314,270,c),
(497,270,l),
(507,340,l)
);
}
);
userData = {
com.schriftgestaltung.Glyphs.layer.corners = (
{
name = _segment.bulge;
origin = _corner00;
type = Segment;
},
{
name = _segment.bulge;
origin = _corner01;
type = Segment;
},
{
name = _segment.bulge;
origin = _corner02;
type = Segment;
},
{
name = _segment.bulge;
origin = _corner03;
type = Segment;
},
{
name = _segment.bulge;
origin = _corner04;
type = Segment;
},
{
name = _segment.bulge;
origin = _corner05;
type = Segment;
}
);
};
width = 778;
}
);
unicode = 8364;
}
{
glyphname = numero;
layers = (
{
hints = (
{
name = _segment.bulge;
origin = (0,0);
type = Segment;
},
{
name = _segment.bulge;
origin = (0,2);
type = Segment;
}
);
layerId = m01;
shapes = (
{
ref = N;
},
{
alignment = -1;
pos = (750,150);
ref = zero.osf;
},
{
closed = 1;
nodes = (
(847,0,l,{
name = _corner00;
}),
(1307,0,l),
(1307,80,l,{
name = _corner01;
}),
(1067,60,l),
(847,80,l)
);
}
);
userData = {
com.schriftgestaltung.Glyphs.layer.corners = (
{
name = _segment.bulge;
origin = _corner00;
type = Segment;
},
{
name = _segment.bulge;
origin = _corner01;
type = Segment;
}
);
};
width = 1372;
},
{
hints = (
{
name = _segment.bulge;
origin = (0,0);
type = Segment;
},
{
name = _segment.bulge;
origin = (0,2);
type = Segment;
}
);
layerId = m002;
shapes = (
{
ref = N;
},
{
alignment = -1;
pos = (750,254);
ref = zero.osf;
},
{
closed = 1;
nodes = (
(847,64,l,{
name = _corner00;
}),
(1287,64,l),
(1287,184,l,{
name = _corner01;
}),
(1057,164,l),
(847,184,l)
);
}
);
userData = {
com.schriftgestaltung.Glyphs.layer.corners = (
{
name = _segment.bulge;
origin = _corner00;
type = Segment;
},
{
name = _segment.bulge;
origin = _corner01;
type = Segment;
}
);
};
width = 1372;
}
);
metricRight = "=zero";
unicode = 8470;
}
{
glyphname = trademark;
layers = (
{
hints = (
{
name = _corner.mitre;
origin = (0,39);
scale = (0.5,0.5);
type = Corner;
},
{
name = _corner.mitre;
origin = (0,42);
scale = (0.5,0.5);
type = Corner;
}
);
layerId = m01;
shapes = (
{
closed = 1;
nodes = (
(50,665,ls),
(49,660,o),
(77,649,o),
(81,658,cs),
(106,708,o),
(122,720,o),
(143,720,cs),
(187,720,o),
(191,720,o),
(191,695,cs),
(191,490,ls),
(191,454,o),
(186,453,o),
(154,434,cs),
(150,432,o),
(154,410,o),
(159,410,cs),
(200,410,l),
(247,410,ls),
(249,410,o),
(250,410,o),
(252,410,cs),
(293,410,ls),
(298,410,o),
(302,432,o),
(298,434,cs),
(266,453,o),
(261,454,o),
(261,490,cs),
(261,695,ls),
(261,720,o),
(265,720,o),
(308,720,cs),
(329,720,o),
(346,709,o),
(370,658,cs),
(375,649,o),
(402,660,o),
(401,665,cs),
(388,765,l),
(313,760,l),
(138,760,l),
(63,765,l)
);
},
{
closed = 1;
nodes = (
(427,432,o),
(431,410,o),
(436,410,cs),
(482,410,l),
(501,410,l),
(547,410,ls),
(552,410,o),
(557,432,o),
(552,434,c),
(521,453,o),
(515,454,o),
(514,490,cs),
(510,670,l),
(619,444,ls),
(623,437,o),
(664,437,o),
(667,444,cs),
(769,673,l),
(766,490,ls),
(765,454,o),
(760,453,o),
(728,434,cs),
(724,432,o),
(728,410,o),
(733,410,cs),
(779,410,l),
(816,410,l),
(862,410,ls),
(867,410,o),
(871,432,o),
(867,434,cs),
(835,453,o),
(830,454,o),
(830,490,cs),
(830,680,ls),
(830,715,o),
(835,716,o),
(867,735,cs),
(871,738,o),
(867,760,o),
(862,760,cs),
(834,760,o),
(826,759,o),
(816,759,cs),
(760,759,l),
(658,532,l),
(550,759,l),
(482,759,ls),
(472,759,o),
(464,760,o),
(436,760,cs),
(431,760,o),
(427,738,o),
(431,735,cs),
(463,716,o),
(468,715,o),
(468,680,cs),
(468,490,ls),
(468,454,o),
(463,453,o),
(431,434,cs)
);
}
);
userData = {
com.schriftgestaltung.Glyphs.layer.corners = (
{
name = _corner.mitre;
origin = _corner00;
scale = "{0.5, 0.5}";
type = Corner;
},
{
name = _corner.mitre;
origin = _corner01;
scale = "{0.5, 0.5}";
type = Corner;
}
);
};
width = 919;
},
{
hints = (
{
name = _corner.mitre;
origin = (0,39);
scale = (0.5,0.5);
type = Corner;
},
{
name = _corner.mitre;
origin = (0,42);
scale = (0.5,0.5);
type = Corner;
}
);
layerId = m002;
shapes = (
{
closed = 1;
nodes = (
(45,655,ls),
(44,650,o),
(77,639,o),
(81,648,cs),
(106,698,o),
(122,710,o),
(143,710,cs),
(187,710,o),
(186,710,o),
(186,685,cs),
(186,496,ls),
(186,460,o),
(181,459,o),
(149,440,cs),
(145,438,o),
(149,410,o),
(154,410,cs),
(195,410,l),
(262,410,ls),
(264,410,o),
(265,410,o),
(267,410,cs),
(308,410,ls),
(313,410,o),
(317,438,o),
(313,440,cs),
(281,459,o),
(276,460,o),
(276,496,cs),
(276,685,ls),
(276,710,o),
(275,710,o),
(318,710,cs),
(339,710,o),
(356,699,o),
(380,648,cs),
(385,639,o),
(417,650,o),
(416,655,cs),
(403,765,l),
(323,760,l),
(138,760,l),
(58,765,l)
);
},
{
closed = 1;
nodes = (
(427,438,o),
(431,410,o),
(436,410,cs),
(482,410,l),
(521,410,l),
(567,410,ls),
(572,410,o),
(577,438,o),
(572,440,c),
(541,459,o),
(537,460,o),
(534,496,cs),
(520,670,l),
(629,444,ls),
(633,437,o),
(684,437,o),
(687,444,cs),
(789,673,l),
(776,496,ls),
(773,460,o),
(770,459,o),
(738,440,cs),
(734,438,o),
(738,410,o),
(743,410,cs),
(789,410,l),
(846,410,l),
(892,410,ls),
(897,410,o),
(901,438,o),
(897,440,cs),
(865,459,o),
(860,460,o),
(860,496,cs),
(860,675,ls),
(860,710,o),
(865,711,o),
(897,730,cs),
(901,733,o),
(897,760,o),
(892,760,cs),
(864,760,o),
(856,759,o),
(846,759,cs),
(760,759,l),
(678,542,l),
(580,759,l),
(482,759,ls),
(472,759,o),
(464,760,o),
(436,760,cs),
(431,760,o),
(427,733,o),
(431,730,cs),
(463,711,o),
(468,710,o),
(468,675,cs),
(468,496,ls),
(468,460,o),
(463,459,o),
(431,440,cs)
);
}
);
userData = {
com.schriftgestaltung.Glyphs.layer.corners = (
{
name = _corner.mitre;
origin = _corner00;
scale = "{0.5, 0.5}";
type = Corner;
},
{
name = _corner.mitre;
origin = _corner01;
scale = "{0.5, 0.5}";
type = Corner;
}
);
};
width = 944;
}
);
unicode = 8482;
}
{
glyphname = minus;
layers = (
{
hints = (
{
name = _segment.bulge;
origin = (0,0);
type = Segment;
},
{
name = _segment.bulge;
origin = (0,3);
type = Segment;
}
);
layerId = m01;
shapes = (
{
closed = 1;
nodes = (
(61,225,l),
(311,230,l),
(561,225,l),
(561,295,l),
(311,290,l),
(61,295,l)
);
}
);
userData = {
com.schriftgestaltung.Glyphs.layer.corners = (
{
name = _segment.bulge;
origin = _corner00;
type = Segment;
},
{
name = _segment.bulge;
origin = _corner01;
type = Segment;
}
);
};
width = 622;
},
{
hints = (
{
name = _segment.bulge;
origin = (0,0);
type = Segment;
},
{
name = _segment.bulge;
origin = (0,3);
type = Segment;
}
);
layerId = m002;
shapes = (
{
closed = 1;
nodes = (
(61,215,l),
(311,220,l),
(561,215,l),
(561,305,l),
(311,300,l),
(61,305,l)
);
}
);
userData = {
com.schriftgestaltung.Glyphs.layer.corners = (
{
name = _segment.bulge;
origin = _corner00;
type = Segment;
},
{
name = _segment.bulge;
origin = _corner01;
type = Segment;
}
);
};
width = 622;
}
);
unicode = 8722;
}
{
glyphname = Q.ss01;
layers = (
{
anchors = (
{
name = bottom;
pos = (480,0);
},
{
name = top;
pos = (480,760);
}
);
hints = (
{
name = _segment.bulge;
origin = (2,3);
type = Segment;
}
);
layerId = m01;
shapes = (
{
closed = 1;
nodes = (
(681,-10,o),
(860,163,o),
(860,395,cs),
(860,613,o),
(699,770,o),
(494,770,cs),
(279,770,o),
(100,597,o),
(100,365,cs),
(100,147,o),
(261,-10,o),
(466,-10,cs)
);
},
{
closed = 1;
nodes = (
(355,50,o),
(208,169,o),
(208,406,cs),
(208,609,o),
(334,710,o),
(464,710,cs),
(606,710,o),
(753,591,o),
(753,354,cs),
(753,151,o),
(627,50,o),
(497,50,cs)
);
},
{
closed = 1;
nodes = (
(964,-255,o),
(978,-317,o),
(1189,-214,c),
(1164,-169,l),
(1058,-211,o),
(1052,-206,o),
(526,92,c),
(420,44,l)
);
}
);
userData = {
com.schriftgestaltung.Glyphs.layer.corners = (
{
name = _segment.bulge;
origin = _corner00;
type = Segment;
}
);
};
width = 1293;
},
{
anchors = (
{
name = bottom;
pos = (440,0);
},
{
name = top;
pos = (440,760);
}
);
hints = (
{
name = _segment.bulge;
origin = (2,3);
type = Segment;
}
);
layerId = m002;
shapes = (
{
closed = 1;
nodes = (
(641,-10,o),
(830,163,o),
(830,385,cs),
(830,613,o),
(659,770,o),
(454,770,cs),
(239,770,o),
(50,597,o),
(50,375,cs),
(50,147,o),
(221,-10,o),
(426,-10,cs)
);
},
{
closed = 1;
nodes = (
(291,77,o),
(214,253,o),
(214,408,cs),
(214,601,o),
(318,683,o),
(427,683,cs),
(589,683,o),
(666,507,o),
(666,352,cs),
(666,159,o),
(562,77,o),
(453,77,cs)
);
},
{
closed = 1;
nodes = (
(897,-275,o),
(954,-351,o),
(1185,-198,c),
(1150,-139,l),
(1029,-201,o),
(965,-136,o),
(470,159,c),
(333,77,l)
);
}
);
userData = {
com.schriftgestaltung.Glyphs.layer.corners = (
{
name = _segment.bulge;
origin = _corner00;
type = Segment;
}
);
};
width = 880;
}
);
metricLeft = "+10";
}
{
export = 0;
glyphname = _corner.beak;
layers = (
{
anchors = (
{
name = left;
pos = (0,110);
},
{
name = origin;
},
{
name = right;
pos = (30,0);
}
);
layerId = m01;
shapes = (
{
closed = 0;
nodes = (
(0,115,l),
(-2,80,o),
(4,73,o),
(-65,30,cs),
(-77,23,o),
(-61,-4,o),
(-51,-4,c),
(-36,-3,o),
(20,-1,o),
(35,0,c)
);
}
);
width = 600;
},
{
anchors = (
{
name = left;
pos = (0,120);
},
{
name = origin;
},
{
name = right;
pos = (30,0);
}
);
layerId = m002;
shapes = (
{
closed = 0;
nodes = (
(0,125,l),
(-2,90,o),
(-36,83,o),
(-105,40,cs),
(-117,33,o),
(-91,-4,o),
(-81,-4,c),
(-36,-2,o),
(-10,0,o),
(35,0,c)
);
}
);
width = 600;
}
);
}
{
glyphname = _corner.inktrap;
layers = (
{
anchors = (
{
name = left;
pos = (0,1);
},
{
name = origin;
},
{
name = right;
pos = (1,0);
}
);
layerId = m01;
shapes = (
{
closed = 0;
nodes = (
(0,1,l),
(1,0,l)
);
}
);
width = 600;
},
{
anchors = (
{
name = left;
pos = (0,10);
},
{
name = origin;
},
{
name = right;
pos = (10,0);
}
);
layerId = m002;
shapes = (
{
closed = 0;
nodes = (
(0,1,l),
(1,0,l)
);
}
);
width = 600;
}
);
}
{
glyphname = eight.lf;
layers = (
{
background = {
shapes = (
{
closed = 1;
nodes = (
(166,-10,o),
(271,-10,cs),
(385,-10,o),
(500,61,o),
(500,190,cs),
(500,392,o),
(180,486,o),
(180,610,cs),
(180,679,o),
(220,723,o),
(276,723,cs),
(330,723,o),
(380,680,o),
(380,600,cs),
(380,430,o),
(60,380,o),
(60,180,cs),
(60,50,o)
);
},
{
closed = 1;
nodes = (
(353,43,o),
(287,43,cs),
(223,43,o),
(150,85,o),
(150,175,cs),
(150,375,o),
(470,420,o),
(470,600,cs),
(470,705,o),
(392,770,o),
(296,770,cs),
(192,770,o),
(90,707,o),
(90,600,cs),
(90,410,o),
(410,335,o),
(410,165,cs),
(410,88,o)
);
}
);
};
layerId = m01;
shapes = (
{
closed = 1;
nodes = (
(385,-10,o),
(510,61,o),
(510,190,cs),
(510,392,o),
(170,486,o),
(170,610,cs),
(170,679,o),
(220,723,o),
(276,723,cs),
(330,723,o),
(390,680,o),
(390,600,cs),
(390,430,o),
(50,380,o),
(50,180,cs),
(50,50,o),
(166,-10,o),
(271,-10,cs)
);
},
{
closed = 1;
nodes = (
(353,38,o),
(282,38,cs),
(223,38,o),
(140,85,o),
(140,175,cs),
(140,375,o),
(480,420,o),
(480,600,cs),
(480,705,o),
(392,770,o),
(296,770,cs),
(192,770,o),
(80,707,o),
(80,600,cs),
(80,410,o),
(420,345,o),
(420,165,cs),
(420,88,o)
);
}
);
width = 560;
},
{
background = {
shapes = (
{
closed = 1;
nodes = (
(500,-57,o),
(500,190,cs),
(500,392,o),
(170,466,o),
(170,600,cs),
(170,757,o),
(390,770,o),
(390,590,cs),
(390,410,o),
(60,360,o),
(60,180,cs),
(60,-92,o)
);
},
{
closed = 1;
nodes = (
(150,-7,o),
(150,175,cs),
(150,355,o),
(480,410,o),
(480,600,cs),
(480,839,o),
(80,816,o),
(80,590,cs),
(80,390,o),
(410,335,o),
(410,165,cs),
(410,13,o)
);
}
);
};
layerId = m002;
shapes = (
{
closed = 1;
nodes = (
(387,-11,o),
(510,59,o),
(510,195,cs),
(510,407,o),
(200,486,o),
(200,620,cs),
(200,677,o),
(235,709,o),
(281,709,cs),
(330,709,o),
(370,672,o),
(370,590,cs),
(370,400,o),
(50,395,o),
(50,185,cs),
(50,50,o),
(157,-11,o),
(268,-11,cs)
);
},
{
closed = 1;
nodes = (
(335,51,o),
(280,51,cs),
(225,51,o),
(170,89,o),
(170,185,cs),
(170,395,o),
(480,410,o),
(480,600,cs),
(480,715,o),
(382,770,o),
(291,770,cs),
(183,770,o),
(80,707,o),
(80,590,cs),
(80,380,o),
(390,305,o),
(390,155,cs),
(390,89,o)
);
}
);
width = 560;
}
);
}
{
glyphname = eight.osf;
layers = (
{
background = {
shapes = (
{
closed = 1;
nodes = (
(166,-10,o),
(271,-10,cs),
(385,-10,o),
(500,61,o),
(500,190,cs),
(500,392,o),
(180,486,o),
(180,610,cs),
(180,679,o),
(220,723,o),
(276,723,cs),
(330,723,o),
(380,680,o),
(380,600,cs),
(380,430,o),
(60,380,o),
(60,180,cs),
(60,50,o)
);
},
{
closed = 1;
nodes = (
(353,43,o),
(287,43,cs),
(223,43,o),
(150,85,o),
(150,175,cs),
(150,375,o),
(470,420,o),
(470,600,cs),
(470,705,o),
(392,770,o),
(296,770,cs),
(192,770,o),
(90,707,o),
(90,600,cs),
(90,410,o),
(410,335,o),
(410,165,cs),
(410,88,o)
);
}
);
};
layerId = m01;
shapes = (
{
closed = 1;
nodes = (
(385,-10,o),
(500,61,o),
(500,190,cs),
(500,392,o),
(180,466,o),
(180,610,cs),
(180,679,o),
(220,723,o),
(276,723,cs),
(330,723,o),
(380,680,o),
(380,600,cs),
(380,430,o),
(60,380,o),
(60,180,cs),
(60,50,o),
(166,-10,o),
(271,-10,cs)
);
},
{
closed = 1;
nodes = (
(353,38,o),
(282,38,cs),
(223,38,o),
(150,85,o),
(150,175,cs),
(150,375,o),
(470,420,o),
(470,600,cs),
(470,705,o),
(392,770,o),
(296,770,cs),
(192,770,o),
(90,707,o),
(90,600,cs),
(90,410,o),
(410,335,o),
(410,165,cs),
(410,88,o)
);
}
);
width = 560;
},
{
background = {
shapes = (
{
closed = 1;
nodes = (
(480,-57,o),
(480,190,cs),
(480,392,o),
(150,466,o),
(150,600,cs),
(150,757,o),
(370,770,o),
(370,590,cs),
(370,410,o),
(40,360,o),
(40,180,cs),
(40,-92,o)
);
},
{
closed = 1;
nodes = (
(130,-7,o),
(130,175,cs),
(130,355,o),
(460,410,o),
(460,600,cs),
(460,839,o),
(60,816,o),
(60,590,cs),
(60,390,o),
(390,335,o),
(390,165,cs),
(390,13,o)
);
}
);
};
layerId = m002;
shapes = (
{
closed = 1;
nodes = (
(367,-11,o),
(490,59,o),
(490,195,cs),
(490,407,o),
(180,486,o),
(180,620,cs),
(180,677,o),
(215,709,o),
(261,709,cs),
(310,709,o),
(350,672,o),
(350,590,cs),
(350,400,o),
(30,395,o),
(30,185,cs),
(30,50,o),
(137,-11,o),
(248,-11,cs)
);
},
{
closed = 1;
nodes = (
(315,51,o),
(260,51,cs),
(205,51,o),
(150,89,o),
(150,185,cs),
(150,395,o),
(460,410,o),
(460,600,cs),
(460,715,o),
(362,770,o),
(271,770,cs),
(163,770,o),
(60,707,o),
(60,590,cs),
(60,380,o),
(370,305,o),
(370,155,cs),
(370,89,o)
);
}
);
width = 520;
}
);
}
{
glyphname = four.lf;
layers = (
{
background = {
shapes = (
{
closed = 1;
nodes = (
(362,-250,l),
(457,-250,l),
(457,0,l),
(585,0,l),
(595,90,l,{
name = _corner00;
}),
(457,85,l),
(462,340,l),
(470,500,ls),
(471,515,o),
(436,519,o),
(429,510,cs),
(347,405,l),
(65,48,ls),
(54,34,o),
(61,0,o),
(77,0,cs),
(388,0,l),
(388,83,l),
(166,75,l),
(377,345,l),
(367,75,l)
);
}
);
};
hints = (
{
name = _corner.mitre;
origin = (0,2);
type = Corner;
}
);
layerId = m01;
shapes = (
{
closed = 1;
nodes = (
(457,220,l),
(585,220,l),
(595,320,l),
(457,305,l),
(457,600,l),
(460,760,ls),
(460,775,o),
(415,780,o),
(409,770,cs),
(333,648,l),
(55,268,ls),
(45,254,o),
(51,220,o),
(67,220,cs),
(388,220,l),
(388,303,l),
(146,300,l),
(362,600,l),
(362,0,l),
(457,0,l)
);
}
);
userData = {
com.schriftgestaltung.Glyphs.layer.corners = (
{
name = _corner.mitre;
origin = _corner00;
type = Corner;
}
);
};
width = 644;
},
{
background = {
shapes = (
{
closed = 1;
nodes = (
(380,-250,l),
(517,-250,l),
(507,0,l),
(635,0,l),
(645,110,l,{
name = _corner01;
}),
(507,105,l),
(512,340,l),
(520,490,ls),
(521,505,o),
(470,511,o),
(464,503,cs),
(385,395,l),
(115,58,ls),
(104,44,o),
(111,0,o),
(127,0,cs),
(438,0,l),
(438,103,l),
(241,95,l),
(387,295,l),
(380,75,l)
);
}
);
};
hints = (
{
name = _corner.mitre;
origin = (0,2);
type = Corner;
}
);
layerId = m002;
shapes = (
{
closed = 1;
nodes = (
(507,200,l),
(595,200,l),
(605,320,l),
(507,305,l),
(507,590,l),
(510,760,ls),
(510,775,o),
(435,790,o),
(429,780,cs),
(343,633,l),
(55,268,ls),
(44,254,o),
(51,200,o),
(67,200,cs),
(398,200,l),
(398,303,l),
(186,300,l),
(367,545,l),
(367,0,l),
(507,0,l)
);
}
);
userData = {
com.schriftgestaltung.Glyphs.layer.corners = (
{
name = _corner.mitre;
origin = _corner00;
type = Corner;
}
);
};
width = 653;
}
);
}
{
glyphname = four.osf;
layers = (
{
background = {
shapes = (
{
closed = 1;
nodes = (
(312,-250,l),
(407,-250,l),
(407,0,l),
(535,0,l),
(545,90,l,{
name = _corner00;
}),
(407,85,l),
(412,340,l),
(420,500,ls),
(421,515,o),
(386,519,o),
(379,510,cs),
(297,405,l),
(15,48,ls),
(4,34,o),
(11,0,o),
(27,0,cs),
(338,0,l),
(338,83,l),
(116,75,l),
(327,345,l),
(317,75,l)
);
}
);
};
hints = (
{
name = _corner.mitre;
origin = (0,2);
type = Corner;
}
);
layerId = m01;
shapes = (
{
closed = 1;
nodes = (
(407,20,l),
(535,20,l),
(545,120,l),
(407,105,l),
(407,340,l),
(410,500,ls),
(410,515,o),
(366,520,o),
(359,510,cs),
(283,393,l),
(45,68,ls),
(35,54,o),
(41,20,o),
(57,20,cs),
(338,20,l),
(338,103,l),
(136,100,l),
(322,355,l),
(322,-250,l),
(407,-250,l)
);
}
);
userData = {
com.schriftgestaltung.Glyphs.layer.corners = (
{
name = _corner.mitre;
origin = _corner00;
type = Corner;
}
);
};
width = 584;
},
{
background = {
shapes = (
{
closed = 1;
nodes = (
(300,-250,l),
(437,-250,l),
(427,0,l),
(555,0,l),
(565,110,l,{
name = _corner01;
}),
(427,105,l),
(432,340,l),
(440,490,ls),
(441,505,o),
(390,511,o),
(384,503,cs),
(305,395,l),
(35,58,ls),
(24,44,o),
(31,0,o),
(47,0,cs),
(358,0,l),
(358,103,l),
(161,95,l),
(307,295,l),
(300,75,l)
);
}
);
};
hints = (
{
name = _corner.mitre;
origin = (0,2);
type = Corner;
}
);
layerId = m002;
shapes = (
{
closed = 1;
nodes = (
(427,0,l),
(515,0,l),
(525,120,l),
(427,105,l),
(427,340,l),
(430,480,ls),
(430,495,o),
(346,520,o),
(339,510,cs),
(263,393,l),
(25,68,ls),
(15,54,o),
(21,0,o),
(37,0,cs),
(318,0,l),
(318,103,l),
(136,100,l),
(287,315,l),
(287,-250,l),
(427,-250,l)
);
}
);
userData = {
com.schriftgestaltung.Glyphs.layer.corners = (
{
name = _corner.mitre;
origin = _corner00;
type = Corner;
}
);
};
width = 583;
}
);
}
{
glyphname = one.lf;
layers = (
{
hints = (
{
name = _corner.serif;
origin = (0,0);
scale = (1,1.1);
type = Corner;
},
{
name = _corner.serif;
options = 1;
origin = (0,1);
scale = (1,-1.1);
type = Corner;
},
{
name = _corner.mitre;
origin = (0,2);
type = Corner;
}
);
layerId = m01;
shapes = (
{
closed = 1;
nodes = (
(158,0,l),
(258,0,l),
(258,770,l),
(174,741,ls),
(150,733,o),
(116,722,o),
(59,706,cs),
(46,702,o),
(49,675,o),
(60,674,cs),
(157,662,o),
(158,667,o),
(158,596,c)
);
}
);
userData = {
com.schriftgestaltung.Glyphs.layer.corners = (
{
name = _corner.serif;
origin = _corner00;
scale = "{1, 1.1}";
type = Corner;
},
{
name = _corner.serif;
options = 1;
origin = _corner01;
scale = "{1, -1.1}";
type = Corner;
},
{
name = _corner.mitre;
origin = _corner02;
type = Corner;
}
);
};
width = 412;
},
{
background = {
shapes = (
{
closed = 1;
nodes = (
(156,0,l,{
name = _corner00;
}),
(256,0,l,{
name = _corner01;
}),
(256,770,l,{
name = _corner02;
}),
(172,741,ls),
(148,733,o),
(114,722,o),
(57,706,cs),
(44,702,o),
(47,675,o),
(58,674,cs),
(155,662,o),
(156,667,o),
(156,596,cs)
);
}
);
};
hints = (
{
name = _corner.serif;
origin = (0,0);
scale = (1,1.1);
type = Corner;
},
{
name = _corner.serif;
options = 1;
origin = (0,1);
scale = (1,-1.1);
type = Corner;
},
{
name = _corner.mitre;
origin = (0,2);
type = Corner;
}
);
layerId = m002;
shapes = (
{
closed = 1;
nodes = (
(156,0,l),
(306,0,l),
(306,780,l),
(164,723,ls),
(141,714,o),
(122,708,o),
(57,682,cs),
(45,677,o),
(51,632,o),
(63,631,cs),
(150,625,o),
(156,627,o),
(156,555,cs)
);
}
);
userData = {
com.schriftgestaltung.Glyphs.layer.corners = (
{
name = _corner.serif;
origin = _corner00;
scale = "{1, 1.1}";
type = Corner;
},
{
name = _corner.serif;
options = 1;
origin = _corner01;
scale = "{1, -1.1}";
type = Corner;
},
{
name = _corner.mitre;
origin = _corner02;
type = Corner;
}
);
};
width = 454;
}
);
}
{
glyphname = seven.lf;
layers = (
{
hints = (
{
name = _segment.bulge;
origin = (0,1);
type = Segment;
},
{
name = _corner.mitre;
origin = (0,10);
type = Corner;
},
{
name = _corner.mitre;
options = 1;
origin = (0,6);
scale = (2,2);
type = Corner;
}
);
layerId = m01;
shapes = (
{
closed = 1;
nodes = (
(50,580,l),
(90,571,l),
(132,663,o),
(139,665,o),
(241,665,cs),
(441,665,l),
(159,0,l),
(277,0,l),
(510,725,l),
(495,760,l),
(91,760,l)
);
}
);
userData = {
com.schriftgestaltung.Glyphs.layer.corners = (
{
name = _segment.bulge;
origin = _corner00;
type = Segment;
},
{
name = _corner.mitre;
origin = _corner01;
type = Corner;
},
{
name = _corner.mitre;
options = 1;
origin = _corner02;
scale = "{2, 2}";
type = Corner;
}
);
};
width = 560;
},
{
hints = (
{
name = _segment.bulge;
origin = (0,1);
type = Segment;
},
{
name = _corner.mitre;
options = 1;
origin = (0,6);
scale = (2,2);
type = Corner;
},
{
name = _corner.mitre;
origin = (0,10);
type = Corner;
}
);
layerId = m002;
shapes = (
{
closed = 1;
nodes = (
(50,585,l),
(110,571,l),
(142,633,o),
(174,631,o),
(276,635,cs),
(400,640,l),
(123,0,l),
(311,0,l),
(505,735,l),
(490,760,l),
(86,760,l)
);
}
);
userData = {
com.schriftgestaltung.Glyphs.layer.corners = (
{
name = _segment.bulge;
origin = _corner00;
type = Segment;
},
{
name = _corner.mitre;
options = 1;
origin = _corner01;
scale = "{2, 2}";
type = Corner;
},
{
name = _corner.mitre;
origin = _corner02;
type = Corner;
}
);
};
width = 555;
}
);
}
{
glyphname = six.lf;
layers = (
{
background = {
shapes = (
{
closed = 1;
nodes = (
(396,766,l),
(198,644,o),
(44,430,o),
(44,256,cs),
(44,105,o),
(143,-6,o),
(279,-6,cs),
(426,-6,o),
(529,102,o),
(529,233,cs),
(529,368,o),
(428,447,o),
(316,447,cs),
(264,447,o),
(209,430,o),
(161,393,c),
(155,330,l),
(182,369,o),
(231,383,o),
(268,383,cs),
(350,383,o),
(419,318,o),
(419,211,cs),
(419,141,o),
(381,53,o),
(298,53,cs),
(201,53,o),
(159,136,o),
(159,259,cs),
(159,436,o),
(263,611,o),
(427,732,c)
);
}
);
};
hints = (
{
name = _segment.bulge;
origin = (0,0);
type = Segment;
}
);
layerId = m01;
shapes = (
{
closed = 1;
nodes = (
(426,806,l),
(157,642,o),
(50,442,o),
(50,272,cs),
(50,116,o),
(140,-6,o),
(279,-6,cs),
(450,-6,o),
(550,119,o),
(550,249,cs),
(550,370,o),
(462,497,o),
(316,497,cs),
(264,497,o),
(209,480,o),
(161,443,c),
(155,380,l),
(182,419,o),
(231,433,o),
(268,433,cs),
(497,433,o),
(490,53,o),
(308,53,cs),
(200,53,o),
(157,156,o),
(157,289,cs),
(157,438,o),
(235,617,o),
(457,772,c)
);
}
);
userData = {
com.schriftgestaltung.Glyphs.layer.corners = (
{
name = _segment.bulge;
origin = _corner00;
type = Segment;
}
);
};
width = 600;
},
{
background = {
shapes = (
{
closed = 1;
nodes = (
(488,758,l),
(221,627,o),
(84,415,o),
(84,256,cs),
(84,105,o),
(183,-10,o),
(315,-10,cs),
(496,-10,o),
(581,112,o),
(581,232,cs),
(581,348,o),
(502,462,o),
(355,462,cs),
(322,462,o),
(287,456,o),
(248,444,c),
(239,381,l),
(256,385,o),
(272,387,o),
(287,387,cs),
(389,387,o),
(439,292,o),
(439,205,cs),
(439,133,o),
(405,67,o),
(338,67,cs),
(281,67,o),
(233,124,o),
(233,253,cs),
(233,412,o),
(325,583,o),
(522,707,c)
);
}
);
};
hints = (
{
name = _segment.bulge;
origin = (0,0);
type = Segment;
}
);
layerId = m002;
shapes = (
{
closed = 1;
nodes = (
(456,806,l),
(167,652,o),
(50,442,o),
(50,282,cs),
(50,116,o),
(150,-6,o),
(309,-6,cs),
(480,-6,o),
(590,119,o),
(590,249,cs),
(590,400,o),
(492,497,o),
(346,497,cs),
(294,497,o),
(239,480,o),
(191,443,c),
(185,365,l),
(212,404,o),
(261,418,o),
(298,418,cs),
(487,418,o),
(480,73,o),
(328,73,cs),
(250,73,o),
(207,146,o),
(207,289,cs),
(207,428,o),
(275,597,o),
(497,752,c)
);
}
);
userData = {
com.schriftgestaltung.Glyphs.layer.corners = (
{
name = _segment.bulge;
origin = _corner00;
type = Segment;
}
);
};
width = 640;
}
);
}
{
glyphname = two.lf;
layers = (
{
background = {
shapes = (
{
closed = 1;
nodes = (
(497,-1,l,{
name = _corner03;
}),
(543,129,l),
(510,153,l),
(483,123,o),
(469,95,o),
(367,95,cs),
(192,95,l),
(397,294,o),
(506,388,o),
(506,529,cs),
(506,775,o),
(227,855,o),
(76,651,c),
(107,621,l),
(199,726,o),
(401,700,o),
(401,502,cs),
(401,370,o),
(278,261,o),
(68,49,cs),
(53,33,o),
(67,-1,o),
(82,-1,cs)
);
}
);
};
hints = (
{
name = _segment.bulge;
origin = (0,16);
type = Segment;
},
{
name = _corner.mitre;
options = 1;
origin = (0,0);
scale = (1,-1);
type = Corner;
},
{
name = _segment.bulge;
origin = (0,2);
type = Segment;
}
);
layerId = m01;
shapes = (
{
closed = 1;
nodes = (
(504,-1,l),
(547,139,l),
(514,163,l),
(488,133,o),
(474,111,o),
(372,105,cs),
(187,95,l),
(386,292,o),
(503,386,o),
(503,533,cs),
(503,678,o),
(399,768,o),
(282,768,cs),
(202,768,o),
(116,726,o),
(52,631,c),
(83,601,l),
(124,656,o),
(182,682,o),
(237,682,cs),
(321,682,o),
(399,621,o),
(399,509,cs),
(399,368,o),
(268,259,o),
(64,49,cs),
(49,33,o),
(64,-1,o),
(79,-1,cs)
);
}
);
userData = {
com.schriftgestaltung.Glyphs.layer.corners = (
{
name = _segment.bulge;
origin = _corner00;
type = Segment;
},
{
name = _corner.mitre;
options = 1;
origin = _corner01;
scale = "{1, -1}";
type = Corner;
},
{
name = _segment.bulge;
origin = _corner02;
type = Segment;
}
);
};
width = 599;
},
{
background = {
shapes = (
{
closed = 1;
nodes = (
(495,-1,l,{
name = _corner01;
}),
(541,129,l),
(508,153,l),
(481,123,o),
(467,95,o),
(365,95,cs),
(180,95,l),
(385,294,o),
(504,388,o),
(504,539,cs),
(504,775,o),
(215,865,o),
(54,631,c),
(85,601,l),
(187,736,o),
(399,700,o),
(399,512,cs),
(399,370,o),
(266,261,o),
(56,49,cs),
(41,33,o),
(55,-1,o),
(70,-1,cs)
);
}
);
};
hints = (
{
name = _corner.mitre;
options = 1;
origin = (0,0);
scale = (1,-1);
type = Corner;
},
{
name = _segment.bulge;
origin = (0,2);
type = Segment;
},
{
name = _segment.bulge;
origin = (0,16);
type = Segment;
}
);
layerId = m002;
shapes = (
{
closed = 1;
nodes = (
(505,-1,l),
(561,169,l),
(513,193,l),
(486,163,o),
(472,135,o),
(370,135,cs),
(220,135,l),
(425,314,o),
(514,418,o),
(514,539,cs),
(514,677,o),
(409,769,o),
(289,769,cs),
(208,769,o),
(119,726,o),
(54,631,c),
(95,591,l),
(132,622,o),
(177,638,o),
(220,638,cs),
(294,638,o),
(359,589,o),
(359,482,cs),
(359,370,o),
(266,281,o),
(56,69,cs),
(41,53,o),
(55,-1,o),
(70,-1,cs)
);
}
);
userData = {
com.schriftgestaltung.Glyphs.layer.corners = (
{
name = _corner.mitre;
options = 1;
origin = _corner00;
scale = "{1, -1}";
type = Corner;
},
{
name = _segment.bulge;
origin = _corner01;
type = Segment;
},
{
name = _segment.bulge;
origin = _corner02;
type = Segment;
}
);
};
width = 612;
}
);
}
{
glyphname = zero.lf;
layers = (
{
layerId = m01;
shapes = (
{
closed = 1;
nodes = (
(448,-10,o),
(565,146,o),
(570,380,cs),
(571,614,o),
(456,770,o),
(312,770,cs),
(168,770,o),
(51,614,o),
(50,380,cs),
(45,146,o),
(160,-10,o),
(304,-10,cs)
);
},
{
closed = 1;
nodes = (
(190,70,o),
(134,288,o),
(134,436,cs),
(134,593,o),
(185,690,o),
(284,690,cs),
(431,690,o),
(479,463,o),
(479,312,cs),
(479,162,o),
(428,70,o),
(332,70,cs)
);
}
);
width = 620;
},
{
layerId = m002;
shapes = (
{
closed = 1;
nodes = (
(448,-10,o),
(565,146,o),
(570,380,cs),
(571,614,o),
(456,770,o),
(312,770,cs),
(168,770,o),
(51,614,o),
(50,380,cs),
(45,146,o),
(160,-10,o),
(304,-10,cs)
);
},
{
closed = 1;
nodes = (
(218,137,o),
(163,370,o),
(163,494,cs),
(163,594,o),
(209,623,o),
(249,623,cs),
(397,623,o),
(446,397,o),
(446,267,cs),
(446,165,o),
(407,137,o),
(367,137,cs)
);
}
);
width = 620;
}
);
}
